<mxfile>
    <diagram id="CrMmGmko_87w380CFp0u" name="Page-1">
        <mxGraphModel dx="2457" dy="660" grid="1" gridSize="100" guides="1" tooltips="1" connect="1" arrows="1" fold="1" page="1" pageScale="1" pageWidth="827" pageHeight="1169" background="#4D4D4D" math="0" shadow="0">
            <root>
                <mxCell id="0"/>
                <mxCell id="1" parent="0"/>
                <mxCell id="132" style="edgeStyle=orthogonalEdgeStyle;rounded=0;orthogonalLoop=1;jettySize=auto;html=1;entryX=0.5;entryY=0;entryDx=0;entryDy=0;fillColor=#fa6800;strokeColor=#C73500;" parent="1" source="9" target="128" edge="1">
                    <mxGeometry relative="1" as="geometry"/>
                </mxCell>
                <mxCell id="9" value="InputManager" style="swimlane;fontStyle=1;align=center;verticalAlign=top;childLayout=stackLayout;horizontal=1;startSize=26;horizontalStack=0;resizeParent=1;resizeParentMax=0;resizeLast=0;collapsible=1;marginBottom=0;fillColor=#fa6800;strokeColor=#C73500;fontColor=#ffffff;" parent="1" vertex="1">
                    <mxGeometry x="-512.25" y="512" width="300" height="200" as="geometry"/>
                </mxCell>
                <mxCell id="10" value="+ LockCharaterRotate: LockInput" style="text;strokeColor=none;fillColor=none;align=left;verticalAlign=top;spacingLeft=4;spacingRight=4;overflow=hidden;rotatable=0;points=[[0,0.5],[1,0.5]];portConstraint=eastwest;" parent="9" vertex="1">
                    <mxGeometry y="26" width="300" height="26" as="geometry"/>
                </mxCell>
                <mxCell id="19" value="+ LockBag: LockInput" style="text;strokeColor=none;fillColor=none;align=left;verticalAlign=top;spacingLeft=4;spacingRight=4;overflow=hidden;rotatable=0;points=[[0,0.5],[1,0.5]];portConstraint=eastwest;" parent="9" vertex="1">
                    <mxGeometry y="52" width="300" height="26" as="geometry"/>
                </mxCell>
                <mxCell id="20" value="+ LockSkill: LockInput" style="text;strokeColor=none;fillColor=none;align=left;verticalAlign=top;spacingLeft=4;spacingRight=4;overflow=hidden;rotatable=0;points=[[0,0.5],[1,0.5]];portConstraint=eastwest;" parent="9" vertex="1">
                    <mxGeometry y="78" width="300" height="26" as="geometry"/>
                </mxCell>
                <mxCell id="11" value="" style="line;strokeWidth=1;fillColor=none;align=left;verticalAlign=middle;spacingTop=-1;spacingLeft=3;spacingRight=3;rotatable=0;labelPosition=right;points=[];portConstraint=eastwest;" parent="9" vertex="1">
                    <mxGeometry y="104" width="300" height="8" as="geometry"/>
                </mxCell>
                <mxCell id="12" value="+ ChangeInputState()&#10;+ ChangeSkillState()&#10;+ ChangeAnimationState()" style="text;strokeColor=none;fillColor=none;align=left;verticalAlign=top;spacingLeft=4;spacingRight=4;overflow=hidden;rotatable=0;points=[[0,0.5],[1,0.5]];portConstraint=eastwest;" parent="9" vertex="1">
                    <mxGeometry y="112" width="300" height="88" as="geometry"/>
                </mxCell>
                <mxCell id="14" value="LockInput" style="swimlane;fontStyle=1;align=center;verticalAlign=top;childLayout=stackLayout;horizontal=1;startSize=26;horizontalStack=0;resizeParent=1;resizeParentMax=0;resizeLast=0;collapsible=1;marginBottom=0;fillColor=#fa6800;strokeColor=#C73500;fontColor=#ffffff;" parent="1" vertex="1">
                    <mxGeometry x="-719.19" y="472.28" width="160" height="86" as="geometry"/>
                </mxCell>
                <mxCell id="16" value="" style="line;strokeWidth=1;fillColor=none;align=left;verticalAlign=middle;spacingTop=-1;spacingLeft=3;spacingRight=3;rotatable=0;labelPosition=right;points=[];portConstraint=eastwest;" parent="14" vertex="1">
                    <mxGeometry y="26" width="160" height="8" as="geometry"/>
                </mxCell>
                <mxCell id="17" value="+ SetLock(bool)" style="text;strokeColor=none;fillColor=none;align=left;verticalAlign=top;spacingLeft=4;spacingRight=4;overflow=hidden;rotatable=0;points=[[0,0.5],[1,0.5]];portConstraint=eastwest;" parent="14" vertex="1">
                    <mxGeometry y="34" width="160" height="26" as="geometry"/>
                </mxCell>
                <mxCell id="18" value="+ UnLock(): bool" style="text;strokeColor=none;fillColor=none;align=left;verticalAlign=top;spacingLeft=4;spacingRight=4;overflow=hidden;rotatable=0;points=[[0,0.5],[1,0.5]];portConstraint=eastwest;" parent="14" vertex="1">
                    <mxGeometry y="60" width="160" height="26" as="geometry"/>
                </mxCell>
                <mxCell id="23" value="InputState" style="html=1;shadow=1;fillColor=#fa6800;strokeColor=#C73500;fontColor=#ffffff;" parent="1" vertex="1">
                    <mxGeometry x="-650.87" y="945" width="110" height="50" as="geometry"/>
                </mxCell>
                <mxCell id="28" value="&lt;font color=&quot;#000000&quot;&gt;Normal&lt;/font&gt;" style="rounded=1;whiteSpace=wrap;html=1;shadow=1;fillColor=#fad9d5;strokeColor=#ae4132;" parent="1" vertex="1">
                    <mxGeometry x="-741.62" y="1131" width="120" height="60" as="geometry"/>
                </mxCell>
                <mxCell id="29" value="&lt;font color=&quot;#000000&quot;&gt;Skill&lt;/font&gt;" style="rounded=1;whiteSpace=wrap;html=1;shadow=1;fillColor=#b1ddf0;strokeColor=#10739e;" parent="1" vertex="1">
                    <mxGeometry x="-741.62" y="1031" width="120" height="60" as="geometry"/>
                </mxCell>
                <mxCell id="30" value="&lt;font color=&quot;#000000&quot;&gt;Map&lt;/font&gt;" style="rounded=1;whiteSpace=wrap;html=1;shadow=1;fillColor=#ffff88;strokeColor=#36393d;" parent="1" vertex="1">
                    <mxGeometry x="-561.62" y="1131" width="120" height="60" as="geometry"/>
                </mxCell>
                <mxCell id="31" value="&lt;font color=&quot;#000000&quot;&gt;Bag&lt;/font&gt;" style="rounded=1;whiteSpace=wrap;html=1;shadow=1;fillColor=#fad7ac;strokeColor=#b46504;" parent="1" vertex="1">
                    <mxGeometry x="-741.62" y="1240" width="120" height="60" as="geometry"/>
                </mxCell>
                <mxCell id="34" value="" style="endArrow=classic;startArrow=classic;html=1;entryX=0;entryY=0.5;entryDx=0;entryDy=0;exitX=1;exitY=0.5;exitDx=0;exitDy=0;" parent="1" source="28" target="30" edge="1">
                    <mxGeometry width="50" height="50" relative="1" as="geometry">
                        <mxPoint x="-728.62" y="1181" as="sourcePoint"/>
                        <mxPoint x="-678.62" y="1131" as="targetPoint"/>
                    </mxGeometry>
                </mxCell>
                <mxCell id="35" value="" style="endArrow=classic;startArrow=classic;html=1;entryX=0.5;entryY=1;entryDx=0;entryDy=0;exitX=0.5;exitY=0;exitDx=0;exitDy=0;" parent="1" source="28" target="29" edge="1">
                    <mxGeometry width="50" height="50" relative="1" as="geometry">
                        <mxPoint x="-728.62" y="1181" as="sourcePoint"/>
                        <mxPoint x="-678.62" y="1131" as="targetPoint"/>
                    </mxGeometry>
                </mxCell>
                <mxCell id="36" value="" style="endArrow=classic;startArrow=classic;html=1;entryX=0.5;entryY=1;entryDx=0;entryDy=0;exitX=0.5;exitY=0;exitDx=0;exitDy=0;" parent="1" source="31" target="28" edge="1">
                    <mxGeometry width="50" height="50" relative="1" as="geometry">
                        <mxPoint x="-728.62" y="1181" as="sourcePoint"/>
                        <mxPoint x="-678.62" y="1131" as="targetPoint"/>
                    </mxGeometry>
                </mxCell>
                <mxCell id="38" value="" style="rounded=1;arcSize=10;dashed=1;fillColor=none;gradientColor=none;dashPattern=8 3 1 3;strokeWidth=2;shadow=1;strokeColor=#FF3399;" parent="1" vertex="1">
                    <mxGeometry x="-772.37" y="920" width="363" height="400" as="geometry"/>
                </mxCell>
                <mxCell id="43" value="ControlScheme" style="swimlane;fontStyle=1;align=center;verticalAlign=top;childLayout=stackLayout;horizontal=1;startSize=26;horizontalStack=0;resizeParent=1;resizeParentMax=0;resizeLast=0;collapsible=1;marginBottom=0;" parent="1" vertex="1">
                    <mxGeometry x="334" y="575" width="160" height="74" as="geometry"/>
                </mxCell>
                <mxCell id="45" value="" style="line;strokeWidth=1;fillColor=none;align=left;verticalAlign=middle;spacingTop=-1;spacingLeft=3;spacingRight=3;rotatable=0;labelPosition=right;points=[];portConstraint=eastwest;" parent="43" vertex="1">
                    <mxGeometry y="26" width="160" height="8" as="geometry"/>
                </mxCell>
                <mxCell id="46" value="+ LoadControlScheme()&#10;+ SaveControlScheme()" style="text;strokeColor=none;fillColor=none;align=left;verticalAlign=top;spacingLeft=4;spacingRight=4;overflow=hidden;rotatable=0;points=[[0,0.5],[1,0.5]];portConstraint=eastwest;" parent="43" vertex="1">
                    <mxGeometry y="34" width="160" height="40" as="geometry"/>
                </mxCell>
                <mxCell id="50" value="&lt;b&gt;InputAction&lt;/b&gt;" style="html=1;" parent="1" vertex="1">
                    <mxGeometry x="717" y="585" width="110" height="50" as="geometry"/>
                </mxCell>
                <mxCell id="51" value="InputBinding" style="html=1;" parent="1" vertex="1">
                    <mxGeometry x="553.5" y="585" width="110" height="50" as="geometry"/>
                </mxCell>
                <mxCell id="62" value="PlayerInput" style="swimlane;fontStyle=1;align=center;verticalAlign=top;childLayout=stackLayout;horizontal=1;startSize=26;horizontalStack=0;resizeParent=1;resizeParentMax=0;resizeLast=0;collapsible=1;marginBottom=0;fillColor=#0050ef;strokeColor=#001DBC;fontColor=#ffffff;" parent="1" vertex="1">
                    <mxGeometry x="-75.75" y="492.28" width="200" height="200" as="geometry"/>
                </mxCell>
                <mxCell id="63" value="+ Actions&#10;+ Scheme&#10;+ Map&#10;+ Events" style="text;strokeColor=none;fillColor=none;align=left;verticalAlign=top;spacingLeft=4;spacingRight=4;overflow=hidden;rotatable=0;points=[[0,0.5],[1,0.5]];portConstraint=eastwest;" parent="62" vertex="1">
                    <mxGeometry y="26" width="200" height="74" as="geometry"/>
                </mxCell>
                <mxCell id="64" value="" style="line;strokeWidth=1;fillColor=none;align=left;verticalAlign=middle;spacingTop=-1;spacingLeft=3;spacingRight=3;rotatable=0;labelPosition=right;points=[];portConstraint=eastwest;" parent="62" vertex="1">
                    <mxGeometry y="100" width="200" height="8" as="geometry"/>
                </mxCell>
                <mxCell id="65" value="+ MoveCallback&#10;+ FireCallback&#10;+ LookCallback&#10;+ XXXCallback" style="text;strokeColor=none;fillColor=none;align=left;verticalAlign=top;spacingLeft=4;spacingRight=4;overflow=hidden;rotatable=0;points=[[0,0.5],[1,0.5]];portConstraint=eastwest;" parent="62" vertex="1">
                    <mxGeometry y="108" width="200" height="92" as="geometry"/>
                </mxCell>
                <mxCell id="66" value="" style="shape=image;verticalLabelPosition=bottom;labelBackgroundColor=#ffffff;verticalAlign=top;aspect=fixed;imageAspect=0;image=data:image/png,iVBORw0KGgoAAAANSUhEUgAAA4gAAAJWCAYAAAAa86klAAAgAElEQVR4Aey997sVRbb/P9c4RkAUBSMmzAkQsyA4YgYBUUcxg5IEkayOZEUQRVFEUEAQUFBURAEVMOd0xxknXefemef7y72f55n/oL7Pq4a1rdOneoez9z5nh/cP/XR3dcVV71q93r2qqn+1cuVKp0MyEAaEAWFAGBAGhAFhQBgQBoQBYaA+MbBixQq3aNEiN3v2bPcrgaA+QaB+V78LA8KAMCAMCAPCgDAgDAgDwkCIAUjir84bt83pkAyqFQM9J21zo598X15wzQQQBoQBYUAYEAaEAWFAGBAGisQAnkQRRBHkmvhAsGrVKimEIhVC+PVI1/qaKAwIA8KAMCAMCAPCQH1i4Fdffvml0yEZVDMGlr7+mXvuuedEEEUQhQFhQBgQBoQBYUAYEAaEgSIxIIIoglwTHwieffZZKYMilYG+EtbnV0L1u/pdGBAGhAFhQBgoDwZefPFFN2TIEH9wXYicR4wY4QYMGJD1IE62PFlPmPY82zMRRBFEEUQRq1TlkaZUFF6eF4nkKrkKA8KAMCAMCAO1gwFmuBnJW7x4cUH2lqXLdU7DCwSQtBMnTmxULmE8SyOJIogtTBA//fRT9/bbb9cESWvJaaryINaOMk1TdApXHwsDwoAwIAwIA8JAtWHgsccecxyF1jsXMbTn2fI1IhiSxFhYMo+sBPH99993N910kzv++OPdqaee6nBjfv75557MrF271h100EHugw8+KAm52bZtm+vZs2feeS1dutRdfPHFrlOnTu68887zgi8FQaHNH374Yd71sDILrb+lGzZsmBs/frwvr3v37m7Lli0Fl2155Trn07ZRo0b5Ps+VV/g8n3zD+OW4FkHUCyOp3HQvTAgDwoAwIAwIA8JAS2MAzsJRaD0ggLnS5BMnJIThdba8sxLEzp07u9/+9rfu1VdfdWx52q1bN3fzzTd7AoPn65lnnikZmYEYtWnTJq/8FixY4Nq2bevuv/9+x+6VU6dO9WR18uTJeaXPRlAuu+wy97vf/a7gfAqpv5X/8ccf+3p/9NFHvrx9993XvfXWWwWXbfnlOudqG33arl0717p164KIaq58c9WrFM9FEPUCyKbo9Ez4EAaEAWFAGBAGhIHmxgDE8Prrr/dHoSQxH/KXTxzabMSQ+FznkkMqQYS07LbbbhmPIUb8hg0b3JQpUzyBwct25513Zq7vvvtuX9i1117rxowZ47744gsfl4rMnDmzQbx169Z5Qd16663ujTfe8M+SBAuyAuEj/dixYx1kyojE4Ycf7iCJds/5+eef96TRPJyknzRpkuvfv7/DK7Z9+/YGdVizZo277rrrfBs2b97sn1HPI4880p177rneq0cbaRdzhvv27evefPNNl5Zvsv6bNm1yw4cPd8hjzpw5Depq9X700Ue999PujSBaubE62rOYDMM+sTxvu+0298knn/g+CNtmz8Mz7m/a3qdPHy/z8Jn1B+0ZN25cpj+SMgvTNOe1CKKUfi5lp+fCiDAgDAgDwoAwIAw0JwZqjiBi3B933HFu0KBB7r333mtEcEJCxPXee+/trrnmGjd79mx3yimnuC5duniCBIFgKiqEzuIxJfThhx/2xA1PIGvwwvwom+mml1xyiZ86CsnDe0n4K6+84jp06NCoPkkyQnoOSA9EkGmyECWrA3WdO3euu+qqq9zJJ5/s88NLSr2Jz6JS4u61116uR48e3kuJHLLlax5QyPXBBx/sidT8+fP9NFjIYLKOTN8dOnRoJtwIYrY62rN8ZEh51J9pwMm2JevCPW3DG4tn+MQTT8zUy57xHLILaUdOhOeTb6ysUoeJIErhN6fCV1nCmzAgDAgDwoAwIAzkgwFIYqHeQ/LF3s6Vfz5xzHvIObzOlneqBxEDHs8aRIoph6effrr36JmHDqJihIhrvI14sEgHSTTSxT2eQjxxxNtpp53ca6+9liEfkL877rijAUGEdBx11FENvJcnnHCCW7JkiVu4cKFj6ms2gkGD27dvn/FyEZc0kFXqsMsuu2TWTn722Wdujz32cFu3bvV5htMlibv77rs7mwKaK1+TB55GZMbaPMrGe2lyC+vNGsoHH3ww05aQIKbVMV8ZWjlGELkP22bP7UxdW7Vq5eVCXQ888EBPxnlOfxxyyCEN2oB31/o7W76Wf7nPIohS0tkUnZ4JH8KAMCAMCAPCgDDQEhgoZpOaXPXNRRBjhDAWliwnK0E0o57phU899ZQniXjXCIeoGCEKr3k2b968jMeP+8GDB7vbb7/dp9lnn30yhIhneKzwTIV5EAbBghTaAXmZNm2aJyvHHHNMgzzIJzwszzAMEpokovZ8//33z6z9C8lOWCfiFpIvazX3228/d8EFF/g1jTGCyLNZs2Zl6h4SRJNtso7UKR8ZWrp8CSJgYQoqZw42JYLYW7t/85vfZOppeds5lJmFNfdZBFFKP6ncdC9MCAPCgDAgDAgDwkBLYoBlapA4jqb85iJX3bMRxLL85gKP0vLlyxuQAtYLMiUU4z8kT+E1z7IRxF133dVP9TQCMXr0aD/NM8yDaYxnn32298BRDzuYIsoBeVy/fn2DurE+EsIFEWPqaNeuXRs8Z+3cyJEjG9Tb6pAvQSw0X6Z2MsUUkstupVaenS+//PLMDqaE5UsQ02SInMjD8mcdKB5Q22k2G5GDEF5xxRXulltu8QcfAvDCmjxtiq/lHZ6z5RvGK+e1CKJeALmUqJ4LI8KAMCAMCAPCgDDQnBh48cUX3ZAhQ/zBdSFl8/cII5dpZ+JkyzPtP4ekyfYs1YPIbppMvaQxZthDck477TR/HxK68Jq42QgiU0zZxIZ4TFHEa8WU1DAPiA5ElKmNxGPtX69evXwc7hEGa+Rsgxumwp5zzjmuX79+Pj7TRfHeMd+X+JBH8nv55ZcblMMzjpAgXn311X7tJOFhnbjPN1/WSTJ1FoJGOjyoTNXlOjzYxIZ1iBaWL0FMkyH54Gl9+umnfdn33Xef23nnnTMEMWyblcmZKb+Qbsh3GH700Uf7vPiFRyhP5M4z2zgomS9eUfqQvMLr2H1YXjHXIohS+NkUpJ4JH8KAMCAMCAPCgDAgDOSHgVSCiLHOlE7IE7uGMuWRjV7YPZNnIXkKr3mWjSCSzw033OCYJsovFQYOHNgoP/J48skn/WY0xx57rC+b6aGEc0C8IFeQGojfnnvu6XcLDQmOpcd7x3q6Bx54IFoO+YUEEVJJvSCcyXaF9cqWL1Ny2WDnsMMO8zKjDUmPJ3nhoUWmXHPkSxDTZEge7DLLtFJkAxEPp5iGbbMyObMbbRqBxatIHOSJR5GNi5DPI488kql3mC+kEZJK/PCaPJL3YR2KvRZBzG/ASzFKTsKAMCAMCAPCgDAgDAgD2TCQlSBitDPFEG+i/QqiGEM+JFx442xjmLQ8KXvjxo2ZTWKS8Xj+zjvvNPJ8WTyre0gc7Vm2MwTUNmCJxcs3X5saG8vDwiCa5gm1sGznfGRI/dLanKtt2cq2dpvnMIwb5ks8exZeE5a8t3jFnkUQpeiyKTo9Ez6EAWFAGBAGhAFhQBjIDwM5CWKxhnuYPiQ3YXg9X0Nsxo8fnyFUuWQhGTacpmvyEkHMb8BLMUpOwoAwIAwIA8KAMCAMCANpGGBtYrMSRH4XUQgZMuNf519IkWT4iywMF0zp5b+VaUBXuJSgMCAMCAPCgDAgDAgDwoAwkB0D7D2D06VZCaIZ9Do3JjmSSdNkAjlcu3atJ4cAWodkIAwIA8KAMCAMCAPCgDAgDBSGATyHyIzNQ3/FhchJ08hJLcuNLyy13L5abVvaeta08FqVQ1PaJRlJDzYFN0oj3AgDwoAwIAzUGgZEEBO/nqi1Dm5qe0QQq1PZpZGctPCm4qMW00lG1Yn5WsSi2iQsCgPCgDAgDLQkBkQQRRCjnkIRxOpUTGkkJy28JZVPpZUtGVUn5isNR6pP+XDEzuD8H5lfK+VzENf+yat+aVq/fPDBB/73ZvyWKx+ZK05+2JScJKdiMcCY5NeDjNFy6DcRRBHEKLBEEJv2Mi3HIC0kzzSSkxZeSN61Hlcyqk7M1zou1b5fcMku3n//+9/dv/71r7yOn3/+2f/PWDL8RYaFyILfZb3++uvu22+/df/3f/+Xl8zz7RvFyw/DkpPklIYBxiRjkzGa9mu7QsZ7Mq4IogiiCGINYSCN5KSFJxVCPd9LRk0zIusZM2p782Lm7bffLpikkEb91LR+4j/TP/74Y8EyTzNoFS6yIwyUHgOMUcZqqfWcCGINkYNSgkMexKa9UEvZB03JK43kpIU3pYxaTSMZVSfmaxWPaldjPIogNpZJOXGCZ+L//b//J4KYp8da5Kf05EcyzS1TxihjtdS6IEoQu3fv7tjqNCyMOa5nn312g7DwebZr5tlefPHFrlOnTu68885zjz32WJPySZbB2oIPP/yw4Ly2bdvmevbsGU1HnjfddJM7/vjj3amnnupGjBjhPv/882jcsD7Z8gzjVct1NoK4ZMkS99RTTzWQyccff+xmzpzpw8LrZHuJM2XKFH88/PDDfk3DZ5991iCvZJp87pl6NHr0aMdvL/KJX6tx0khOLJx+oh8nTZrkHnjgAbd48WL3xRdfNLv8Yngqdf/w/9Bc2IjJqNT1UH7Na+BK3rUlbxHE5u3P9evXixyKHAoDVYABxmqp33dRgrjvvvu6Dh06OEiPFQhx2mWXXTL3Fp7rvGDBAte2bVt3//33u1WrVrmpU6e6gw46yE2ePLngvJJlXXbZZe53v/tdwflAJtq0aRNN17lzZ/fb3/7Wvfrqq34xfLdu3dzNN98cjRvWJ1ueYbxquU4jiJDlUaNGeeIcknOuR44c6eUUXifbO3z4cC9bXvQvv/yymzFjhsdCsSSRepXjC0qy/pV+n0ZyYuGMnSeffNK9++67jv6AuDNem7ONaXgqdR34p08apq2smIzsmc7Na5hK3pJ3DAPlIIh8vD755JML0nv56JNY/cMwDLoLLrjA7bPPPq5169buqquuctu3by+oHmF+5biOEcR//OMf/mPitGnT/Jl7eXlye3kkI8monBhIEkR+YYhNjI1l9nGhvzVMJYgozSuuuCKjrJIEka/xeB769+/vCUOaYjv88MMbGZ3PP/+8J41UGqWWlhdE4+6773Zr1qxx1113nbvzzjvd5s2bfRo8UUceeaQ799xz3fjx470nkbh4Qfr27evefPPN1HzTyBxeht12262Bx3DDhg3ecDblS10ht9dee60bN26cwwvDM8vzlVdecddff7277bbbvNGdTDdgwAA3duzYTDprI8YreY4ZM8Z7cTDWiWteOZMTZSfz4NmmTZsc5Is85syZk+k3K3/JksVuwIA+0YNnFs/OacY0P6WH5OMFxjNs8UNSGF7bcztTx/DDA+GQxOeeey6TF7h48cUX3eOPP97Aw/jaa695Uml5cQbweLfpl4ULF6bmYVgjTVr+PCMv6kLZ9GVYVktcb9jwpnv88bnRg2fJOqWRnGQ4hPyuu+5q4DHcunWre+mllzJ5Mh4YT/PmzXPslmXexWz9QH2yyTdZ3zQ8ES+tL9LC08pdvXq11xHgNsRssi5JGSWf616kRRhoWQyUmiDyLmrXrp077LDDHHot3/5t6sfpMH/sl/vuu8+/u9C9l19+uSeJYZyWvo4RRN4J2Bv/+7//68/cl9PwVd4iVsJAbgwkCSLkEK7FObwuRKekEkSU5THHHOP4UkaGSYLIFE0OiALkjSmZyV10MLDxROaqUFpekK69997bXXPNNW7u3LleedqXPrav7tKliy8bg564e+21l+vRo4cnMO+9956vX6yORuZi9TruuOPcoEGDHOljz62ukDCIGnUgHnnusccevq48gyTyAjBiQrpLLrnEywtSjWfS0lkbkfUpp5zi84RIQQ7xtppXJy0PDPmDDz7YE9b58+f7qbyPPvpoo/pPmfJgI4JIWKydaQRx1qxZnkQAuNALHJLC8DqZd4wggjU8zBaXdj/yyCMO8gA5gSzzbOPGjf6FavF4SUGouU+WSR7UFQxC9kJPc1r+kCbyg0RQp4kTJ1YESXzppRWNCCJhJofwnEZyYuG0D2yBnzAPriHc9957r3+ONx2ZGQ6z9QNp0+SbLIP7NDyl9UVaeLZyMSrp/yeeeMJ/OIrVg7CYjNLiKrxliYLkX5/yLzVBRC/wUZX30pAhQzJ6MGYjYF/wcapfv35u1113db/+9a/dWWed5dMwG+a0007zNgh2U64v9bGP0dhYYTrefeRFueTNdvbgng/T2BI2BvhI3apVq8wHaepy+umne9sJe4mPrRa30HOMIOI5hBxitHPmXgZ8bgNeMpKMyomBJEGEe2Cnwwk4uDY+kq8eSCWIb731lp+Sxdc1dscJCSLkoX379hkvGIUxNRPDMCwYjw7hYVjyOlteKGmmtaKUSYdxCAnjaxv34Vc84u6+++4ZYzdXvmlTTPFQQkiZ8oGShQSZUCGlhxxySOaeOvAccpKsK8+QHZ5M0h111FEN0p1wwgmOtVekw2tJHqSBJBoJ5v7WW2/1XtRseVAG9aWPSIM31+rMvR2EjR17b4Ykch2LR/wYQeSlxppMPgTgTWLNn3l0Q4IWXlvZdo4RRKY4QkaIgwGAR9i8VYQhYzy5XPMMgsL1008/7Z555hl/HZZJHnyZDfPgJQnpyZY/uKJ95hW2dlJWSx60Y+nSFzIkkeuwbWHd0khOLJxxxQce2vzggw96QyLM18YZ+aMPJkyYkJFDWj9kk29YT66z4SmtL9LCc5Wbz5SwmIySddZ9y44Fyb++5c84L9TIIk0abiB4vFuJwwddi8d7OWkjGEEkTmh78F7BLuA9hf7kvQRhy7WrILOfevXq1Ujvkj+6mdlXEEbyZFkHe0PwjA+j5G/vKYikfajmnXXooYf6D2K823mGHRL7CGhtzXaOEcSkB5E6Ftonii+yJAyUFgPNThBRHBj0bCwTEkSmauHNChXLHXfc4TjCMBQvX8DCsOR1trxiSnr//ff3xir5hEo6GbfQfJP1QumzgQckEQ8pz8nzN7/5TbQ9yfKJf/TRRzumt5EOAgcptAMFz5e3ZDoUunkXyWPw4MHu9ttvz5oH8Vgnud9++/k1DXwVTSN+vFSGDh3iD3vBkD55xAgi0wwhBpw52NjEvEohQQuvk/nGCCIE18gH61QhLLxs7eCecPLi5cS6Oa4hgZBLrsMyicsGOMmyuc+VP+1hLeX06dM9SQ4JUyy/5grj48iiRc/6g+u0ctNITlo4+YAVPKaQRLxsljceXOSIp5Gv1hz2LK0fcsnX0nPOhieep/VFLDxXuSKIjcd42Be6lnyqAQOlJIjkxcwnazd2zrJly/x98r1MnDSCCCEM8yHupZde6t+VlnfszPuXj6ykxa5h5pJ9DA/jM5uJdy0fmS0cYmub/bF2keU+PKMuZ5xxRiYeYcS197Slz/ccI4jhGkTIIY6B3//+9yKJVbCRiUhZaUlZJckzSRDDaaXhdb5jn3hZPYhEwHiEJGHY2yY1TPfs2rVrAyXENA3bpMQqwNcsiFGy4niDWJxN3tnyiinpfAlioflSZ0gwRqvVnzOGNZvscE2eIXkL48XqagSRKafsAEv+4YF8kunSCGK2PKwevFxwJUNChw0b1qAdFofz1q3v+yMMS17HCCIvKaau8rLhgEzg+YNEhQQtvE7mGyOIED4jJkwJhVDz8gwPI7ysGaFMMBROSw3LJA+blposP1f+xOfjAIQJghqujUzm1dz3H3/8kePIVm4aEUyG80U5+WUdbN5zzz0+fzyGGC+QdwgpX61DgpjWD/nI1+qfDU8WJ60vkuG5yhVBFAEyTOlcvVgoJUHkPbLTTjs1OFgaAj6S72XC0ggi7xr2bAhxxXRV9iHA9iGdHawzDOPZNXq2d+/emamjvO/46MvSEXZ/v/DCC13Hjh0zafmYxx4R6GZsIupLXtSF6a9WHmdmXfHB08oq5BwjiEmjGHIokli7xCPZ37qvzL5O8iw+3ti0UvQJ14QVMv5zEkQyo2A8XkYQmeaFt8o2fMBYh0Qx9z1ZON6fE088MbO+hymJ55xzjp/HT9xsecWUdEgQr776ak9cyScZt9B8yQOjGGUaztmHaDH/n+cYxWG7MbohgRCZZPnEN4KI4Y188KgSzhdBppaQJpkujSBmywPjmHWN5u3C68g0Wcpq6pEkiNSZvjSiZvniUQQfIUELry2enUOCCElhES2khP4iDmHcG3nhnnVq5Gl5QCD5YmpfewkPy6Q/+FhBf/IM2VFP6p4tf7CJ/K0cBpN9pbWwSj8niaDVNxkOlocOHZqRM/Egw5A2rhnLDz30UEYWfJkOCSJxYv2QTb5WF8658JTWF2nhucrl404usp+UUVhfXTddl0h2kl2pMFBKgsiHVFvXR/1YmsHSGd4TXEOurN58kIJ4mYcvnL3Ex1LysricIYJJfRk+Z5kEM4jCMN5X2BeE8cH02GOPzWzoxofrkCDyTjvggAN8PKaqWj7MerJ1kRZWzDkfgghhgCTyoVfkoTLJg/ql9vslSRCLGfeWNi+CSGS8KUYQuUcZsAENivHAAw/MGJaWsZ0hLZACPImQpD333NMvCsd7ZnHS8kqSJ+KHBBGCyvx6CGcsbiH5Wl1Q2pTB/H/WIDD9I3yJkCcvETazoWw2UyFtrHwjiDy3uqD0ydem4ybTpRHEbHnw8mLROjuxUV/KKBYsSYLIetIYWcLoxqsYErTw2uRqZ7BgBySOL482TdTi4L1jsximnRLH1hnac6YTsgMnpMDCkmWSB1+ImR7J+o3w40Va/hgG9CdTVyGglM+L2MqohnMayYmFI0dkw666yJk2W1/wZRoCiJHDc/o+afDE+gEZpck3lF8uPKX1RVp4rnIxvmgrbQrrEV7HZBQ+17WIjjDQshjgffnzzz/nTUSIS5pkvzF9nvdlMpwZQpAswrFreD/xwZFlHuF+CGxUY+9wbBk8fXj1sHf4sMgHdfvImSyDez6QEQfPHu9v9G6fPn38zCqeQxCxMfiQR1w8lCFBJA5eRdZNhh/yqCvrIfmoiq7kozQ2WkwGsXolw/A68BNuEYzaJxjq4+rtY8YoYzU5fou9jxLEfDNFAWF4hWQvLS1xWbSdFreQvMIybHpjGBZeNyVfS4O3IszLru05ytjC8jmTji+HIbHJJ10YJ1sekJlSEZokQQzr0BzX9Csvx2zr7XLVw/JAZsm49iyWP/1aTB8ly2rO+zSSkxZucrAv48m6QrwxYJLhue4t35h8c6UNn6f1RVp4rnKztSVNRmF9dN2yBEHyr2/5o08gO5CvfA7ixnQQv8yy6aQhpvioaNNA2f2aXcT5sA0Jw6NoehKCyQdg2xyGX3GFu5iGv1wK8w+v2aSO5Tv8BxGyyLpFI3K8s/gfM2VD+JjunySIkFd2UrXZN5Y3H0NZh0h9ScueBPas0DM2248//iiCqPWFwkAFY4AxmmtTrELHPvGLIohNKVBpquMF39IEUThpGk7SSE5auOT8i5wlo19kIVxIFsKAMMAHfTwTGKDyJFavh0newdrsO8YkY5MxmuZ8K0aPiyAWsU6vGMFXeloRxOo0DtJITlp4peOwOesnGVUn5psTIypLGKk3DGB44p3ACGXpig7JQBioDAwwJrPNzCxWV4kgiiBGp5+IIFanIZRGctLCi1UgtZReMqpOzNcSBtUWYVAYEAaEAWGgEjAggiiCKIJYQxhIIzlp4ZWghCqlDpKRXsqVgkXVQ1gUBoQBYUAYaEkMeILIrls6JANhQBgQBoQBYUAYEAaEAWFAGBAG6hsDv2JXLh2SgTAgDAgDwoAwIAwIA8KAMCAMCAPCgAiiCLI+EAgDwoAwIAwIA8KAMCAMCAPCgDDgMSCCKCBIGQgDwoAwIAwIA8KAMCAMCAPCgDDgMSCCKCBIGQgDwoAwIAwIA8KAMCAMCAPCgDDgMSCCKCBIGQgDwoAwIAwIA8KAMCAMCAPCgDDgMSCCKCBIGQgDwoAwIAwIA8KAMCAMCAPCgDDgMSCCKCBIGQgDwoAwIAwIA8KAMCAMCAPCgDDgMSCCKCBIGQgDwoAwIAwIA8KAMCAMCAPCgDDgMSCCKCBIGQgDwoAwIAwIA8KAMCAMCAPCgDDgMSCCKCBIGQgDwoAwIAwIA8KAMCAMCAPCgDDgMdCIIP7ud79zOiSDesXABwnFUK9yULulA4QBYaCUGJBuFZ5KiSflJTwJA6XFQFJHRwnil19+6XRIBvWGAZRNcoAQVm9yUHs19oUBYaCUGJBuFZ5KiSflJTwJA6XFQExHiyCKDIsA7cBAbICIIJZWCUmpS57CQP1hQLq1/vpc41x9LgxUDwZiOloEUQRRBFEEURiQHhAGhIGyYSBmfOjjW/UYjzL01VfCQG1jIKajRRBlFJTNKGhJhTJhwgTHUUgdYgNERkxtK8VC8KG4woIw8KXXq9KtGgsaC8KAMFA7GIjZvyKIIogFkahqUQgDBgxwHIXUNzZARBBrRwEWggXFVb8LA3EMSLfG5SK8SC7CgDBQrRiI2b8iiCKIBZGoagG/jBgp6mrBquoprFYTBqRbhddqwqvqKrwKA7kxUDaCuHXrVrdgwQL3xhtvFEw23nrrLXfnnXe6L774ouC01unvvvuuL//tt99ukMfmzZt9+KZNmxqEWzqdc4OmWmXUkkZMS4+Hau0z1bt2x6P6tnb6tp51q9ka2DvPPvusw8ZoSWyXwn5qyfqr7NrRC+rL6u7LshHEe+65x+20007u/PPPz0tZdunSxT333HM+7iuvvOJ69+7tPv3007zSxkA4f/58X/7ll1/eII9rr73Wh8+cObNBeCwPhVU3uFkTY4ZL2jnXupnYACGsUGy09HgotL6KX93YV/+p/8qJAenWX/BltsZRRx3lDjnkELfbbru5hx56qOB3RDH9VWr7qZi6KO0v2JAsJItqxkDM/i3JFMKFDIIAACAASURBVNNOnTq5zp07u1133dVt2bIloyw3btzoRo0a5e677z7HNcKDrO2yyy7uqquucqtXr3Zr1671z02wlmb48OEZjyRxJk2a5F566SV31113uYULF2bKIJ0p7V//+teZ8vmf3T777NOAIK5Zs8YNHTrUjRkzJvPlj7zHjx/v68IzvgxaXZYtW+aoB8+3bduWCbfnOleOQqgkI6Ylx4MwWzmYlH5QX9QCBqRbf8Gx2Roff/yxtwduueUW17ZtW2/HIKfFixe7+++/3z9Ls2XS7A2LzwdGmw2FfRLmm6/9FOYBBvVe+KUPa2FMqg3qz1JjoCwEEQ8g3kPIHooSZUbFUXDcn3vuua5Xr15u//3392E833nnnV337t3d0qVLPWHca6+9GqXp2bOnJ3ivvfZaJs6FF17oOEi/fPlyn4ayUNqQTkgqipGwyZMnu+OOO861adPGp4dc7rHHHg6vYrdu3VzHjh19PBQu4WeddZa78sorfT6zZ892ixYt8uG33nqr44td165dM+WVumOUX+kHu3kRC5FtbIAU6kFsyfEgzJYeR4XgR3El/3rAQD3qVuvXJEGE7GE/YEfsueee7vTTT/cfsUP7J2nLxOwNi88sKD6eYzuxNCaZbz72UzIPvReklwy/OgsLaRiI2b9FexBvv/12d8wxx3jy1K9fP68gqQCet4MPPtivLWR9IYoUssczyNycOXMyBM0IImk6dOjgPv/8c//s2GOPdYMGDfJKEu+kfbU78MADG3gdjSDOmDHDHXbYYb7M448/3k2cODFDEKkDShgiSzmQ2nfeecfnTX3ee+89X+all17qzjvvPDdr1iyHR5LpI9T7o48+8s/ThKvwyhp4LWXEtOR4EGYrC4PSCeqPWsRAPepW60cjiDfccINf0tCqVSvXv3//jB2xfft2bydks2Vi9saIESO87cK6Ro5DDz3Uf2w3j6HlSz3S7Ke0PPRekB4y/OosLKRhoCwEEUW29957e+XGVy+8e2+++aa76aab3GmnnRYlVWkKjjSnnHJKJs0FF1zgvXooSSORNA7vH1NXraFGED/55BP/5W3IkCE+PkrVPIhM/WjXrp33FF599dWeILLAO5n3zTff7E4++WRPUpmKivcQoogX1MrTufIHWUsZMS05HviwIsxWPjalP9RH1YyBetSt1l8hQWR2ER+l0btJOyJfW8bsDeJjnzCLyY65c+c2ypd6ZLOfYnnovSB9Y/jVWVhIw0DJCeLzzz/vida8efP8lE+mfR5wwAHeQ4fCZCrFunXr3Pr1692RRx7pVqxY4UkWhIt5+knFOn36dJ+GaXobNmxwrVu39p7HpPJNI4g0HI8j3sFrrrnGl2UE8cYbb3RnnnmmDyM/4hhB5Jo2sM7w6KOPdn379vXrHAcPHuy9kVOnTvXxWdeYJlyFV9bAYyqOTXfOt29iA4SwfNO39Hhgba4wW1k4zBc7iqd+qxYM1KNutb4xgmizmSw8aaNks2Vi9sa0adMy00o//PBDB/lktlMyX8pLs5/S8tB7QbrFcKqzsJCGgZj9W9QU04EDB2aml1qhFgb5g6QxNRSFBukijHiEoySpUKgAec78e9JwXHzxxX530zAO6bMRRKaDsrOYkVEjiBjvTAdh2ivewJAgsnagR48e/sscu5NBTvllB6SWNHgvhw0bljdRMFnoXF2DMTZACiGIhv2w3y2sOcaDMFtdeAtxomv1XS1joNp1q/VNvgQxmy0TszeIz8wmPqpjL5199tmOGVBJ24d6ZLOfYnnovSDdYvjVWVhIw0BMRxdFENMKCsPxuiW/tvGcr2QoxTCuXZOmHLuG8iuNpBcwVMA8S/6PkbWJafW0+upcG4MuNkAKIYj54KA5xoMwWxt4zAdPiqO+rgYM1IpuLVTWSVsml72RjJ9WXlPsJ70XpCvS8KRwYSOmo8tOECsdeKHCrvS6qn7lHcSxAVJqgqg+LG8fSr6SrzBQeRiQbv13n8jeqDxsSl+oT4SBL/2MTj5QhUfdE8TPPvuskVdRYKlPhSEjpj77XeNd/S4MlBcD0q3/lq/sjfLiTONY8hUGmoaBmI6ue4IoMDUNTLUot9gAIawW26o2CffCgDDQXBiQbhXWmgtrKkdYEwYKx0BMR4sgflm4IAW+2pRZbICIINZmX2sMq1+FgebDgHRr88lauJashQFhoFAMxHS0CKIIojxkOzAQGyAiiFK0hSpaxRdmhIGGGJBubSgP4UPyEAaEgUrCQExHRwmi+/+ecrHj1VdfdTokg1rFQGyAELb6u4XRo1bloHZpjAsDwkApMZCmW5999lmnQzIQBoQBYaBlMRDT0SKIIr0i/TswEBsgIogylEtpKCsv4akeMZCmW8Md83TdcAdByUPyEAaEgebCQExHiyCKIIogiiAKA9IDwoAwUDYMxIyPWFhzGUMqR4a3MCAMCAO/YCCmj0UQZRSUzSioti/lsQFCmKaYyutTbVhWfYXZcmFg1KhRjqOQ/NN0qwy0Xww0yUKyEAaEgZbCQExHiyCKIBb0oi/EKKi2uLEBUihBfPDBB92LL75YsExfeeUVt2TJkoLTVZuMVV8RF2GgujEwYMAAx1FIP6bp1pYyhlSuDHFhQBgQBn7BQExHiyDuIIgrV650Z599dkEvvUJekIpb+UZRbIAUShCHDh3qhg8f7mbOnOnWrFmTF55mzJjh9ttvP9exY0f32GOPuQMOOMCtWrUqr7TCVeXjSn2kPqolDJSDIP7www9Oh2QgDAgDwkDzYsBIcsz+FUHcQRCXLVvmWrVqJaO8jj2qsQHSFIIISeS455573Lx589zatWuz4qpnz57upptu8nHwJE6ZMiVr/FoyNtUWkSdhoLowIILYvAacDGbJWxgQBsqFgYojiKtXr3a33Xabu+SSS9zEiRPdhAkT3OzZs71RvHz5cjdo0CDXu3dvd9ddd2WMazwqN9xwg/ewXHrppT79unXrvBHO/ZgxYzJGNUb23Xff7Qi/4447Mp4cy+Opp55yV1xxhevfv79buHChT5ckiGn1gDCMGzcuUxbGDfV6/vnnG4TJ6Kkuo4f+KjVBNKIINp955pkoPkaMGOEOO+ww17lzZ3fLLbd4z+HAgQN9XMMr3siLL77YLVq0yKVhW3irPrypz9Rn1YAB1hsaKUw751qTmKZbzTgpl/GjfGVYCwPCgDCQjgHTwTEd3SIexNNPP91dcMEFnhxi+Hbo0MENGzbMG8ft2rVz11xzjXvggQf8lM++fft6YxkCt9dee3lSOX78eHfccce5k046yXteMMCZlvfQQw/5uEwVPf/8833+EM1TTz21QR5dunRxY8eO9QZ5mzZt3OLFi11IEDHM0+oBkaW+9mJ//PHHfdmQVQvTuToNv9gAIayQTWqMFMbODz/8cCOMPPLIIx7HfLDAcxjikOs99tjDnXXWWf5DCB8t0rAtzFUn5tRv6rdKx0A+BJHZEtnakaZbzTiRAZduwEk2ko0wIAyUCwOmg2M6utkJIgSrffv23hNiL5QjjjjCE0Tu8ZJYOAY1z7jHWN51110za7MgiZ06dcrE7devn/fkzZ0713tkQsJ29NFHu1mzZvk8dtppJ/f0009n0kEgr7322gaGebZ68AyPj3k88UJyWJ11rl6DLzZASkEQs3kQwcuFF17o8CRynSSIu+22m8PjzrNs2Bbuqhd36jv1XTVhwLyIhdQ5TbeacVIK4+fee+/1H30Lyeujjz5yX3zxhV//+MYbb7gDDzzQff7551oPqTWhwoAwUBcYMB0c09HNThD50njuuec2IFQ9evTIEESmnJ533nnuyCOPdIcccog/eBGFhjP3kydPzngGub/uuuv8NBi+du67774OUmjHPvvs40aPHu3zwAsZvtiozznnnNMo/7R6kPbGG290V111lc8HssuU1TBPXVenwRcbIMUQRFuDGH6siGEjG0EM18Vmw3YsX4VVJw7Vb+q3SsZAOQkiSz6YCZR28DxGAL/55hs/kwd9icETixMLu/zyy920adN8fPJgNlEsnsLkwREGhIFaxEBFEUSIHVNDwxfgGWec4Qki0+2YKjp9+nTvNWH6JiSRuPkSRNYzMoWVXw2Ex8svv+zzwAvJtZV/6623OjYJCfPPVg/S4eWknnglQy+m5alzdRp4pSKIhe5imi9BzIZtYa46Mad+U79VGwbKSRA//vhjN3Xq1ChBJJznMSNt/vz5/sMzy1PQk2EciB+/H2JtNx9+v/rqK/+cWUB8iOaD9aRJk7wnkX0PLC3pWOrCDCNmgXz66af+GR5HdPxrr73mZy0NGTLEbd++PZPO0ussQiEMCAOVjoGKIogvvfSSa9u2rWM6CNdMFd1zzz09QWRdoK0X5KXJ1M1CCSKkkHWFTMcjD9Zt8QKAAHIwxZQNcnjGWsNDDz3UbzoTEsRs9bCXOfXEQ8kLxcJ0rm5jrxQEsSn/QcyXIGbDtrBX3dhT/6n/qgUDzGQI1xxClow0ch1rR5puNeMkNKJ4F8c8iISH8cLrXr16OX4XhAfwxBNPbBCPZxx8cIbsde3a1T/nN0TsR8Amc0uXLvWex9atW2fSWronn3zSxzn++OPd119/7eMxE4llLU888YTr06ePO/nkkzPpwnrpWgRBGBAGKhkDpoNjOrrZp5jy8kBR4zVkeiY7jV500UWeILLWit0cIW0QQ3Y5LZQgkj9GOmsJ+K8cU054KRBuJJDpoaxthKgyxSR8xnW2evCcgxfk7rvv3qSfolseOleWURgbIIQVsklNU/o0X4JI3mnYbkq5SlNZ+FN/qD+qEQOQq0GDBvmD61gb0nSrGSehAfXll196sheSRMgf4WE8u2YdIctKPvvsM/fdd9/5DebWr1/v4zJb6OCDD/bhFh8dausOwymm1MUIIukOOuigjLeRtNgmeB2Jx4dmW6v47bffelvgk08+idbPytVZREEYEAYqDQOmg2M6ukUI4gsvvNDgJdKtWzfvUbQXC0QO757dN+XMv+f4mmgbfJCHEUSuV6xY4Y9seWerB2sak2sps+WlZ5Vv/MUGSHMQxEKxEcN2oXkofuXjUX2kPqoWDOR6n6bpVjNOkkYTOi4kiNwn49j9/fff76eKcuZgds/tt9/u4/OLID40W9zkOY0gkg4PYhh/8ODBjiMkkvacj81btmxpEN+e6SxSIAwIA5WKAdPBMR3d7AQRRY/37rLLLnP33Xef9+7tv//+nryV+2UYEsSmlsWGI3gk+bpoO5k2NS+lqywDMDZAKpEgCjeVhRv1h/pDGMiOgTTdasZJ0njCE/joo496ksiZ+2Qcu4cQXnnllX7pCMtHmDLK+5k0TAHlA7TFTZ7TCCLpzjzzzAbpWMPIh2ERRBn7SRzpXpioVgyYDo7p6GYniLxIWUuFImeqJz+yX7JkSVHewnxfzngTWVCeb/xYPDyb5PHYY48VlU8sb4VlNzLKLZ/YABFBbNk+KXefK3/1rzBQfgyk6VYzTmLG1caNGz1B5Bx7TtiGDRv8MhLWBoZxjjrqKPfcc885pn0ybXTlypX++TvvvON4ZhvV8J/lkSNH+mch8Uum27x5s9/bgI1pwnhWpjyIIgiGBZ2FhWrCgOngmI6OEkQi6pAM6hEDNljsXI8yUJs19oUBYaDUGDCdamfyt+s0g8qIXdpzNoljM7vkc0gfXkXC+TUGHsXjjjvO7z7OBnYWn/zZkZxfXVEXW4No6Tp06OBOOOEEv66RKa+EJ+MRJoIoUmCY0llYqCYMmA4O9bGFRQmiPdT5g8wLTLKofVnEBghhaZvUCBO1jwn1sfpYGCgeA2m61WRbboOK6aasETTPYVje999/n9m0Jgzn2tIlPZTJeLoXKRAGhIFqxIDp4JiOFkH8oPiXnwlY5+qWZWyAiCBWd59qTKr/hIGWx0CabrW+qUbDSnUWIRAGhIFqx4Dp4JiOFkEUQZSXdAcGYgNEBLHljUtTYDqrL4SB6sRAmm61/qx2I0v1F1EQBoSBasSA6eCYjhZBFEEUQRRBFAakB4QBYSAvDIwdO9ZxmGGRzzlmfIRh1WhYqc4iBMKAMFDtGDD9HepjCxNBlFFQ0IvegFOL59gAIayQNYhz5sxx7LpXi/JRm6rTe6N+U7+VEgMDBgxwHIXkmaZbC8lDcYVjYUAYEAbKg4GYjhZBFEEs6EVfy4MzNkAKJYjjx493EyZMcAsWLHDvvvuuZKvxJQwIAzWFARHE8hhotfxuVduEGWGgsjEQs39FEGW81JTxUowSig2QphBESCLH5MmT3QsvvOC2bdsmGWucCQPCQE1gQASxsg29Yt6BSqu+FQbqEwMx+1cEUUZLTRgtpVBqsQFSDEE0ojhlyhS3evXqqJz5AfOdd97pnn/+eXfNNdf4nzZv377dk0t+4sy/t6xt77//vrvvvvtcnz593LBhwxw/febZY4895qZPn56JR9jtt9/uXn/9dR9GOtYMkd+oUaPk2dSYb4AVw5fO9WkY5Op3dIeRwrRzrjWJabo1V9l6LkyWGgPM7Nm0aZN/f/IO1SEZ1AsGwH3azLaYjhZBlLEoY3EHBmIDpBQE0YgiP2xOvuzefPNNt/fee7urr77ak7yTTjrJnX766Y4fQEMODzzwQDdv3jyfrnv37o7j4Ycf9j+H5sfP7733nlu0aJE75JBDMnkvXbrUtW/f3kE0KY80vXr1crNmzfLkskuXLpm4yfroXgaZMCAMhBgQQRQeQjxU8zXG8aeffur++te/up9//lmHZFBXGAD34D9GEmP2rwiiCKLIQpkJYjYPIgRxt912c3gSefHiCTzxxBMzfXLjjTdmPIwHHXSQJ4T2goZImoexY8eOnijy7KabbnI333yzz2PJkiXuyCOPbDDNFWL59NNPZ8qw/HSWISgMCAO5MGBexFzxwucx4yMWFqbRtbBYagzgQRE5FDGu548D4J9xkBxbMX0sgiiC2AgoSeDUy31sgBBWyC6m5i3Mdw0iBLF169aZPnjkkUdc6OG77bbbPNl74IEHvCcw7AtIoBFBPI4DBw70+eBNfOmll/w16cgfUmhHq1atHOFhXrqWMSYMCAP5YEAEUTjJByeVGIephPVMDtR2kWMwwDhIjs+Y/SuCKILYCChJ4NTLfWyANIUgFrKLab4EkemhnTt3btBXrFm8++67fdirr77q8DDiGWSaqvXZzJkzXbdu3fyvN/j9hh1MTbU4OsvgEwaEgXwxIIIorOSLlUqLFyOIv/nNb9x5553nD66nTp3q/va3v+VFJL/77jv3hz/8IRM3eS9CJkJWiRgQQRTxEwEoEAOlIIiF/gcxX4L49ttvuzZt2rhnn33W9+vatWvdfvvt55YvX57p5zPPPNN7CceMGZMJe+utt1zbtm0dU015WW/YsMH16NHDUW6lvbxVHxmewkDlY4A1ieGmNKNHj85sYnPvvfdG9Uqabi1nfw8fPtwxRb+QMtCXW7Zs8WlWrlzpDj744Mz0/0LyicVl7Tgf62KHbSgWS6ew0o2JGEFkRg27jb/xxht+5g39M27cuAzpy2bgs/Eb73yLk7y3cJ1FFCsJAyKIBZIDKeHSKeFqlWWaEVPIFNNC254vQSTfuXPn+s1nmCrarl07/yuNsDymje6+++6eBIbhlu6YY47x001tWmoYR9fCvzAgDDQFA5CbW265xR9pRCdNtzalvHzSsHMzMyr4OFbIx7BLL73U7yBNGeTxxBNPFEQws9WNeixevNgfkJA77rgjc09Z2dLqWWnGZhpBZOMOM+BffPFFd+655/p7vIP33HNP5hlx+PDw5z//2T311FPu2GOP9Us/8Dom74n7l7/8xTGLhw8V/Pbq97//fSZfdiRn7wHGzsiRI93XX3/doByrj84il6XGgAiiCKJeOAViIM2IKSdBLPTFzz8V161b12CzmnzyIB3TUO3reD5pFKc0RonkKDnWOgbwvHGktTNNt6bFLzYcbx1GPrtDJ72akDHWiPfv398/s+n2GPlHH320T8csDHQlvwuyupAOz1K/fv3ciBEjMut4iDdkyBA/m+Paa691rBvPRUp79uyZIaKWP7tVz5gxI1Me4YMHD3br16/3daEM1paz1pyPfC+//HImrrWJutHe2C6FVk49n3MRRDbwuOGGGzxhwyj/5ptv/Eyd0EBn1/Eff/zRf4g9++yzPcGjL5idE96T5rLLLvMHHwYggieffLInl+S7zz77+LKee+45B27OOOMMEUTtqlowBtasWe0GDOgTPXgWYteuRRALJAf1rDTV9n8bsGlGTCURRPWVyIYwIAxUGwbSdGu52gEBY0YFHsBwTTblXXTRRY7nrOuGUHXt2tUTLabhs0EYxvqCBQs8ydt///0zJIw0HGwkRhx2m4aY2SwQ/k8LMb3qqqvcqaeemkkXayP54FEKn/G7oiOOOCITtmzZMj/Fld8VWRnnn3++mzZtmvdiMYvktdde8/FpE+vnKJ824aEM89b1v3VGGkHkd1L8GgryR999++233rDORhAxtpNTSsN7PpgwRflPf/pTxkg/66yzvKeRfHfddVdPNMkHYrrnnnu6H374IRPXjHmd5UHMhYFHHpnZiCASlpZOBFEEUS+IAjGQZsSIIMogl4ElDAgDTcdAmm4th0wxzJlaylbukKsOHTq4FStW+Pfh888/7w477LAGv/3Bm2gzK8IpppAyI4isUcPYN28j9YZM4nUk3q9//evMWsWtW7d67xDrxtPaFyOIxMWDiUeJ63CXasrgd0irV6/O5AkRvPXWWx1tYvmA/feWtJDiZ555JhM3rR71Fp5GEJHdTz/95L744gs3bNgw/9EA47oYgohHGDyFRjqeZ45YvhD+cKprmE7XIonZMMCmSpMmjc+QRK6zbbQkglggOag3Ran2NjZ20owYwnVIBsKAMCAMNB0DyXcOskyGleKeDXQgWraZzmmnneYGDRrky3rwwQfdxRdfnFpuGkEkHV66sH6QM46QSNpzPFIsBbD75DmNILIr9fXXX+/THX744Y6NckhLGeHvkAjDQ0o+1A1CDCm0g/tyyTfZlmq6TyOIITHDsN53333dl19+6diVlE1szDj/r//6L7/OnymmhIUew+Q9RP+cc87JpOU5OJw4caIIoqaSNsCF4auYMx84Ro4c5g+us+UlgiiCmPpyqiaF3px1jb1QCZMHsTGZbs5+UVmSvzBQ3RhI063l6FcI4eWXX+6NcQxypoPi/cNLZDuJppWbRhBJxy7RYTrWMOJtKiVBhFRSV7x/4TRVythjjz38lFarAxubXHnllX6qLETEfmFkZ6a/Wlyd/z1+8iGIeIvZIZyNaDCyIeYQdcghON55550zU0NZDxrueBreM10Uos40YPL55JNPvEcab7U8iPIIZiNwTX32/fffOY5c6UUQRRD1cigQA2lGjAhidRunMo7Uf8JAy2IgTbeWul9WrVrljfIkOWK3SdYjYhgdcMABmd8FsbkIz2zqKOsH7d+yIfFjumiYDiLHPTtehvGsPU31IJKe9YOsbwx/JUIZTDFlR03iQDKOOuoov6kNU2qZnshUU55x36tXL18vq4/O2QkiHkM8hWwcgxeWzYDMyH7sscf82kRII95a26SG55A/dsvt3r27j5+8Zx3poYce6k455RS/xpH1q6QTQRRBNHy1xFkEsUByIAXasgZEJcg/zYgRQRQ2KgGfqoNwWK0YSNOtpW4Pu44y7S+ZL6QPryLhGPx46Y4//nhv3E+fPj0Tn//MYvDjkUsSP9Jh7EMgWNfIVEHyS8YjrBiCyNTRvfbaq8GusFYG008htNQRz6i10+rGL5BYN8nUV3um8y96I+ZBzMdAZxMZ8ygm4+NZ5HcYFp68Jy1TWNPSWzqdRRqbCwMiiCKIekEUiIE0I0YE8ZcXrIwNyUIYqG8M2Nq+QnCQplsLyaOUcbP9LoipqLZpTbJMS5f0UCbjFXOPrJLrJI0gki/ezNgGOPqVUe5x2VSC2FyGu8oRSWwODIggFkgOilHoSptbMVeDjNKMmEII4pw5c/xakGpor+pYG7hVP6ofmxMDAwYMcByFlJmmWwvJo9bjQkzx/LHLqu1kam0OCaKF6Vz4uGdnWzx6zWGEqwyRvUrEAPhnHCT1R0xH/yqfSMk4ui9cMUlmlS+z2AAhrBCCyJbpEyZM8P/RyudnxXwJZv1CMfgoRR7FlK+0lY9t9ZH6qFQYEEEsD5Y2b97s1x2ySUqyr/Bo3nfffY3Ck/F0n71veCcz3TP8N2ElGvGqk8hlOTAA7jds2OBitmnM/hVBlKdRL50dGIgNkKYQREgiBz9C5mXP1J+0FzdfhpPbl6fFTQsvRR5peSs8u8Eh+Ug+9YYBEURhvpoxz8ZEeGhZb6pDMqgnDIB78B8bvzH7VwRRBDEKlhiAaj0sNkCKIYhGFKdMmdLgB8ehHJPkjrUtfCnu06eP30I9nCue9iyZx+LFi91dd92VlZiGddC1DD5hQBhIwwBrDo0Upp3DHTdj+aTp1lhchQmLwoAwIAw0LwZiOloEUQRRBLFMHkQjiHZeuHBhI1knyR3TTTn47xb/2WJXOtuCPe1ZmAdbnR9yyCFuyZIljcqSwm1ehSt5S961gAERROG4FnCsNgjHwkA6BkQQRQZFGrJgIDZACCt0DaIRQjvn60GE3LF9uRFClNnpp5/uHnroIf+Pq7RnRhCXLl3qNzjAgyhFmK4IJRvJRhhoOgbMi1iIDNN0ayF5KG7T+0yyk+yEAWEgGwZiOloexCyEIZsw9az2BltsgBRDEAtdg8j/r5Ib1tx8882OI9szCOLuu+/u/391ySWXiBxqTAsDwkDZMCCCWHvvPtkz6lNhoL4xELN/RRBlSJTNkKg2hRMbIE0hiIXsYmreP2Q1a9Ys17lz5wb9cc011zh+8pztGXnssccebtmyZe6II45wkyZNapBHtfWD6lvfLyr1f2X3vwhiZfePxo/6RxgQBgrFQMz+G0npOAAAIABJREFUFUEUQRSZ2IGB2AAplCAW+h/EkCDyu4o2bdr4ndUY3GvXrnX77befW758uf8xctqzMI8VK1b4NJpmqhdEoS8IxRdm8sEAaxLDTWlGjx6d2cTm3nvvjb5P0nRrPuUpjnApDAgDwkB5MRDT0SKIIojRF3o9DsbYACmUIBYqt5DckXbu3Lmuffv2fnOadu3a+d9lWJ5pz5J5TJ8+3edBuKXVubzKVfKVfOsVA6+//rq75ZZb/MF1TA5pujUWV2EaS8KAMCAMNC8GYjpaBFEEMfpCr8fBGRsg5SaIMTnz38R169Y12KzG4mV7ZnF0bl7FKnlL3vWOgbfeestxpMkhTbemxVe4xpQwIAwIA82HgZiOFkEUQUx9qdfb4IwNkJYgiPUmd7W3+V4CkrVk3RIYSNOtLVEXlakxIAwIA8JAQwzEdLQIogiiCOIODMQGiAhiQyUipSp5CAPCQKEYSNOtheaj+MKeMCAMCAOlx0BMR4sgiiCKIOYgiAwcHZKBMCAMCANNx0DSqEOWyTDdl97wk0wlU2FAGMiFgZg+FkEUQdRLOgdBzDWw9FzKVxgQBoSBdAzEjI8w7IcffnA6JANhQBgQBpoXA/beCvWxhYkgiiCKIIogCgPSA8KAMFA2DMSMjzBMRmHzGoWSt+QtDAgDYMDIYKiPLUwEUUZBBiAGino9xwZILKxe5aN2p3tIJBvJRhhIx0BMj4ZhMlZlrAoDwoAw0PwYsPdWqI8tTARRBFEEcQcGYgMkFmaDR+d0g1CykWyEAWHAMBDTo2GYDMPmNwwlc8lcGBAGsuloEUQRRBFEEURhQHpAGBAGyoaBkAzGDJJiDNUePXr4eufK46OPPnJffPFFs651DMt844033IEHHug+//zzZq1DLrnouUiCMFA7GJg0aZLjyLdPY/rYwkQQZRSUzSgwkFXLOZcRUy3tUD3luREGhIFKwkAu3WrGzMKFC91DDz2UevDc4tp57733dlu2bGkUbs/tfPnll7tp06bljGfxS3EOy/zmm2/c4sWLm7X8UrRBedQOeVBf1n5fDhgwwHHk29f2nojpaBFEEUQRxB0YiA2QWJgNKJ1lhAsDwoAwkBsDMT0ahpkx8/HHH7upU6dGCSLhPLe4djaCiHdw+PDh7rXXXnM33HCDGzJkiNu+fbuPP3v2bHfkkUe6c889N/N1HcL24IMPumuvvdZNmDDBffnllz6u5bNs2TJ3zTXXuE2bNrkPP/zQjR492se9//773XfffZeph+UzcOBAN3HiRPfVV19FyyTfu+66q0G6Bx54wOc5ZswY9+mnnzYoP9YO2rx161Y3cuRIR3mPP/54Jj+Th861TwLUx+rjNAyIIIrUidSVAQOhwWJGXyzMnumc2zCUjCQjYUAYiOnRMCw0diBmMS8i4WE8uzaCCM722msv169fP/fEE0+4Pn36uJNPPtmnWbNmjevSpYsnjkuXLvVhvXr1cr1793bz58/3JK1bt24+nHz22GMPd9FFF7kZM2Z472T79u3dbbfd5p5++mnXs2dPd8stt2TqQj4ckDXIZteuXaNlkm/r1q0bpXvyySd9vY4//nj39ddf+3d7WjsgsR06dPBE9JlnnnGdOnVy8+bNy+RpMtFZBEIYqE8MiCCWgRzIiJERExoshodYmD3TWZgRBoQBYSA3BmJ6NAwLjVlIEMQsJIncm4cvjMt1SBB32mmnzBq/b7/91u2+++7uk08+8QQqnO758ssvu6OOOqqBJ/CEE05wy5cv9wRt1113bVDe5s2bMyRsxYoV7phjjvH35HPwwQc3yAevpK11DMsEJ0YQSXfQQQdlvI20o3Pnzg5PJ/HS2oE3s1WrVhlPKl7H0JuZlI3u65MkqN/rp99Zb2ikMO2cbU2ivb9CfWxhmmIqsilv5A4MxAZILMwGj865DUPJSDISBoSBmB4Nw5IG7dq1axsQRO6Tcew+JIhGwOxZ27ZtM+sTQ7I2c+ZMT7QghXbsu+++btasWf59mMwHL+Mll1ziPXZHHHGE46AM8iHcykuewzIZB5Yv6fA6hvEHDx7sOMJ49jxsx6233urzufDCC/2aShHE+iEDhged1eeGARFEkTiRuGbAQGiwmFEbC7NnOsvwFQaEAWEgNwZiejQMM2PHzpCeRx991JNEztlIUFMIItNBzznnHO+JY12jHTbF04gc9Vm5cqXfffSFF17wXsV169ZlCCJTWW1qqtU9PKcRRNKdeeaZDQgiawpZ5wiewvLJLySI3LMTKlNMIbesRwzL1LXIgzBQvxgwL2K+GLD3V6iPLUwexGYgHiZsnXMbEi0po9gAiYW1ZB1VdmVjSP2j/hEGGmMgpkfDsJgxs3HjRk8QOceeW1i+BLFv374ZMsXvJ/bbbz/HVE/yYROaiy++OPMhNiRoc+fObUDm7rjjjgxBZPoqcSGR5PPOO+/4qau2UU1YJriwfJPpmMLapk0bv8FOGM/aaARx/fr1fp3j999/78u7++67Xf/+/bPKx/LQuX5Jg/q+fvpeBFGkLvMikzHS2BhpqkxCg8XyiIXZM51LJ3vJUrIUBmoXAzE9GoalGbBGvNKeE54vQSSvAw44wHsOSccvM9jw5dhjj/XEjemdhINDI3Lcs/aR3U87duzoDj/8cE/IbIqp5cN6wuOOO87nD6EknCMsM5mvlY8XsF27dp4MkyYZjzAjiOyYysY6hx56qC+Puuci0FYXneuHJKiv67evRRBFEEUQy4CB0GAxYzUWZs90rl2DVn2rvhUGSoeBmB4Nw5rLoMXzZhvIUCZTV999990GG9Kk1QU8pP3knnz4F6N5DsM8kmWGzywdU1vD8FzXTInFC5ornp7XL1FQ39dn37MmMdyUZuzYsZlNbMaNG9dIZ9h7LtTHFqYppmUgGiZcnUtnYDSHLGMDJBbWHHVRGdWFHfWX+ksYSMdATI+GYTJm69OYVb+r34WB8mLg/fffd2xsxcF1Ut723gr1sYWJIIogyhu5AwOxARILs8Gjc7pBKNlINsKAMGAYiOnRMCxptOi+vEaj5Cv5CgP1gwHWWHPE+jybjhZBFEEUQRRBFAakB4QBYaBsGAjJYMwgiRkuCqsfA1Z9rb4WBloGAzF9bGEiiDIKymYUGMiq5ZzLiKmWdqie8twIA8JAJWFAulV4rCQ8qi7CozDQEAMxHS2CKIIogrgDA7EBEguTYmmoWCQPyUMYEAayYSCmR2Nh2fLQM2FMGBAGhIHyYCCmj0UQRRBFEEUQhQHpAWFAGCgbBmLGRyxMxl95jD/JVXIVBoSBbBiI6WMRRBkFZTMKsoGxEp/FBkgsrBLrrjpJ+QsDwkClYiCmR2NhlVp/1UtjSxgQBmoZAzF9LIIogiiCuAMDsQESC6tlJaG26SUoDAgDpcZATI/GwkpdrvITloUBYUAYyI2BmD4WQRRBFEEUQRQGpAeEAWGgbBiIGR+xMBlyuQ05yUgyEgaEgVJjIKaPRRBlFJTNKCg1gMudX2yAxMLKXQ/lL+UvDAgDtYSBmB6NhdVSm9UWjWFhoD4wsGnTJrd58+aqtqVj+lgEUQSxqkFdSgUcGyCxsFKWqbzq4wWiflY/1zMGYno0FlbPMlLbpSOEgerDwMaNG92iRYv8wXW+fbh161a3bdu2RvEJ41m++ZQqXkwfiyCKIDY7EEsF6FLnExsgsbBSl6v8qu+loD5TnwkD+WMgpkdjYYXIdOLEia5z587RY/r06XqvybYRBoSBsmLAyOGLL77oOCCK+ZLEmTNnugkTJrgtW7Zk6sj1+PHjHc8K0YWliBvTxyKIGkDNDsRSgLkcecQGSCysHGUrz/yNTclKshIGqgsDMT2aDJszZ443jjCQYgfPw36fNWuWu+qqq/yxzz77uLZt22buH3/88QZxw3S6ri7sqL/UX5WIgbffftsTQojh9u3b/WEkkWe56rx+/Xo3YsQIr+sghkYOCXv99ddzps+Vf6HPk/qY9CKIIojNDsRCgdtc8WMDJBbWXPVROXoxCgPCQC1gIKZHk2F8eeeLeowcEp7ty3zHjh3daaed1uhdhqE1ZMgQTxyHDRvmzHBbt26dGzhwoFuyZIkbPny469u3r5s7d26j9LUge7VBOkQYKD0GVq9e7VasWOGJockXokjYmjVr8tIlIUlE7zWVHI4dO9YNGDAgevDM6pftnNTHxBVBFEHMCzzZgFUrz2IDJBZWK+1VO0r/0pBMJVNhoDEGYno0FrZgwYIoQSQ8m1xjBJGNIw488EB30EEHeYLYpk0bd+KJJ/p8mAr2q1/9yh188MGuS5cu7vDDD/f3sTplK1fPGve1ZCKZCAP5Y8BIYlPJIbIWQRSRy/qC1IDMf0CmySpmHMTC0tIrvPg+kAwlQ2Gg9jAQ06OxsHfffddNnjy5AUnknvBsuEgjiLNnz3avvvqqT3vHHXd4EvjGG2/4qWEQxD59+vhn7733nmvfvr3r1KlT1nKy1UHPag+36lP1aXNggJkNNruhOcqLlRHTx/IginjqhbgDA7EBEguLDS6F6UUiDAgDwkAcAzE9GgtDfi+88EIDgsh9LrnGCCLTvcaNG+c9hAcccIDbZZddPEF8+eWXMwQxrEPv3r3dXnvtlbOsXHXR8zgGJBfJRRioXAyEutD6SQRRBFEvRBFEYUB6QBgQBsqGgZjxEQvDMGGb9ylTpniSyDm2FbwZMHaOEcRJkyZ5QnjXXXf5dUEjR45sRBDvueeeTJvPPPNMB5G0PHWuXGNWfaO+EQZKi4GYPhZBlFGgF6IIojAgPSAMCANlw0DM+IiFmdHHBhBs2sDZwrKdYwSRTWn+4z/+wy1evNgxrZRNbJhWGnoQO3To4ObPn+83x9lpp53cFVdckVd52eqiZ6U1XCVPyVMYKD8GYvpYBFFGgV6IIojCgPSAMCAMlA0DMeMjFhYaggsXLsy7PjGCyA6mRx11lCeFe+65p2MKaZIgspNp69atffgpp5ziiWRYB12X3zCVjCVjYaDlMRDTxyKIMgryfgnX+iCODZBYWK3LQe1reWWtPlAf1BIGYno0FlaONkMU2YQmzNt2MZ06darfpv6tt95q8DyMq2uNRWFAGKh1DMT0sQiiCKJejDswEBsgsbBaVxRqn16GwoAwUEoMxPRoLKyUZWbLKySI2eLpmcaBMCAM1AMGYvpYBFEEUQRRBFEYkB4QBoSBsmEgZnzEwprLEMOrOHToULdy5cqytbm52qJyRGCEAWGgWAzE9LEIoowCvSBFEIUB6QFhQBgoGwZixkcsrFgjR+llKAsDwoAwUDgGYvpYBFFGQdmMgmobpLEBEgurtnapvoUrS8lMMhMGSoeBmB6NhUnmpZO5ZClZCgPCQL4YiOljEUQRRBHEHRiIDZBYWL4DTvGknIUBYUAY+MDF9GgsTLLSeBEGhAFhoPkxENPHIogiiCKIIojCgPSAMCAMlA0DMeMjFibDsPkNw3qT+TvvvON/Z/Luu++6aj34ryftqLe+U3vLpx9i+lgEUUaBlIwIojAgPSAMCANlw0DM+IiFyQAsnwEo2X7gtm7d6r755hv3xz/+0f3pT3+q2oP6f/rpp749Yb9u3rzZrVixwi1dujSvg7ikCfPQdX2OwZg+FkGUUSDlIIIoDEgPCAPCQNkwEDM+YmEyTuvTOG2ufud/mD/99FPVEsOQ1NKO5P89t2zZ4v7+97+7f/3rX3kdP//8syNNc8lf5VTu+I7pYxFEGQVSDiKIwoD0gDAgDJQNAzHjIxYmA7JyDcha6JvPPvusJsihEUXaE/bL22+/nRcxDAkkacI8SnX9/vvvu9dee60seZeqjsrnF30T08ciiDIKNIBFEIUB6QFhQBgoGwZixkcsTAbbLwabZFF6WYgg/tuz+M9//jNDJGME8fzzz3ddunRxXbt2dT179nSjR48uyNP41FNPubZt27pjjjmmyVNYqVf37t0zOumtt95qcl4aS7nHUkwfiyDKKMgMwHofRLEBEgurdzmp/bmVrWQkGQkDv2AgpkdjYaWQ2ZQpU9zy5cuj77VHH33ULVy4MPqs0LJXrlzpHnjggeixadOmkpRBnWiPlTNt2jS3aNGiRmvPCq17WnymG+L54fmbb77pRo4cmblPS1NN4UmCyFq+ZcuWualTpzqwQVvMO5c8f//99x479Me8efPcJ598kho3mbZc903xID799NMOAmgkMUYQ99lnHzd79mz33HPPuenTp/v4xx13XN4k8bLLLnN33XVXUWMA/LVu3TqTxyWXXOImTZqUua8m3FVDXWP6WARRBFEDbgcGYgMkFlYNg111/MU4lSwkC2GgZTEQ06OxsFL009ChQ93YsWMbvdc2bNjg7rjjDvfwww83etaUctncgyl0HPfff7978sknM/fbtm0rSRnUi/asWrXK5/3iiy+6hx56yI0fP74sJHHmzJnuhRde8HXfvn27e/nll0vWjqbIuNRpkgQRcggxZMMXCMm4ceMcRDBG6B555BFPJr/66isfF7Ly448/RuPG0pcjrFCCaOSQs00zTSOI69ata9D3kMohQ4ZkwviQwDjr27evGzVqlN8Rlv5CLh07dnRnnXWWGzZsmI/P2Lv77rtdnz593H333edsfDCGbr311kyepB80aJBfWxkSRDBveeLNLDUulF/8V0QiiCKIGmwiiMKA9IAwIAyUDQMxMhgLK4WhBqHCYE0auI899pgPDwkiHrNnnnnGe0sWL17sIEXUgd8IEG71Wb9+vXv22Wcz9xZuZzx7RqwsjHNa/hjXTMPDcJ4zZ4574okn3MaNG6P5057kLw0wmBcsWODjk9f8+fMbpCU/jHArZ+3atZ4YQwbS6oTXdcyYMe7BBx/0XspkvsgGGeFZQjY8p41WBjKjLdSlUnfGDAniH/7wB08I2dXUyBt9DBm3ezvjaYRIhhvc4Fmj/RanJc7ZCOJf//rXDAmEDMbIIeH5EkTGz0knnZTBGdM/e/Xq5WbNmuWJH1NSkQcyPP30013//v3d448/7rHQvn17d+ONN3oZXnjhhe6GG27wcUMSSFqOPffc0+GBD5+BO8uTcWNxdS7dh7+YPhZBlFGgwbYDA7EBEguTUiqdUpIsJUthoPYxENOjsbBSYAFCBYHBG2b58XuD4cOHe1JlBBFic88993gjFlLANEOmDpIGMoQ3iXCu8di99NJLmfwsXzvHCGK2/CFpeFSQAcSM+lK/JBEk/xhBXL16tZswYYKvD3mZp8bqw/Q+yucZ10yLhMBCBtLaDAmePHmyJ3mvvPKKTxvmSxs5mFoLEUQ+kFBrCx42niFfq5vVp1LOIUHEa4j8Q2LHOjcIbhgWu8bLCCbSvI2xNOUISyOI//jHP/y0UPMUppHDQggi+Ifo0ZdLlixxRx55ZMYTSBhTUCmH6+R0UD5QGAaY4n300Uf7+5AE2vMYQYzlafF1Ls37I6aPRRBFEDMDt94HWmyAxMLqXU5qf2kUsuQoOdYLBmJ6NBZWCnkYoYJwQV7IE3JkJM4IIuGh9wSPYzg1lamjeNRY8zdjxoys70nLO1n/tPypF9NdISSWBs8cnj+7t7O1x+4543mE6HFNXiGRIywkiIMHD24wHTWtTqQLp5iG+UIeKc+mBhKXqYSQW+LdeeedGY8ihJqpiMlfMJCmpY+QIEKg8X6FxI06g48wLHmNFxFvGoQp+ay579MIYugx5EME00ONLPIsPEI8WP+wBjHpgcdjzaYzxGFNLOsDIYV2tGrVyofzPEkQkTOb3ZD+8MMP9wfxRBBbfkxYn8f0sQhiBSgt6yCdW3awxAZILEz91LL9JPlL/sJAdWEgpkdjYaXoVwgVxj9TAm2aKB4t1tNBFEOCiMcLcgcxvPfee/0R1gGvGGQn15TJNIKYlj+kCsM9LMtIbBjGdYwg4pExMhsSOUsbEsQkeUyrE2nTCCI/XsfDavlzhsxyxMpP84aG6VviOiSIH330kfeshqQOsoQXOQxLXuMBy8fLmExXjvtsBDEkiWnkkDj5EsSBAwe6fv36eQyAk27duvlp0UyNtsM+CoQEkSmnBx54oF+jC1bAEiSR/ucDCWTUsMDHhd13373RFFOeh3lafJ1L9x6I6WMRRBHEzOCs98EWGyCxsHqXk9pfOqUsWUqW9YCBmB6NhZVCFkYQWRPHhhZ4vyB/5B0SRDwk7NLJdEqmoL7++uuZeMQljHRsqsFmJtnqFiOI2fLHUMbrFnrkIB54WpLlxAgiHizbdZO8iBOmw2toU0xDgpitTqRPI4iQSjbiCcswAl6tBJHpofRtuNHMihUr/PTJNDJnm9qwfjEtTnOG5yKIEEBwHHoMk9e5CCIkDsLPbytsqihh3DPVFEzg0e7Ro4f3CHIfkjnGhq1P5NlNN92UIYjc77vvvn6aN+SQ8bjzzjtHCeIVV1zRYJMc0uoonQxi+lgEUSDTINuBgdgAiYVJKZVOKUmWkqUwUPsYiOnRWFgpsGAEkbyYBsk0UdtgJiSI7Agakh68YUYkScsGG0z7xPjFcIUIpdUvRhCz5U9eTDG1ekHmKJs0yTJCgkg6iCQGe2jYE2fNmjU+LXmSd4wgZqsT5eJdtc1vQuKHZwiiadMOKZs6MEUwjGd1rwYPIkSOPkYmXH/99ddu4sSJDX5fARH64Ycf/HM+JDDVOCSUzUkGY2XlQxCThDB5H+LI+g+vnh1MJWVDGj4S2HPOc+fO9WsSmTZKnJtvvjnzPCSI4IMdTY844ghPDK+++uoGBJF1r6w7JA/GWdoaRHB9wAEHeM9lWA9dl+b9EdPHIogiiJlBXe8DLTZAYmH1Lie1vzQKWXKUHOsFAzE9GgsrhTxCgojHJ1wPFxJEPCvs2Akx42A6qRFEvIkjRozIkEJ+YZFtHWKMIGbL30gVRjZeLMoyj2BSBrSH6agckDSmekJaw3i0i2mlxMWQTptimq1O5AcBpC7Ixepo5bBhD+sQ2ZwFQ968R8l4xK8WgsgvK5AnU5DpBzb/MSKGl5BpvLQPbyNtxiNNPDvwTlv8ljgnCSJ1/fnnn7N6DEOCSFzSWB8XesYD/uqrr+aVBx8T0qZqk49NT81WB7yMaXlkS6dnud+1MX0sgiiC2GTlUGuDLjZAYmG11m61J7fylIwkI2Gg6RiI6dFYWEvIGAMZb1u5yo7lT5hN/cQwzsc4zlU/jOdwymq2+LE6hfHT5EEZ7LSabzlhnpVwDaGKEblvv/3WxaaNhr+1iKVr6bAkQUTG9C1ewXwO4lZCv6gOTdetpZJdTB+LIIogSkFoiqkwID0gDAgDZcNAzPiIhZXK2Kn0fEKCWOl1raX6QcQrnfTlSzppRyk+LNRS/6otTSeaMX0sgiijoGxGQbUN1tgAiYVVW7tU36YrTclOshMGisdATI/GwupF1kz1fO655/TubWb7C7l/8803VU8SIYe0g/bUy5hRO4vXw9lkGNPHIojNrKCydZCelXcA5JJvbIDEwnLlo+ct24+Sv+QvDFQWBmJ6NBamfqusfqvF/oBU4Xljema1HtRf5FBjpZTjM6aPRRBFEPUFagcGYgMkFlbKQam8pOSFAWGg1jEQ06OxsFqXg9qnsS4MCAOViIGYPhZBFEEUQRRBFAakB4QBYaBsGIgZH7GwSjScVCcZ9MKAMFDrGIjpYxFEGQVlMwqqbUDFBkgsrNrapfrq5SYMCAMtiYGYHo2FFVtHttJ/+eWX/T8B+S+gDslAGBAGhIF/YwDdiI6M6dmYPhZBFEGMgiUGoFoPiw2QWFity0HtE5kQBoSBUmIgpkdjYcWUieGzceNG9+mnn7ovvvhCh2QgDAgDwkCAAXQjOjJGEmP6WARRBFEEcQcGYgMkFlaMEaO0MryFAWGg3jAQ06OxsGLkwtdxkUMRY30cEAaEgXQMoCPRlUldG9PHIogiiI2AkgROvdzHBkgsrF7koXaKyAgDwkApMBDTo7GwYspiGpkMw3TDULKRbIQBYQAMoCuTujamj0UQRRAbASUJnHq5jw2QWFi9yEPtFDkQBoSBUmAgpkdjYcWUJYIo41cESBgQBnJjQARRxE/Er0AMxAyWWFgxRozSyuAWBoSBesNATI/GwoqRS5IgfvTRR27lypUNvIqbN292r7/+eoOwYg3Kd99916/psTPlLlq0yB9Lly71/6vLp4xXX33VDR482K1YsaLg+vFPvHXr1mVNR7utXnZ+/vnns6bJVe+0PFnn9PTTTxeVt8nTzrnq0pTnpahnvuU2Z1nJOqWVTf8xJpLxY/dpecTiVlJYtda7nDIUQSyQHBTzYlLa2jD4YgZLLEz9XRv9rX5UPwoDzYOBmB6NhRXTH0mCyEYM3bt3b2D8zpkzxw0dOrRBWLGG2FNPPeXuvfdeZ2fKPeGEE9yIESPcbbfd5rp16+buv//+nGVS1/nz5+dNKMN6Q0RvvPFGX8Z1110XLQtSSJ143qVLF389ZsyYaNww72zXaXmuXbvWTZs2rai8TZ52zlaPXM/SZFKKeuYq254XU1Za/S3vXOe0ssHDvHnz8uqntDxylZ3tebHtsryT+YT35ai3lVutZxFEEUR5EAvEQMxgiYUVY8QobfMYpJKz5CwMVA4GYno0FlZMnxVKEIk/duxY9/DDD7vPP//cG8mbNm1y48ePdw8++KDbvn17xnCOxTXj0AiMnZPEFI/i+eef71atWpVaxty5c12nTp3chAkTMh4dPIrUj7ogF8p7++233bPPPpup1yOPPOI++eQTZwQRgmn54FW0OoZn4vbr16/Bs7SynnvuOU9aIcDECfMJr5N5Wj05k8ejjz7q24EsnnjiCd8uZG15xORu8rSzxbVzrE9i+WSTSaye9913n9/p0cqxs7WF/EJ5WPjUqVO9h5b4eOXoy0mTJjk8oIRZWVzH6hmGMzas/7LVnzQcEHVwxzU4Q+Zcv/fee+7xxx9vUPaGDRu8/GfPnu2GDx+eIYhpdbIyrP7WXvo0lJWFx+QTw2yudjW1f5OOdn3oAAAgAElEQVT55qo37Qtlsnz5cvfaa695+cXqYPKo5jPtSuramD7WGsQCSURSqLqvHCOk2L6IDZBYWLHlKH3tYEZ9qb4UBnJjIKZHY2HFyBKjJzTakkSNZ+ZB5NkFF1zgFi5c6Kd1zpw50xvkZ511loN0cY9Hjx3/YnHDct5//31PKOwcK3f69Olu1KhRqWWsXr3anXzyyW7JkiWemEIwzj33XD9NE++jETojglb+Oeec4w09C3/llVcy+UDGLF54TpK5bGUdf/zxnuRgdJ9xxhkZEhLmx3UyT6sP51NPPdVBRoYNG+bOPPNMN2vWLEffX3zxxb5+EKGY3E2edg7LjPVJWj7ZZJKsJ3WbMWOGr2dYnrUxJg/yoO/wmK5fv973MR5aCBQfH7p27dqgj9LqSTjyIQ3446MC5Warv9WRNJBW7q+99lp30UUX+WsLt3ZCVk8//XRPCqdMmeJOPPFEf51WJ8ufs+XBmT5NyorwNPmYd5t8DLPZ2lVM/ybzzVXvLVu2NJAJfYlXNVaHUB7VfC2CKOLX6AtBMS/fekgbM1hiYfUgC7Uxt9ErGUlGwkB+GIjp0VhYMfIshCCyzTuGKmsUzXuIUX7HHXd4gxwj86qrrnIvvfSS3xI+GTebcRgjiHjByDutDPKDVIT5Ui/yYi0fBjnPzNi1eGZsh+HJfCyunYlrhNPC0sq69NJLM3WCUOAxsjThOZmn1YfzgAEDfBoMcSM9pLV6ZpNJWEZ4XUj/hWWFeXAdqyfhfDzYtm1bg7YSNyYPwgcOHJiJS3v4GGBlDRkyxOEhtrLS2ku4kTzS0vefffaZz8dkRTieXKaGcuDtJgxPYY8ePTyWId5gF2Ldv39/x8cHKxsSG5bBVEzIUFqdrA2cLQ/O1qeEm6wIT5NPjCCSNmxXWFax/Rvmm6veyCScan399dd7mcTqENaxmq9FEEUQRRALxEDMYImFFWPEKG1+BqXkJDkJA7WDgZgejYUV0+dJgsjmFBivoSGHJwvDmjCmvWEM4uHBk4ixjXENkbMDohiLG+aZvI4RxHHjxrnJkydnLSM0aiEBkKlBgwb59YunnXaar4cZu1bm2Wef3cA7RXiYj8ULz+QREsRsZSEfS/vkk086yI7dh+dknlZPOxMX71W4JtTqmU3uYRnJ60L6z8pK5mH1s7M9xwNnU0MtjDgxeSTTMrU0XH9JvzNN2OKltZd0EDUrLzyH9adetskQeVq8nj17ehzffffd3kOLtxx88DwsO6wbcSGIaXWyvMM8LC97ZrIiPB/5GGZJH7bL8rNzMf0b5mv1tbPlb/VG7niNLdxkwn2yDhan2s8iiAWSg2JeTEpbG4ZMzGCJham/a6O/1Y/qR2GgeTAQ06OxsGL6I0kQ8b7geWOTCgw61updeeWV3iCGFGEwEs4ZjwvG4A033JAxFDGcWYcYi5vNQEwSRDwRTM985513Ussgv9CohVAgH8LZaZJpb1zTFps+yNTQQw45JEoQmRqbVkfaGxLEtLKIh/yQG3ndcsstfvpjLN9kntzjNbIzadIIYprcY+VYWKxPsuWDbGMysfrZ2fI38mD3nIkTk0cyLev/+vbtm5E/XrVly5ZlZJFWT9Lh8aMsPLojR47MyD6t/mH9IHlMUWWaMhjkwwebJFnd6Q+80VY3yjjvvPP8eEirU5i/tdPO9sxklSafNMySPq1dxfZvmK/V187Jer/wwguud+/eHh/oH+TG2I/VAZnx4cnyqNazCKIIojyIBWIgZrDEwooxYpS2eQxSyVlyFgYqBwMxPRoLK6bPkgQR443fOHTu3Nl7rjDu+Y2EGXms8YMw4tFYvHixN/puv/12T8DwxrCWK1vcNOMQ4/zwww/3HkDW1uGVDH+3ESuDvDBqLU/yoF4QV6YvmgeR+hAGEWCaX3J9G+mZQki5aYYshnJIENPKIh5yuOSSS7wBTbkxkkWZyTzNGLczcdIIIs/SZMKz2EHb8u0/0qfJxOpnZyvLSI/dcyZOTB7JtMTFA02/9+rVK7Nrbhgvrb0QOqaK4j0Op4Km1T+sH4QG3Bmh56MExM/qDkEEP3j5qBf9Sp9ChoiTVicrw+pvZws3WREek08aZkmf1q5i+zfM1+pr52S9uYdcM137iiuu8PJBJrE6IGN2KLY8qvUsglggOSjmxaS0lWOIFNMXMYMlFlZMGUpbG1hRP6ofhYH8MRDTo7GwYmQaI4gYcBio7NCY3LSFcNZuJY086hDuYGp5xOIm0+Z7HysjmTatfsT78MMPG9U7TJ9sa/gsdh0rywxqnrGJSSxdKcPykUlYXqzOPE/Lp1CZhGVxXag8qAeH5YP3zjx62epJmo8//jiTztIXW3/LhzP9aesbw/A02YVx0q5zyScNs2ntKrZ/0/JN1p9ybCo5z5hFYMQ6VgfCknlU270IogiiPIgFYiBmsMTCTPHrnL+BKFlJVsJA/WIgpkdjYcVgJI0gVpvxVin1NYO/UurT0vUoRh5MB8YLzPTPlm5HucovRj7lqlM++bIZEd5ept5effXVrk+fPhkvbD7pqzGOCGKB5KCYF5PS1obhEzNYYmHq79rob/Wj+lEYaB4MxPRoLKyY/mCtX9oUyGo04lq6znhKYp6slq5XS5VfjDxIWwuep2yyL0Y+2fJtrmf8L5GdX5urvJYqBx2Jrkzq2pg+1n8QRSQbASUJnHq5jw2QWFi9yEPtbB7jWXKWnGsdAzE9GgsrRg6spWPdkEhifN1eSxmkKlf9IQxUBgbQjehIdGVS18b0sQiiCGIjoCSBUy/3sQESC6sXeaidIi7CgDBQCgzE9GgsrNiyMHz4Os4UKh2SgTAgDAgDv2AA3Rgjh+jdmD4WQRRBFEHcgYHYAImFFWvEKL2MbmFAGKgnDMT0aCysnmSitkoHCAPCQKVgIKaPRRBFEEUQRRCFAekBYUAYKBsGYsZHLKxSjCXVQ4a7MCAM1BMGYvpYBFFGQdmMgmobXLEBEgurtnapvnrRCQPCQEtiIKZHY2EtWUeVrTEiDHzgfwnDNMQ33nhDRw3KgL7ltz9JrMf0sQiiCGIjoCSBUy/3sQESC6sXeaidMpiEAWGgFBiI6dFYWCnKUh7CrDDQNAxAHNi59u9//7v75z//qaMGZUDf0sdJkhjTxyKIIogiiDswEBsgsTC9fJr28pHcJDdhoD4xENOjsTDhoz7xoX6vjH7HuyRyWPvEmD5OblYT08ciiCKIIogiiMKA9IAwIAyUDQMx4yMWJqJQGURB/VCf/cC0UnkOa58g0sf0dTjOY/pYBFFGQQOQhICpt+vYAImF1Ztc1N76NBbU7+r3UmEgpkdjYaUqT/kIu8JA4RjIhyDiebryyivdySef7C6++GK3cuXKZiWVvXv3dj/88EPZyvzxxx/dX/7yl2j+f/jDH9zdd9/tTjnlFNe1a1c3efJk99///d/RuEmincw3vN++fbs7+OCD3Z///Oe88krm3ZR7EUSRP5G/AjAQM1hiYXrxFP7ikcwkM2GgfjEQ06OxMGGkfjGivm/5vs9FEFetWuUOOOAA9+ijj7p3333XPfPMM+6www5zc+bMaTZi06pVK/fll1+Wrbx+/fq5efPmRfM/++yz3eDBg92HH37o3nnnHXf++ee7YcOGReMmSVsy3/CeKZ/8ozCZppz3IogFkAMpp5ZXTi3dBzGDJRbW0vVU+cKqMCAMVBMGYno0FlZNbVJdNQZrDQO5COJRRx3lVq9e3YDI4P1q06aN937heRs3bpx3TNx+++1uxIgR7rPPPsvEhwjNnj3b3XzzzW7atGnub3/7m39m6d5//31HutGjR7vvv/8+ky4kSkYQs6WxZ/RPsh48u/feexvkPXLkSPfzzz97wnvssce6iy66yM2YMaNBnL/+9a9ut912c//zP/+TCf/iiy/cE088kblPax9EOsw3eR/WyeqeJgvq8dBDD7mbbrrJvfDCC27JkiVuw4YNvg7fffedmzhxorvlllt8eCi35LUIogiiPIgFYCBmsMTCau2loPbI0BEGhIFyYiCmR2Nh5ayD8hbGhYHsGMhGECGChx56aIYMhYTjnHPOccuXL/dTP/fdd1/Xq1cv9+yzz7oHHnjAexy//vprn+7yyy93V199tSc2gwYN8h448mHKKOluvPFG9/zzz7vrrrvOde7cOVqWEcRsaexZrB48a9u2bYO89957b/enP/3JewVpC6Ty1VdfbRCHejKtdujQoe73v/99o2c8T2sf3sYw3+R9WCere5osLrzwQte3b18vp9/+9rfuyCOP9B5diCPe3OnTp7sVK1a4k046yS1evDhaT+oqglgAOZDiyK446kE+MYMlFlYPslAbNR6EAWGgVBiI6dFYWKnKUz7CrjBQOAayEUSmQDLFEnKRPPr37+89g5CbnXbayf9GweJABEeNGuV/q9CpU6cGHrhTTz3Vvf76654g7rrrrpk1eHji9txzT/fHP/6xUVkhQUxLk60eIRmzOhpB5D6c+mnP7YxXE+K23377uTPPPNO32dYg8tuItPbF8g3LCevEdVq78BQeccQRDXaaPf744z1B/Pzzz329WCdJeT/99FMDWVsb7CyCKIIoD2IBGIgZLLEwvXgKf/FIZpKZMFC/GIjp0ViYMFK/GFHft3zfZyOIeL1OOOGERoQNwsFmNQsXLsx4Ao2EcJ4/f7674oor/BliBSm0g6mpTz75pE+X9Oq1a9cuutYwJIhpaSBZeCRj9QjJmD3PlyBafAjsSy+95Lp16+a9jdbOtPbxPCSEyfuwTuG1lWeyMFlaOOcBAwZ4gsg16yH3339/3x+sowynw4ZpuBZBLIAcSDm1vHJq6T6IGSyxsJaup8oXVoUBYaCaMBDTo7GwamqT6qoxWGsYyEYQWaMHAfrkk08aEC+8fK1bt3ZfffWVJ3qs0yOuERLG+cCBA/2auO7duzs8XOFB3GykyPKxc74EMa0e7B5KHpbfP/7xD7f77rv7KaaEJYmcxSPdxo0bM+kIZ30lm/ZwzVrAtPbF8g3LCdsfXlvZRhCXLVvmp6paOOcePXpkCCL37ITKFFNI+IQJExrUN0wngiiCKA9iARiIGSyxsFp7Kag9MnSEAWGgnBiI6dFYWDnroLyFcWEgOwayEUTIBb91OO200zIbz0BmWOfHWjiec88U0ylTpvh7Nlw55phj3KJFixwECzLFVEziso4PzyJpspGikNRwnS9BTKsHeUBo16xZ4yCHU6dOdTvvvHOGIF5//fV+o5dkueycyrTXt99+O0O6IGD87oK42drH82S+4X3Y/vDa6mAEkXWSBx10kFuwYIGvL2sM99lnH08Qt23b5gYNGuTbRLoxY8b46bCWR/IsglgAOZDiyK446kE+MYMlFlYPslAbNR6EAWGgVBiI6dFYWKnKUz7CrjBQOAZyEUQIFbtk4kmEtDCN884778ysiTNyQxhr4yAzt912W4ZQ8c9ENro58cQT/UYxrE2EuFi6kMQYKQrDuM6XIDL9NK0e7DzKtFLaAZkNp5jyn0fqjWcuWTbTYakXu7mSP/9DBGcWL619PE/mG96H7Q+vLd9QFvxehLqxFpHdYK+99lpPEJn2ygZAHTt29JvpIOOkt9fy4yyCKIIoD2IBGIgZLLEwvXgKf/FIZpKZMFC/GIjp0ViYMFK/GFHft3zf5yKIRjBY28YvFSAlFsY5JDdMPY1tMsOmLkxHZdfNMG0pr/OtRzgVNiwfIoz3Mwyza9qONzHtNxzZ2pfMN3lvZWQ7J8vt3bu39yhaGqbv4s20+7SzCGIB5EDKqeWVU0v3QcxgiYW1dD1VvrAqDAgD1YSBmB6NhVVTm1RXjcFaw0C+BDGNdITELC1Oc4RXSj1K3VbIJxsF3XrrrX5TIDyw7du3d//5n/+ZkxAm6yKCKIIoD2IBGIgZLLGwWnspqD0ydIQBYaCcGIjp0VhYOeugvIVxYSA7Bpj2mPQKJolFtnu8gjNnziyYrGTLsynPKqUeTal7rjR4B5kWy/TZadOmuW+++aZgedPH9HU4HmL6+FdhBK5jkZJxdJ99kEk+1SmfGPZjYerf6uxf9Zv6TRhoGQzE9GgsTP3TMv0juUvuYIANZD7++GP3t7/9rWDSkYvY6Hnj/0e2hEzoW/qYvg7HfUwfiyAW4GEKhanr2lOosQESC1Pf117fq0/Vp8JA+TAQ06OxMPVB+fpAspVs88HAqlWr/Jo2NmTRUXsyYAdU+jiJhZg+FkEUQWwElCRw6uU+NkBiYfUiD7VTBoUwIAyUAgMxPRoLK0VZykOYFQaEAWGgMAzE9LEIogiiCOIODMQGSCxMiqcwxSN5SV7CQH1jIKZHY2HCSX3jRP2v/hcGWgYDMX0sgiiCKIIogigMSA8IA8JA2TAQMz5iYTIOW8Y4rCe5v/POO/4fcPxPrloPdqCkHfXUb2preXVDTB+LIMookJIRQRQGpAeEAWGgbBiIGR+xMBmB5TUC612+W7dudZ9++qn/P9+f/vQnV60H/xekHbQn7NPNmze7FStWuKVLl+Z1EJc0YR66rs8xGNPHIogyCqQcRBCFAekBYUAYKBsGYsZHLEzGaX0ap83V7++995776aefqpYYhoSWdtCeUHZbtmzxv6n417/+5fI5+FE8acI8dF2fYzCmj0UQZRT8/+x997cVVbZ1P33qGzwRFDF8toraNgoGkCTYKLFFBYEmKZIEAYmSozokS5IsWYQmSUaRoEDDQxBtpVu7Td06sFv/gPcf7G/M/Vjlvvuuqnvq1jn3hJo/nFGnVu2w9tpzr7PmWbuq6BxIEIkB+gFigBjIGQa04EOTMThNZ3BaVfN+/vz5kiCHQhQxHtd2R44cyYgYuuQRddw2svX95MmTZv/+/TlpO1s6sp1f/I3mj0kQGRRwAZMgEgP0A8QAMZAzDGjBhyZjwPZLwEZbZN8WJIj/l1nE+/eEJGoEsWXLlqZx48amSZMmpm3btmbs2LGxMo0rV640tWrVMnfffXelt7BCr1atWgU+6f333690W1xLFa8lzR+TIDIoCBZg2heRtkA0WdrtxPFX7GxpI9qIGPgFA5of1WTZsNmMGTPMK6+8Yj/4vmHDBnP69Okq/52rrB7vvfeeGT16tEEGpiJ7YHtgJuUqaict132CiHv5Nm/ebGbOnGkWLlxo7S3ZOf946NAhs2DBgjKfv/zlL3nNSFYmg/jmm28aEEAhiRpBrF69uh3n+vXrzezZs235e+65J2OS+OSTT5oXX3yxQvxG4Q7roGbNmkEbjz/+uJk2bVpwHlWX137xvZnaQvPHJIgkiFxwlzCgLRBNlumCY7n4Too2o82IgdLDgOZHNVk25n748OH2RdDY3oYXQk+dOtUsXbq0yn/nKqsHyOyuXbsy0nfu3Llm06ZNGZXNhm2LvQ2fIIIcghjigS8gJJMmTTJffPGFSvpAlmDrM2fOBJ+vv/5aLeuTy1ydxyWIQg5xjMoggiDu3bu3DK5AKocOHRrI8MfExIkTTdeuXc2YMWPsE2GBD5C4O+64wzz88MNmxIgRtjzI9bBhw0yXLl3MhAkTzKlTp6wcD8h5/vnngzZRv1+/fvbeSpcgvvbaa0GbyGYWOw4LUX/NH5MgkiBysZEgEgP0A8QAMZAzDGjBhybLRuAEYua+AgCvBBg1apQdG4JabH/bs2ePef311w2yJyBkyDKCKKxdu7bMkyGPHTtmVq1aZa9t27YtsE+Y3NU/Sg+Uk36RlVq9enWQCYSOy5cvL6MvxrBo0SIrl6dObtmyxYwfP968+uqrZt26dYFurg78XvbPFpcggtyBEF64cCEgeZh//KmgEbo33njDHD58WL2mla8KWRRB/P777wMSCDKokUPIwzKIPkHE+O+7774AZ9j+2a5dOzNv3jxL/LAlFXiDDRs2bGi6d+9u/5gBXm+++WbTp08fu44ee+wx07t3b1vWJYGC1WrVqhmsL/ca1qe0ifUrZXksi+8k9tD8MQkigwIuNhJEYoB+gBggBnKGAS340GRJAhyp6xMzZC9Gjhxpx4Ytmdj6hu2fyAbhHNsLsY0OBBBkDdtT0RZeIfDSSy9Z8gXSgGwJXgsQJpf+5RilB8rMmjXLftAvyB/ICjIr0EkyL/iOzMv8+fOtfiC1U6ZMsfodOHDATJ8+3dbdvXt3zuZOxlMKR5cgImsIDLpEDve5gZy7MvkumMF1ZBM/++wztZyUr4pjGEH86aef7LZQyRSGkcM4BHH79u2W6AEHGzduNHfeeWeQCYQMW1DRD77720Hxh4zgZ82aNeY3v/mNPXdJoFzXCKLWppTnMTskUfPHJIgMCoKFm/aFpi0QTZZ2O3H82XHItCPtmBYMaH5Uk2XDHiBmyH4g24Ntpsiwyf1lIFxDhgwJsoQgWcjCufcoTp482dZHZgVt4WXq0AuZPZQLk/u6R+mBfkE+Zasd6mJrHrKCPkEcPHhwkF1E/9jmJ6834BbTeD7EJYiYT2S/XCIHu4KEuzL5jiwWyDzmBwQJOAnbjip1cn0MI4huxhB/MGB7qJBFXHM/mWYQkUnHQ2eAVfyJgvsDQQrlU6NGjeDPFZ8gws542A3q33777faDdkgQ4+HX9zHZPNf8MQkiCSIJ4iUMaAtEk2VzUbKtwnGQnAvOBTGQGwxoflSTZcP+IGYgfcj4gXRhS5oQMZd8oS+8UBzlEezLB+eQ4/qSJUtsNg/3QCHjKEQyTO7qH6UH2kfm0i2/bNkyg4+ro/tdyiIbKltoSRDj4dUliB999JHNJLskDmQJc+vKwr4j64s/IsKuV4U8iiC6JDGMHKJMpgSxV69eplu3bhazwF2zZs3snzD4I0Y+8seFSxCx5fTGG280K1assNgG9kESgWdkbHG/o2Ab6+uqq64qt8UU1902pTyP8fAfZS/NH5MgkiAGizMKPGm4pi0QTZYGW3CM2XO8tCVtmXYMaH5Uk2XDTiBmQqD89nzChYwQsiHIErofIZSoj0wTtpiCQCKLIm2GyeV6lB7o9+WXXw7aQh1kOXEvoquj+13aJUGsvD9xCSKyf3hgyldffRWQPGwhRnbQJ3d4Kf25c+fKyEF8sO3SL1uV5xURRBBAbIl2M4b+94oIIkgcMIfXVshWUchwDlsBl9jG3bp1a5sRxLlL5rCVWu5PxLW+ffsGBBHn11xzjb1XEeQQT++9/PLLVYLYsWPHMg/JQV1+smcDzR+TIBJkXGTMIBID9APEADGQMwxowYcmy0bAF0XMfMKFcwS/2PKJvnGOgBZHbH/DPYmiEzIguBcwTC7l5BilBzItuM9QHgSCIB16oG1XR/e7tOsSRGyHdEmrlOFRD5xdgggih6fb/vGPf7Qk7/PPP7dPvHWJIIjQl19+aa/j3k/MB+rh/kP8YQBSU5WE0O8rE4LoE0L/PIwgIrOHD7aS4oE0+FPDxdXixYvtPYnYNooy/fv3D667BBE2wxNN69SpY4lh586dyxBE3EeL+w7RBghi2D2IIOS1a9e2mUtXD37XsR7XLpo/JkFkUBAs6riAKrXy2gLRZKU2bo4nOw6WdqQdiQEdA5of1WTZsF8UMdMIF7KDuB8QW1JB2rDNE3og+MfDa/BYfTxABtdBGMLkvu5ReqCs9AuigcBYsjGuju53ad8liCCYeEIr7rOU6zzqGIRdfIIIooetviB/yCbu3LkzIHx4yinmHHMAYobXW4DMIPMLOR4M5BO2qj73CSJ0vXjxYmTG0CWIKIs6lcUMMu379u3LqA38+SFP4PX7QzuyPdW/5p5j7YW14Zbj9/A1EGYbzR+TIJIgVto5hAGtWOXaAtFkxTo+6h3fadJmtBkxkBwDmh/VZPmyNQJPbEvFdjxfB2w91YLoMLlfP+pc+nW3tEaVD7uG7a5h1yj/Bb8+QRRChxfea+80xNZSKYMjzsPKuuWq6rtPEDHXwCqygpl8NFwTL7/gJU220PwxCSIJIn9YLmFAWyCaLE1Og2NN548F553znk0MaH5Uk2WzT7ZFDPsYQJbKJ31VReay3Q/GkUnWzbcBz7kuNAxo/pgEkQSRBJEEkRigHyAGiIGcYUALPjSZFrhQxoA2WxhAhvjChQtFTxJBDjEOLeOdLVuxnXStO80fkyAyKMhZUFBsDkZbIJqs2MZFfdPl6DnfnO9Cw4DmRzVZoelNfUpvLYFUIfOG7ZnF+oH+JIelh818+hvNH5MgkiCSIF7CgLZANFk+FzH75o8CMUAMFBsGND+qyYptXNSXa5EYIAZKAQOaPyZBJEEkQSRBJAboB4gBYiBnGNCCD01WCoEWx0DCQAwQA8WGAc0fkyAyKMhZUFAKC0RbNMU2LurLHytigBjIJwY0P6rJkuqIR+nv2rXLvPPOO/zQBsQAMUAMOBiAb4SP1Pys5o9JEEkQVbBoACp1mbZANFmp24HjI5kgBoiBbGJA86OaLEmfCHwOHz5sPv74Y/Ppp5/yQxsQA8QAMeBgAL4RPlIjiZo/JkEkQSRBvIQBbYFosiRBDOsy8CYGiIG0YUDzo5osiV3w7zjJIYkx/xwgBoiBcAzAR8JX+r5W88ckiCSI5YDiAyct59oC0WRpsQfHSSJDDBAD2cCA5kc1WZK+sK2UgWF4YEjb0DbEADEADMBX+r5W88ckiCSI5YDiAyct59oC0WRpsQfHSXJADBAD2cCA5kc1WZK+SBAZ/JIAEQPEQMUYIEEk8SPxi4kBLWDRZEmCGNZlwE0MEANpw4DmRzVZErv4BPGjjz4y27ZtK5NV/OCDD8zBgwfLyJIGlMePH7f39MgR/a5bt85+3n77bfu+ukz62LdvnxkyZIjZunVrbP3wTry9e/dG1nP1euuttwz0zUSvXJXx9Tl58mTO9YnbJ+7XevPNNzPWSzAgx1zYLq5OSXSoyr58PcP6xvrFOvbLa+dhbWhl0yQjQYxJDpL8MLFuaQR8WsCiyTjfpTHfnEfOIzFQNRjQ/KgmSzIfPkHEgxhatWpVJpBctGiRGfP6ieEAACAASURBVD58eBlZ0sBw5cqVZty4cUaO6LdevXpm1KhRZuDAgaZZs2bm5ZdfrrBP6Lp8+fKMCaWrN4honz59bB/PPPOM2per17Bhw0zTpk0NiKLbjvbdb88/1+pkInP1GTp0qGnSpIkl1ZnUrWyZuH3u2bPHzJo1K9JGrj0EA3KsrJ6o57brtpOJTm75JN+T9BWmf6b6hPWNdbVkyZLIOZE+wtqQ65U5Jh1XZfrMdh0SRBJEZhBjYkALWDRZkiCGdasmIKWdaWdioHAwoPlRTZZkzuISRJSfOHGief31180nn3xiA85jx46ZyZMnm1dffdWcPn06CEK1shK0CRmQI0iIS0yRtWrZsqXZsWNHaB+LFy82devWNVOmTAmyI8goQj/oArugvyNHjpi1a9cGes2fP9+cO3fOCEEEwZR2kFUUHXH09dq4caMZMGBAZLt+e/452kU2B3pPmzYtyEpCz/Xr15uFCxeaCRMm2Ccnurpo+sDGv//97+0YUXfmzJkBYYwzL1Fz5dtA+owaB+wdNh7fHoIBOfpj1nTTxua367YjGAjTyS8LW6I9/IkBTOG61HVtHDaPgjdNT7QlcqxnwVyU/qIfsuyYD5xjbUBPfD9x4oRZunRpGawfOnTIroUFCxaYkSNHBgRR+vbXq/RRka3EDpp9ZNxoS9ZZJuOSvgv5CBz6vlbzx7wHMSaJ8I3K88IJQpLOhbZANFnSfli/dDDDueRcEgMVY0Dzo5osiS0R9LhBmU8GcE0yiLj26KOPmjVr1thtnXPnzrXB7cMPP2yDQZyD5OGJf1pZtx9sjcRWNjlq/c6ePduMGTMmtI+dO3ea+++/34C0gZgiWH/kkUfs9kZkH7t162bHJkRQ+m/RooUN9ES+e/fuoB0QUymHI/QCUcX2RwTGffv2tWPFNakv5aVdvz3/HISgcePGlgiCaCMLiDlEew8++KCZN2+emTNnjs1WStty9O2ELbLt2rWzdWELZO4OHDgQajNtXjSZ9IdjWJ9R40BmNmw8vj0EA3L0+84Uc367bjsyV2E6+WXvvfdeS95Bbh566CFrA9T1bRw2jxg/7KOtDciRicbcY80AX+g/Sn/RD3VAWnHes2dP06ZNG/td5DJO4LVhw4aWFM6YMcPUr1/ffg/TSdrHUdoIsxXkYfaRjDzaCVsPbl/F9J0EkcSv3D8ESX5801BXC1g0WRpswTFWHPTSRrQRMZAZBjQ/qsmS2DMOQcRj3hH04R5FyR4iwH3hhRdscIsA9+mnnzbbt2+3j4T3y0YFgz4JQVlklNB2WB8ogwDdbRd6oS3cAweyhWsS8Eo5CVxdud+OlEVbd911lx3Xk08+aQmyZDXd+igv7eK73557jvGA+Eof2CqKbCja69GjRyAHMTp16lRwjvLQByRl+vTpNjvUvHlzm+lC3V69egVlw2ymzaEmE92i+owahxDEsPG49nD78r9ruoWNDXXD2pW5ysTGKPPEE08EtgTBQkZXs3HYPGL8YXpCLiRP7Hv+/Hnbn6s/MpfYGooPMvQoi0xh69at7fpr3769xSWIdffu3Q3+MJFx4o8Ctw9s8cQW0zCdXLtLGzhq8wd5mH00ghg1L26/hf6dBJEEkQQxJga0gEWTJQliWDezgJJ2op2IgdLBgOZHNVmSOfcJIrJ6ICZusIYtaghSIcMWsmeffdZmvZBJROCKQBVETj4gilpZt03/u0YQJ02aZIlQVB9+QI1sTL9+/ez9iw0aNLB6SMArfYJUwWau3G1HyuHo64Vzyfi49VFW2sV3vz33HFtL3Xv0QPaw3c9vD9khZIJ8fZDRQlYXWwqhD677daNs5s8h6msy6Rd9aH1WNA5fJ3c8rj2kn7Cjr1vU2MLaFV3kKH25OokMZYBxOV+xYoUBiffrVjT+MD1RD0RN2nePrv6Ye/fBTVKubdu2NouPe2LhD4AFYA/XRUf07WIMZUEQw3SStt02pC25JraCPBP7RK0HabOYjiSIMclBkh8m1i2NQEYLWDQZ57s05pvzyHkkBqoGA5of1WRJ5sMniMhkIPOGB1UgeMO9ep06dbLBJTIaCA4hxxHZQgTvvXv3DoJdBKHY7qmVjQoGfSKGzBFIydGjR0P7QHtuQA2SBftAjqc2ItOG7xgLglt8xzbUX//61ypBxNZYlHE/vl6oj0xhVLu4Br3c9txz3DfWtWvXoB9kYzZv3hwE99K/BORyjqOvj1zDfLjZmzjzUtFchfVZ0Th8ndzxuPaQMWhHTbewsaF+WLuiixylL1cnkaEM1gCwDxnuOcUWTr9uReMP0xP1kPFD28h4jx49OugrTH/RDUeQPGxRxdZqzA22KOPBTrgmOiKDLhhDH7/73e/sGg7TyW1f2pCjXBNbQa7ZJ2ydoX4m45J+CvVIgkiCyAxiTAxoAYsmSxLEsG7VBKS0M+1MDBQOBjQ/qsmSzJlPEBGc4SmdjRo1svcTIhDEayQQZCK7iHv8QBiRHdiwYYMNSgcNGmQJGDIbuC8qqmxY8IdA9/bbb7fZOdy3hayk+7oNrQ+0hcBT2kQb0AvEFdstJYMIfSBDUI0tc+49f0KqsB0P/WKM0h6Orl7IHKJ9eYVDWLuo57fnnyPbijHi/kF5QmxYQO7r4z7MR675dSHXbKbNoSaTdnGEDbQ+cS1qHL5OQjBQz7eH25/7PUw3bWxR7YoucpQ+XJ1EhjLA8uOPP246dOhgsQOy79dF+ajx43qYniB02CoKTMEW0ncmdgFpxloRAos/UkD80IboCGwiywd8YRzAvzzFNEwn0UHakKPIxVaQa/aJsx6kzWI6kiDGJAdJfphYt3ACkSRzoQUsmixJH6xbGljhPHIeiYHMMaD5UU2WxKYaQUTQhmAPTzv0H9oCOe6D8gM76OA+wVTa0Mr6dTM91/rw64bph3Jnzpwpp7db3x+rey3qe1i7fnv+ucxbVNtJr2k202ykyTLtu7Lj8O0R1l+YbtrY0Eam7Yb1J8QI/eKhLmHlRO6PH38gSEYPZcL0hPzs2bPl2k+qv+iFI/SX+xtdeZhObpmw7xXZJ9P1ENZ+ocpJEEkQmUGMiQEtYNFk4kR5zDxApK1oK2IgvRjQ/KgmS4KRMIJYqEEa9Sq7BZb2yL49hABVxrbYgozMNbZ/VqZ+MdRJYp9iGF+YjiSIMclBkh8m1i2NwEcLWDQZ57s05pvzyHkkBqoGA5of1WRJ5oMEMfsEIyzApLw4bI3MoZbZy2T+UBefTMoWa5kk9inWMUNvEkQSRGYQY2JAC1g0WZIghnWrJiClnWlnYqBwMKD5UU2WZM5IEIuDtBRzYE3dibFSwAAJYkxykOSHiXULJxBJMhdawKLJkvTBuqWBFc4j55EYyBwDmh/VZElsmkuCiAeMyANdSiFA5BhIdIiB9GKABJEEkRnEmBjQAhZNliSIYd3Mg0rairYiBkoDA5of1WRJ5jspQcQLuN2g2T3HY+/dd7G55fg9vYE2555zX4wYIEGMSQ6S/DCxLoMYYqA0MMB55DwSA9nHgEYGNVkS22sEEbKJEyfad7/J/VR4oinev4Z3DcrTSpcvX27q1q1r8OJvPC3RPz9y5Ih9/D6OePfbwoULzYQJE8q8SuLQoUO2rwULFpgtW7aY/fv3W8Kp6VCMQSV1JhkiBkoDAySIJIjMIMbEgBawaLIkQQzrZj/4pE1pU2KgsDGg+VFNlmQefYKId949+uijZs2aNfb9h3PnzrXkD+8InD9/vsE53omH98Lt3r3bvoweT2zEo/n9c3naIY54n+K8efPMnDlz7PsIETR/+OGHpmHDhvb9bDNmzLBt4V1tmg4MsksjyOY8ch6LFQMkiDHJQZIfJtYt7OAk0/nRAhZNlml7LFcauOA8ch6JgWQY0PyoJktiZ58g7tq1y7Ro0cK+pF6yhyCFeCE4CCA+eOn29u3bbabPfVE9Aj/33CWIeEG9BIYgoKdOnbLbT8ePHx/I8WJvEERNB6nLIwkGMUAM5AMDJIgkiMwgxsSAFrBosiRBDOsmCzRpP9qPGCg+DGh+VJMlmVufICLwWrt2rQFZa9Kkic0kYmtp+/btLUkEURSyiLIuIfTPXYLYp0+fgAi2adPGHD9+3G5NRUZRgr1hw4ZZgqjpIGV4JDkgBoiBfGCABDEmOUjyw8S6xRewaHOmBSyaTKtLWWlggPPIeSQGso8BzY9qsiS29wnivn37DIgdAjAckS0EYezdu3dA5JDlk/sQQRCx3VQCNve8IoK4adMm06FDB1sfYwAhRduaDshm4qmo0g+PJAnEADFQlRggQSRBZAYxJga0gEWTJQliWDf7wSdtSpsSA4WNAc2ParIk8+gTRJCwRx55xHTq1Mk0b97cbNiwwZKyQYMGGWT+2rZta3r27Bm8DHzcuHEG9ycKeXPPKyKICO6QncSW1o4dO9qsJQiipgNIY7169UgQPyUpqEpSwL6IN8EACWJMcpDkh4l1Czs4yXR+tIBFk2XaHsuVBi44j5xHYiAZBjQ/qsmS2NkniAiGkK07ceJEOTKGfiRzKEETjnhATdS5e839jn5wT6PIkKVEthLnmg6QSVkeGbgTA8RAVWKABJEEkRnEmBjQAhZNliSIYd1kgSbtR/sRA8WHAc2ParIkc6sRxKoKuvCgGtzb2LVrV9O5c2fTpUsXc+7cOZJAZgmJAWKg4DBAghiTHCT5YWLd4gtYtDnTAhZNptWlrDQwwHnkPBID2ceA5kc1WRLb44mh7j2EVUUO3X7wnsSTJ08WXEDo6sjvzFYRA+nFAHwkfKXvazV//KtMCvlleJ79H1DaNP821RaIJuNc5X+uOAecA2KgeDCg+VFNlmRO8c5B3POXb5LI4Du9wTfnnnNfyBiAb4SPhK/0fa3mj0kQmWksBxQfOGk51xaIJkuLPTjO4gnAOVecq0LGgOZHNVnSMSDwwb/j2ELFD21ADBADxMAvGIBv1Mgh/K7mj0kQSRBJEC9hQFsgmixpEMP6DOaJAWIgTRjQ/KgmS5NNOFb6AGKAGCgUDGj+mASRBJEEkQSRGKAfIAaIgZxhQAs+NFmhBEvUg4E7MUAMpAkDmj8mQWRQkLOgoNgWl7ZANFmxjYv68oeOGCAG8okBzY9qsnzqyL65RoiB/zHHjh2z2xDfffddw0/p2QBbTDHHPtY1f0yCSIJYDig+cNJyri0QTZYWe3CcDJiIAWIgGxjQ/Kgmy0ZfbIOYJQYqhwEQh7Nnz5off/zR/Pzzz/yUoA0wt5hjnyRq/pgEkQSRBPESBrQFosn441O5Hx/ajXYjBtKJAc2PajLiI5344LwXxrwju0RyWPrEGHPsP6xG88ckiCSIJIgkiMQA/QAxQAzkDANa8KHJSBQKgyhwHtI5D9hSysxh6RNEzDHm2l3nmj8mQWRQUAYkLmDS9l1bIJosbXbheNMZLHDeOe/ZwoDmRzVZtvpjO8QuMRAfA5kQRGSeOnXqZO6//37Tvn17s23btiollR06dDBffvllzvr86quvzD//+U+1/a+//toMGzbMPPDAA6ZJkyZm+vTp5l//+pda1ifafrvu+enTp80tt9xi/vGPf2TUlt92Zc5JEEn+SP5iYEALWDQZf3ji//DQZrQZMZBeDGh+VJMRI+nFCOc+/3NfEUHcsWOHqV27tlm4cKE5fvy4Wb16tbntttvMokWLqozY1KhRw/z5z3/OWX/dunUzS5YsUdtv3ry5GTJkiDlz5ow5evSoadmypRkxYoRa1idtfrvuObZ84h2Ffp1cnpMgxiAHdE75d075ngMtYNFk+daT/ROrxAAxUEwY0PyoJiumMVFXrsFSw0BFBPGuu+4yO3fuLENkkP269tprbfYLmbdJkybZxMSgQYPMqFGjzPnz54PyIEILFiww/fv3N7NmzTI//PCDvSb1Tp48aVBv7Nix5osvvgjquURJCGJUHbmG+fH1wLVx48aVaXv06NHm4sWLlvD+9re/NW3atDFz5swpU+b77783V155pfn3v/8dyD/99FOzbNmy4DxsfCDSbrv+uauT6B5mC+jx2muvmb59+5pNmzaZjRs3mkOHDlkd/vrXv5qpU6eaAQMGWLlrN/87CSIJIjOIMTCgBSyarNR+FDgeBjrEADGQSwxoflST5VIHtk2MEwPRGIgiiCCCt956a0CGXMLRokULs2XLFrv185prrjHt2rUza9euNa+88orNOH7++ee23lNPPWU6d+5siU2/fv1sBg7tYMso6vXp08e89dZb5plnnjGNGjVS+xKCGFVHrml64FqtWrXKtH311Veb7777zmYFMRaQyn379pUpAz2xrXb48OHm73//e7lruB42PmQb3Xb9c1cn0T3MFo899pjp2rWrtdNzzz1n7rzzTpvRBXFENnf27Nlm69at5r777jMbNmxQ9YSuJIgxyAEdR7TjSIN9tIBFk6XBFhwj1wMxQAxkCwOaH9Vk2eqP7RC7xEB8DEQRRGyBxBZLkAv/0717d5sZBLm57LLL7GsUpAyI4JgxY+xrFerWrVsmA/fggw+agwcPWoJ4xRVXBPfgIRNXrVo1880335TryyWIYXWi9HDJmOgoBBHn7tZPuS5HZDVB3K677jrTtGlTO2a5BxGvjQgbn9au24+rE76HjQuZwjp16pR50uy9995rCeInn3xi9cJ9kujv22+/LWNrGYMcSRBJEJlBjIEBLWDRZPzhif/DQ5vRZsRAejGg+VFNRoykFyOc+/zPfRRBRNarXr165QgbCAceVrNmzZogEygkBMfly5ebjh072iOIFUihfLA1dcWKFbaen9W74YYb1HsNXYIYVgckCxlJTQ+XjMn1TAmilAeB3b59u2nWrJnNNso4w8aH6y4h9M9dndzv0p/YQmwpchx79OhhCSK+437I66+/3s4H7qN0t8O6dfCdBDEGOaBzyr9zyvccaAGLJsu3nuyfWCUGiIFiwoDmRzVZMY2JunINlhoGoggi7tEDATp37lwZ4oUsX82aNc1nn31miR7u00NZISRY57169bL3xLVq1cogw+V+UDaKFEk7csyUIIbpgaeHog1p76effjJXXXWV3WIKmU/kpBzqHT58OKgHOe6vxEN78B33AoaNT2vX7ccdv/td+haCuHnzZrtVVeQ4tm7dOiCIOMeTULHFFCR8ypQpZfR165EgkiAygxgDA1rAoslK7UeB42GgQwwQA7nEgOZHNVkudWDbxDgxEI2BKIIIcoHXOjRo0CB48AzIDO7zw71wuI5zbDGdMWOGPccDV+6++26zbt06A4IFMoWtmCiL+/iQWUSdKFLkkhp8z5QghumBNkBo33nnHQNyOHPmTHP55ZcHBPHZZ5+1D3rx+8WTU7Ht9ciRIwHpAgHD6y5QNmp8uO63656743e/iw5CEHGf5E033WRWrVpl9cU9htWrV7cE8dSpU6Zfv352TKg3fvx4ux1W2vCPJIgxyAEdR7TjSIN9tIBFk6XBFhwj1wMxQAxkCwOaH9Vk2eqP7RC7xEB8DFREEEGo8JRMZBJBWrCNc/DgwcE9cUJuIMO9cSAzAwcODAgV3pmIB93Ur1/fPigG9yaCuEg9l8QIKXJl+J4pQcT20zA98ORRbCvFOEBm3S2meM8j9EZmzu8b22GhF57mivbxPkTgTMqFjQ/X/Xbdc3f87ndp17UFXi8C3XAvIp4G27NnT0sQse0VDwC644477MN0YGM/2yvt4UiCSILIDGIMDGgBiybjD0/8Hx7ajDYjBtKLAc2PajJiJL0Y4dznf+4rIohCMHBvG16pAFIiMhxdcoOtp9pDZvBQF2xHxVM33brZ/J6pHu5WWLd/EGFkP12ZfMfYkU0Mew1H1Pj8dv1z6SPq6PfboUMHm1GUOti+i2ymnIcdSRBjkAM6p/w7p3zPgRawaLJ868n+iVVigBgoJgxoflSTFdOYqCvXYKlhIFOCGEY6XGIWVqYq5IWiR7bHCvKJBwU9//zz9qFAyMDefPPN5m9/+1uFhNDXhQSRBJEZxBgY0AIWTVZqPwocDwMdYoAYyCUGND+qyXKpA9smxomBaAxg26OfFfSJRdQ5soJz586NTVai2qzMtULRozK6V1QH2UFsi8X22VmzZpkLFy7EtjfmGHPtrgfNH//KLYDvWiG/DM+jFxntU5z20bCvyTi/xTm/nDfOGzGQHwxoflSTcX7yMz+0O+0ODOABMmfPnjU//PBDbNJREbHh9fLvj8yHTTC3yB5irt11r/ljEsQYGSbXmPxeeg5VWyCajHNfenPPOeWcEgO5w4DmRzUZ5yB3c0Db0raZYGDHjh32njY8kIWf0rMBnoCKOfaxoPljEkQSxHJA8YGTlnNtgWiytNiD42RAQQwQA9nAgOZHNVk2+mIbxCwxQAwQA/EwoPljEkQSRBLESxjQFogmo+OJ53hoL9qLGEg3BjQ/qsmIk3TjhPPP+ScG8oMBzR+TIJIgkiCSIBID9APEADGQMwxowYfI1q5da/ihDYgBYoAYyA8GQMrFH7sEnQSRQUHOggIXaMXwXVsgmqwYxkId8/MvHO1OuxMD5TGg+VFNRtuVtx1tQpsQA8RArjGg+WMSRBJEEsRLGNAWiCbL9UJl+/wxIAaIgVLCgOZHNVkpjZlj4RomBoiBYsGA5o9JEEkQSRBJEIkB+gFigBjIGQa04EOTFUswRT0Z+BMDxEApYUDzxySIDApyFhQU2+LRFogmK7ZxUV/+kBEDxEA+MaD5UU2WTx3ZN9cIMUAMpBUDmj8mQSRBJEG8hAFtgWiytDoQjps/nsQAMVAZDGh+VJNVpm3WISaJAWKAGEiGAc0fkyCSIJIgkiASA/QDxAAxkDMMaMGHJmOQlyzIo/1oP2Kg6jFw8OBBg08x217zxySIDAqKGtTZXJDaAtFk2eyTbVW9M6fNaXNioGoxoPlRTcZ5qdp5ob1pb2IgGQZ2795txo0bZ8aPH2/wPVN7nj592uDjlw+T++Wyfa75YxJEEsRyAM028IqlPW2BaLJiGQ/1TOb4aT/ajxjIDgY0P6rJ4tr7vffeM7169TJ169Y199xzj3nuuefMkSNH7G/atm3bTKNGjczKlSuz/hs3depU2zba9z+zZ8/Oen9x7cLy2cEt7Ug7RmFAyOGcOXMMPnFI4tatW83GjRvNyZMnA3+B75DhWlS/ubim+WMSRBLEKgdiLsCdjTa1BaLJstEX2+APDzFADKQFA5of9WWLFi0ykydPDv3gumuvU6dOmTvuuMNcffXVpmfPnqZr167mv/7rvyxhQ7l169aZX/3qV2bmzJll6rltVPb7vHnzzNNPP20/1atXN7Vq1QrOly5dmvX+Kqsn69HHEAO5wcCePXts5hDE8E9/+pP9CEnEtYrsfuzYMbN69eqAJAo5XLNmjcG1iupn+7rvj9E+CSIJYpUDMdvAzlZ72gLRZNnqj+3kxnHTrrQrMVBYGND8qC87fPiwmTJlikoQIcd1d143b95sCeDw4cMD+WuvvWYee+wx88EHH5QjiCdOnDATJkwwnTt3NgMHDjR79+619VBnwIABQRsjRowwL7zwQnCO78gYun2730FSGzRoUO467kkaOnSoJY5oUzKb6BdZT2QKRo4caYnt4sWLy9V3++D3wsIz54PzsWTJEoM/ikAOBQ/4DlmmfxK5JBH+oLLkcOLEiaZHjx7qB9dEv6ij749RlgSRBDEj8EQBq1SuaQtEk5XKeDkO/sgRA8RAVWBA86OabNWqVSpBhNzX89ChQzZjePvtt5sFCxaYDz/8sEwZN4OIbONDDz1ky7dv397ccsstpkaNGvaeIdw/hEzjrl27LLG84oorzH/8x3+Yd99912ALK76D6Pn9y7lGEBH43Xjjjeamm26yBPHaa6819evXt22IXtChcePGBvqjf80e0gePXKfEQGliQEhiZckhcEGCSCIX+gNFx5Edx6H9QGsy2js79qYdaUdiIB0Y0PyoJjt+/LiZPn16GZKIc8g1rCDzduutt1qCdeWVV5p27doFmUEhYthiunDhQlsGW1jRDu4dAhHs3r27JYYgaNOmTTNvvPGGQTv//d//bWbMmGFmzZpl623atEntH22FEUSQ1n379tl6yEKiD5BO0atLly72GjKbN998s72PUhsjZelYI5zn9M4z/FuYj6sqXGj+mBlEEs/QH76qAmah9KMtEE1WKPpSj/T+oHDuOffFhAHNj2oyjAlkzL0XMYqciQ3efvttM2zYMINMXe3ate09PELEQBCxDVWyhFKnTp06pmHDhvb3DyTziSeeMH369DFNmjQxrVq1sltR//CHP5jrr78+8jdSI4h4EuGkSZNshhD6/Od//mfQv+jljr9Dhw6WlIpuPHJ9EwPEQFViwPVH0i8JIgli5I+fACUNR22BaLI02IJj5I8TMUAMZAsDmh/VZOgP20GRvQNJxBHnmh54wAMeTLN///7gOp4iCCIIEiZEDAQR9x5Cvn79+qDsddddZx555BF7jkwitoNiGyjuF8SWrdtuu81mB5966qmgjqaHRhCRjUR/L774on0i4ejRo8sRxJdeeilot2nTppbYau1TxnVIDBADucaA5o9JEEkQgx+pXAOw0NvXFogmK/RxUD/+mBADxEAhYUDzo5pMdN65c6cliDiKzD/iITWXXXaZzfjhCad4giDIGraH4r4elyDiqYLYOtqsWTNL2AYPHmwJG7avol1sBwWhw/2GW7ZssVtQcY5PRU9B1QgiSCba2rBhg91WiofYoC3c5yh6/b//9//M8uXL7YN5MI6OHTuGjtUfO8+5vokBYiCbGND8MQkiCSJ/lC5hQFsgmiybi5Jt0ckTA8RAqWNA86OazLUDHtrgnmvf0cYNN9xgyRcIGLJ+y5Yts/WEiAnBw9MF8ToKlANZxDsTpU084AYybAcVGdoCcfOfnirX5agRRDzB9K677rJ9VatWzWALqU8Q8STTmjVrWvkDDzxgiaS0ySN9AjFADFQlBjR/TIJIcAR59QAAIABJREFUghj8IFYlGAuxL22BaLJC1J068ceEGCAGChUDmh/VZJXV//333zdHjx6t8LcM21UPHDhg8GCYyvYVpx6Iot+XS1xxryJ0j9Mmy3KdEwPEQLYxoPljEkQSRP44MYNIDNAPEAPEQM4woAUfmizbQU8htucSxELUjzqRfBAD6cOA5o9JEBkU5CwoKDYnoy0QTVZs46K+6XP2nHPOeSFhQPOjmqyQdM6VLsgq4qmq27Zt428v4y9igBgoCAxo/pgEkeAsCHDm6sc4TrvaAtFkcdpkWQbqxAAxkHYMaH5Uk6XdThw/fQUxQAzkAwOaPyZBJEEkQbyEAW2BaLJ8LF72yR8NYoAYKFYMaH5UkxXr+Kg31yYxQAwUMwY0f0yCSIJIgkiCSAzQDxADxEDOMKAFH5qsmAMs6k6CQAwQA8WKAc0fkyAyKMhZUFBsC0VbIJqs2MZFffmjRQwQA/nEgOZHNVk+dWTf6VgjeNrtu+++a44fP160H+ifyVN7iel0YDob86z5YxJEEkQSxEsY0BaIJsvGYmQbdNzEADGQFgxoflSTpcUeHGd+1v6f/vQn8/HHH5tvvvnGfPfdd0X7gf4YB8bjYumDDz4wW7duNW+//XZGH5RFHbcNfs8PNvNtd80fkyCSINI5kCASA/QDxAAxkDMMaMGHJst3kMT+Szs4xjspv/3226Ilhi6pxTj8d2x++OGH5scffzT/+7//m9Hn4sWLBnWI+9LGfSbzq/ljEkQGBXQOJIjEAP0AMUAM5AwDWvChyTIJZFiGwWxlMXD+/PmSIIdCFDEe1xZHjhzJiBi6BBJ13Day9f3kyZNm//79OWk7WzqynV98ieaPSRAZFHABkyASA/QDxAAxkDMMaMGHJmPA9kvARltk3xYkiP+XWfz5558DIqkRxJYtW5rGjRubJk2amLZt25qxY8fGyjSuXLnS1KpVy9x9992V3sIKvVq1ahX4pPfff7/SbXEtVbyWNH9MgsigIFiAaV9E2gLRZGm3E8dfsbOljWgjYuAXDGh+VJNlw2YzZswwW7ZsUX/XFi5caNasWWOvvffee2b06NEGmY5M+8XL7V955RX1c+zYsYzbqag/jEH6mTVrllm3bl25+80qaiPT69hiKDaojE0y7acQyvkEEffybd682cycOdMAG9BRsnP+8dChQ2bBggVlPn/5y19Cy/v1c3FemQzim2++aUAAhSRqBLF69ep2nOvXrzezZ8+25e+5556MSeKTTz5pXnzxxUTrAVisWbNm0Mbjjz9upk2bFpwXAp5KSQfNH5MgkiBywV3CgLZANFkpOQWO5ZcglragLYiB3GBA86OaLBv2Hz58uJk4cWK53zUE+C+88IJ5/fXX7bXTp0+bXbt2lSsXpQMe6IFtc/i8/PLLZsWKFcH5qVOnYrUV1Q/GsGPHDtv2H//4R/Paa6+ZyZMn54Qkzp0712zatKnSNokaR6Fd8wkiyCGIIR74AkIyadIk88UXX6ikD2QJdjpz5kzw+frrr9WyuSCDWptxCaKQQxxlm2kYQdy7d28ZPINUDh06NJDhTwWss65du5oxY8bYJ8JivkHi7rjjDvPwww+bESNG2PJYe8OGDTNdunQxEyZMMLJWsJ6ef/75oE3U79evn7230iWIwL+0iWxmoeGqFPTR/DEJIgkiFxsJIjFAP0AMEAM5w4AWfGiybARaIFcIWP0A94033rByIYgIcJcvX27HjO/YFofXByxatMjKK3q6IzJ7QqxcvZGRW716tc3AbNiwwYCI4rr0gWAZfSxbtswcPnxYtTnG4L/GAEHyqlWrgrZEd+kb7SHwln727NljyTAIQJhOyLSOHz/evPrqqzZL6doE7UJ3jAGZM4wJ192xxLGX6JnPo0sQQe5ACC9cuBCQvLVr11pirpEx4AfzpV3LlyyKIH7//fcBCQQZ1Mgh5JkSRIz/vvvuC/CK7Z/t2rUz8+bNs8QPW1Ixt7Bhw4YNTffu3c3SpUvtttCbb77Z9OnTx5Lxxx57zPTu3duWdUmg4KJatWoG2Xj3GjAobWKdSlkes/eHnuaPSRAZFHCxkSASA/QDxAAxkDMMaMGHJstGwAdyBTKDzJi0h9cBjBw50hIsIYggTZLhwHdkOObPn2+wjRRlpkyZEtSXdtyjRhBBoF566SUbGCMDiK2LS5Ysse1IHxg3iBl0hE4+EUQfGkHcuXNnoJOru+iELX3oH9fwHdtUQWBBAMJ0OnDggJk+fbolrLt377Z1xSZoF2PEBzYBqQWhAgmVscSxl+iZz6NLEJE1xFy45A73uYF4uzL5LvbEdWQTP/vsM7WclK+KYxhB/Omnn+y2UMkUhpHDOARx+/btBkQP87dx40Zz5513BplAyLAFFf3gu78dFH9WyLxji/dvfvMbe+6SQLmuEUStTSnPY3ZIouaPSRAZFAQLN+0LTVsgmiztduL4s+OQaUfaMS0Y0PyoJsuGPYRcgXyByKBNECUhdGEEcfDgwUGGDJkzbKfzXyPg6iftuTJ8dzMyyGLKdlfogi2uICFSB5k5ZP7kXI4yBjnHEZlHED18R1sukYPMJYhDhgwpsx01TCfUc7eYuu2CPKI/2Q6Istg+CHKLcnHthfr5/rgEEWQa2S+XyGG+gQ9XJt+RxQJRxthBkLDlN2w7qtTJ9TGMILoZQ/zxge2hQhZxzf242JD5wT2IfgYe2Ws8dAZlcH8s7g8EKZRPjRo1rBzXfYIIO+NhN6h/++232w/KkSDmf03InGv+mASxAJyWTBCP+V0s2gLRZJyn/M4T7U/7EwPFhQHNj2qybMwryBWCf9xbhiwd2kQ2EPcbgiiGEUSfcIVl90THMIIIEoFrIIbjxo2zH9QBsUCwLvVxFOLqyvBdI4jIwrhk09fXJYj+tTCd0FcYQcTL1pEBdXUDmcXHJZJyvSJ7Sbl8Hl2C+NFHH9ksq0viQJaQ8XVlYd+RUQWJCrteFfIoguiSxDByiDKZEsRevXqZbt26WTwAM82aNbNbbrHtVj7yh4pLELHl9MYbb7T36wI3wBVIInCAP0tARgUT+GPmqquuKrfFFNfdNqU8j9n7HdD8MQkiCWKwONO+2LQFosnSbieOP3tOmbakLdOAAc2ParJs2EIIIu6PwwMtkAkDUUPbuSaIIAx4Miq2a2Jb68GDB4O+ERwj6+Zm5LDdDtkVf9waQcQ9YPKkTbSFMm49ZA1li6lLEKN0Qv0wgghSiQfxuH0I6S4FgojsHx6Y8tVXXwUkb+vWrTY76JM7vJT+3LlzQTlcB/HBtku/bFWeV0QQQQCBQzdj6H+viCCCxIH847UVslUUMpwjkwp8ILvdunVrmxHEuUvm8GeJ3J+Ia3379g0IIs6vueYauyUb5BBr5/LLL1cJYseOHcs8JAd1+cmeDTR/TIJIkHGRXcKAtkA0GZ1S9pwSbUlbEgOljwHNj2qybGBBCCLawpZIPIQFwTzOc00Q8cRRl1Qh2ybkFKQKW0xFF5A5XEMdf9wuQUQ9EEkE6W4wjzLvvPOOrYs20bZGEKN0Qr/IqMrDb1zih2wQiKZsNUTf0AHbAt1yonuxZRBB5PAQFdgH3z///HMzderUMkQQROjLL7+015GFxrhRFvcfYospSE1VEkK/r0wIok8I/XMXUzKXyOrJB1tJ8UAa/GEg13FcvHixvScR20ZRpn///sF1lyDCZniiaZ06dSwx7Ny5cxmCiHtgcd8h2gBBDLsHERivXbu2zVy6evB7dn4/NH9MgkiCGCzqtC80bYFosrTbiePPjkOmHWnHtGBA86OaLBv2cAkiXmPg3kuYa4KIbA2eCCpbS/EQF5cggnAhsEbmatSoUUFG0B83xoDtqPigDrZ6IkvjlsNYsK0UZRE8h20xjdIJ7YEAQhfo7RM/PGgH9yGCDCF4l4yRXw7tFCNBBNGDbUH+MCd4EJCQMDzlFFt6hRTi9RYgM/gDAHJkiaVsvo4+QYSuFy9ejMwYugQRZVHHxVWc78iG79u3L6M28MdC2JOB0Y5sT43qH4Q8rI2oerxW8W+t5o9JEEkQK+0cSm3RaQtEk5XauDmeip0nbUQbEQOVx4DmRzVZqdgYQTeyee54IJOtnwiGMwmI3fradwTM7pZVrYzINJ3kGo6+vnINfeBJq5n2I/UK8QhCpZE5vPBee6chtpa65XEeVtYtV1XffYIIm2OekRXM5IOyhThP1KnyvrayttP8MQkiCSIdBLeYEgP0A8QAMZAzDGjBhyarbHBTDPVcglgM+paijiDlPumrKjKX7X4wjmz8yVCK88wxxSeYmj8mQWRQkLOgoNgWqbZANFmxjYv6xneWtBltRgxkDwOaH9VkpWxzbPXE+/NKeYyFPjbMwYULF4qeJIIcYhwYT6HbnPplz4/m0paaPyZBJEGkg7mEAW2BaLJcLlK2XRzOlPPEeSIGMseA5kc1GW2auU1pq8rZCqQKmTdszyzWD/QnOazc/HPd6HbT/DEJIgkiCSIJIjFAP0AMEAM5w4AWfGgyBm968Ea70C7EADGQSwxo/pgEkUFBzoKCXII5F21rC0ST5aJvtknnTwwQA6WKAc2ParJSHT/HxbVNDBADhYwBzR+TIJIgkiBewoC2QDRZIS9y6sYfIWKAGCg0DGh+VJMl1RuP0t+1a5d9PyDeEcgPbUAMEAPEwP9hAL4RPlLzs5o/JkEkQVTBogGo1GXaAtFkpW4Hjo8EgxggBrKJAc2ParIkfSLwOXz4sPn444/Np59+yg9tQAwQA8SAgwH4RvhIjSRq/pgEkQSRBJEZRGKAfoAYIAZyhgEt+NBkSQgi/h0nOSQx5p8DxAAxEI4B+Ej4St/Xav6YBJFBQTmg+MBJy7m2QDRZWuzBcTKLRAwQA9nAgOZHNVmSvrCNjIFheGBI29A2xAAxAAzAV/q+VvPHJIgkiOWA4gMnLefaAtFkabEHx0lyQAwQA9nAgOZHNVmSvkgQGfySABEDxEDFGCBBJPEj8YuJAS1g0WRJghjWZcBNDBADacOA5kc1WRK7+ATxo48+Mtu2bSuTVfzggw/MwYMHy8iSBpTHjx+39/TIEf2uW7fOft5++237vrpM+ti3b58ZMmSI2bp1a2z98E68vXv3Vljvk08+MRs2bDDLly83x44ds+UzrZvJGGBbGbsc33rrrQr1imo7rE3cS/Xmm28malvmTI5RelT2Wjb0zLTvquzL1ymsb8wf1p1fXjsPa0MrW0iyYtObBDEmOUjyw8S6pRHwaQGLJuN8l8Z8cx45j8RA1WBA86OaLMl8+AQRD2Jo1apVmcB00aJFZvjw4WVkSQPNlStXmnHjxhk5ot969eqZUaNGmYEDB5pmzZqZl19+ucI+oSuIGwhbXJ1ARPv06WPrPfPMM2p9vBS+Y8eO5oUXXjBTp041jz76qFm/fr1x68bt1y8PUohxQ4fGjRvb7+PHj1f18euGnYe1uWfPHjNr1qxEbcucyTFMh0zkYXbPhp6Z9I8ySfoK0z9p38DDkiVLMpqnJPqH6Zl0XNKu3457ngu9pd9cHEkQSRCZQYyJAS1g0WRJghjWrZqAlHamnYmBwsGA5kc1WZI5i0sQUX7ixInm9ddfN8isIRBDVm3y5Mnm1VdfNadPnw6CWq2sBG5CLuToE1NkFFu2bGl27NgR2sfixYtN3bp1zZQpU4JsCzKK0A+6wC7o78iRI2bt2rWBXvPnzzfnzp0LSB4IprTjE030D4IoekPPBQsWBHUhR6YHOkybNs0gqwYZCBrK4jvaAKnE9xMnTpilS5cG7UEmH5DObt26BeeQh40H7UFvkGyUkTb8o9+m2AJHtLFw4UJrK9h72bJl1naSJUVb2tzKnMnR71Obd62dKLtrek6YMME+TdLvT8bi20PkM2fOtPOBetpcSV9h43XlWH+CkSj9RceKcOD2fejQIWt/4GvkyJEBQdRsJ+3jKG3IeDGnrq1ErtlHWxcVjauy8+u3W5HeGJtrky1btpj9+/dbrGs6uDbJxXf06ftazR/zHsSYJMI3Ks8LJwhJOhfaAtFkSfth/dLBDOeSc0kMVIwBzY9qsiS2RNDjBlM+UcM1ySDiGjJoa9assds6586da4Plhx9+2IB04RwZPTzxTyvr9nPy5Ekb7MtR63f27NlmzJgxoX3s3LnT3H///Wbjxo2WmCL4f+SRR+wWSmQfhWz52b4WLVrYQE/ku3fvDtoBUXL1BOFt1KiRHZsQA1yXupAh64egHKS5SZMmtm18B3lD2Z49e5o2bdrY767c7UfaFJ1xHjWee++91xJSBN0PPfRQQEYralP0xvHBBx+0ZHfEiBGmadOmZt68eQb4at++vdUVY9PmVuZMjm6f2ryHtRNld19P6DZnzhyrp9sfvqOsZg/IgQ9kTA8cOGBxpM2V9BWmJ+SwD+YOGMcfF+g3Sn/R0Z1vDQfSN/5YaNiwoSWFM2bMMPXr17ffw3SS9mX8yISjLcypbyvIw+wjGXS0I+sialxJ5tdvV8YepveHH35YxiaYS2RVNR1ce+TqOwkiiV+5fwiS/Pimoa4WsGiyNNiCY6w46KWNaCNiIDMMaH5UkyWxZxyCiMe8I4jEPYqSPUTAjO2XCP7wefrpp8327dvtI+H9slGBm0YQkaFC22F9oD0E/G670Att4T47BMu4JoGolJNA2JX77UhZHBGojh071vzud7+z4zt69GjQJnQDiZXyQ4cONchsIlPYunVraycQLtgFhKp79+4GxFbKu0fo4xJEXAsbzxNPPBG0AUKBjJHblnz325Qx49ijRw9bB+MT0oN6Yosou0v7/jEORty+/HY0PVEGf1CcOnWqzFhRVrMH5L169QrKhs2V9BU2XsiF7EMH4Atbj339kcnF1lB8kFHH9YpwIH2DxLp9YCsmyFCYTmhbPtIGjjKnuCa2gjzMPhpBRF3BgPQhx6Tz67Zbkd6wibvV+tlnn7U20XQQ/XJ5JEEkQSRBjIkBLWDRZEmCGNbNLKCknWgnYqB0MKD5UU2WZM59gogHRyCwdAMtbHlD0AsZtqQhUEOmDJlEBMIgQCBy8gFR1Mq6bfrfNYI4adIkM3369Mg+3IATATqITr9+/ez9iw0aNLB6SCAqfTZv3rxMBhFytx0ppx2xPfQPf/hDQBCxtdS9pw/6Ynsr6rZt29baaNiwYTYzh0ws+tbahQx6ugQxajyYA2lnxYoVBsRUzt2j36bYQo4oi+yVe9+p2CJqbt0+/O9xMCJ9+W2IfnKU68jEyjZekaGMZg+/bthcSbmw8aIeiJr05x5d/aEXtpTigzalXBQO3L5dHAEzIIhhOknbOEobcpRrYivIM7GPrAvUd8cl7ckxyfy67Yq+cpT2RW/YHVljkYtNcO7rIGVyeSRBjEkOkvwwsW5pBDJawKLJON+lMd+cR84jMVA1GND8qCZLMh8+QURmBJk3PEACwRbu1evUqZMNVkFYEMxBjiOyYgjUevfuHQRxCGqxLVMrGxW8+QQRWQJsnUS2LqwPtOcGnCBmsA/keAoktqThO8YiWzyxbfPXv/61ShCxNdbXESS4f//+gRxPM0U2RoJa3MfXtWvX4Dqubd682Z4juMfWRGyBxfhAqvEAHr8POUebLkEMGw/KYY4wN6g7YMAAu/1R2nGPfpuitxxRNowgRtnd7cP9rs17VDuYP83uop8cpQ8hD3KOI8po9vDrhs2VlAvTE/WQ+UVfyOiOHj06sH2Y/q5+UTiQvpHxFhyhD2SrsZbCdHLblzbkKNfEVpBr9glbF6gfNq6k8+u2K/rK0dd706ZNpkOHDhYf8HFYP7CJpgNshj+3pI1cHEkQSRCZQYyJAS1g0WRJghjWrZqAlHamnYmBwsGA5kc1WZI58wkiAiu8YgH33SGrhMASr5GQAAz3+IEwItsAsoTygwYNsgQMmRLcZxVVNixwA4G6/fbbbQYQ970hK+m+bkPrA20h4JQ20Qb0AnHF1kLJIEIfyEDWsAVP7hN0A1Ns70O/fpAJ8oK20O7vf/972wZs5tZF5hT6tmvXrszTXhHIYkxC5EB4EfCLvv4RbboEMWw8KAdbP/744zaAxtg0koX2/TZFbzmiTBhBxLUwu/u6yznslylGUCfM7qKfHKV9IT1yjiPKaPbw66KsNlduubDxgthjyzAy1O5W0DD9Xf2icCB9A6PI8gFDmFfMKcgQ2gnTSfqQNuQocrEV5Jp9wtYF6oeNK+n8uu2KvnL09cY5yDW2hONBUbAPbKLpABvjKcjSRi6OJIgxyUGSHybWLZxAJMlcaAGLJkvSB+uWBlY4j5xHYiBzDGh+VJMlsalGEBFcIXjE0xP9h7ZAjvuq/AAMOrhPMJU2tLJ+3UzPtT78umH6odyZM2fK6e3W98fqXkNdZB9dmftd5sCVZeO7Nh4JqHENDzHJRj9RbWRid7e+pjOuh7UTZXe33bDvce3hzxWyd25mN0xPyM+ePVvO3kn1d8eF+ZT7G115mE5umbDvFdknbF2EjSvp/Ia16+uPfmS7Oq5hp4L8waLpAJnfRjbPSRBJEJlBjIkBLWDRZOKUecw8QKStaCtiIL0Y0PyoJkuCkTCCmM3Aim398kCRbNhCAv5stFUKbSSxB0g/Ms3YBlwKttDGkMQ+WntVJcPDiJCZx9bbzp07my5dugTZ+KrSwe2HBDEmOUjyw8S6pRH4aAGLJuN8l8Z8cx45j8RA1WBA86OaLMl84F6/sO2JbnDE79kleUnsiUyJlslK0mYx101iD9TNdeYp37ZNYp98647+8b5EPAE4n7rAR8JX+r5W88d8DyKJZDmg+MBJy7m2QDRZWuzBcVZN8Ew7086ljgHNj2qyJHbAfW64p4cksXAIYD4DYfZNHBADZTEA3wgfCV/p+1rNH5MgkiCWA4oPnLScawtEk6XFHhwniQsxQAxkAwOaH9VkSftC4IN/x7GFih/agBggBoiBXzAA36iRQ/hdzR+TIJIgkiBewoC2QDRZ0iCG9Rl0EwPEQJowoPlRTZYmm3Cs9AHEADFQKBjQ/DEJIgkiCSIJIjFAP0AMEAM5w4AWfGiyQgmWqAcDd2KAGEgTBjR/TILIoCBnQUGxLS5tgWiyYhsX9eUPHTFADOQTA5of1WT51JF9c40QA/9jXwmDbYjvvvsuPyVoA8wtXvvjY13zxySIJIjlgOIDJy3n2gLRZGmxB8fJgIkYIAaygQHNj2qybPTFNohZYqByGABxwFNlf/zxR/Pzzz/zU4I2wNxijn2SqPljEkQSRBLESxjQFogm449P5X58aDfajRhIJwY0P6rJiI904oPzXhjzjuwSyWHpE2PMsf+wGs0fkyCSIJIgkiASA/QDxAAxkDMMaMGHJiNRKAyiwHlI5zxgWykzh6VPEDHHmGt3nWv+mASRQUEZkLiASdt3bYFosrTZheNNZ7DAeee8ZwsDmh/VZNnqj+0Qu8RAfAxkQhCReerUqZO5//77Tfv27c22bduqlFR26NDBfPnllznr86uvvjL//Oc/1fa//vprM2zYMPPAAw+YJk2amOnTp5t//etfalmfaPvtuuenT582t9xyi/nHP/6RUVt+25U5J0Ek+SP5i4EBLWDRZPzhif/DQ5vRZsRAejGg+VFNRoykFyOc+/zPfUUEcceOHaZ27dpm4cKF5vjx42b16tXmtttuM4sWLaoyYlOjRg3z5z//OWf9devWzSxZskRtv3nz5mbIkCHmzJkz5ujRo6Zly5ZmxIgRalmftPntuufY8ol3FPp1cnlOghiDHNA55d855XsOtIBFk+VbT/ZPrBIDxEAxYUDzo5qsmMZEXbkGSw0DFRHEu+66y+zcubMMkUH269prr7XZL2TeJk2aZBMTgwYNMqNGjTLnz58PyoMILViwwPTv39/MmjXL/PDDD/aa1Dt58qRBvbFjx5ovvvgiqOcSJSGIUXXkGubH1wPXxo0bV6bt0aNHm4sXL1rC+9vf/ta0adPGzJkzp0yZ77//3lx55ZXm3//+dyD/9NNPzbJly4LzsPGBSLvt+ueuTqJ7mC2gx2uvvWb69u1rNm3aZDZu3GgOHTpkdfjrX/9qpk6dagYMGGDlrt387ySIJIjMIMbAgBawaLJS+1HgeBjoEAPEQC4xoPlRTZZLHdg2MU4MRGMgiiCCCN56660BGXIJR4sWLcyWLVvs1s9rrrnGtGvXzqxdu9a88sorNuP4+eef23pPPfWU6dy5syU2/fr1sxk4tIMto6jXp08f89Zbb5lnnnnGNGrUSO1LCGJUHbmm6YFrtWrVKtP21Vdfbb777jubFcRYQCr37dtXpgz0xLba4cOHm7///e/lruF62PiQbXTb9c9dnUT3MFs89thjpmvXrtZOzz33nLnzzjttRhfEEdnc2bNnm61bt5r77rvPbNiwQdUTupIgxiAHdBzRjiMN9tECFk2WBltwjFwPxAAxkC0MaH5Uk2WrP7ZD7BID8TEQRRCxBRJbLEEu/E/37t1tZhDk5rLLLrOvUZAyIIJjxoyxr1WoW7dumQzcgw8+aA4ePGgJ4hVXXBHcg4dMXLVq1cw333xTri+XIIbVidLDJWOioxBEnLtbP+W6HJHVBHG77rrrTNOmTe2Y5R5EvDYibHxau24/rk74HjYuZArr1KlT5kmz9957ryWIn3zyidUL90miv2+//baMrWUMciRBJEFkBjEGBrSARZPxhyf+Dw9tRpsRA+nFgOZHNRkxkl6McO7zP/dRBBFZr3r16pUjbCAceFjNmjVrgkygkBAcly9fbjp27GiPIFYghfLB1tQVK1bYen5W74YbblDvNXQJYlgdkCxkJDU9XDIm1zMliFIeBHb79u2mWbNmNtso4wwbH667hNA/d3Vyv0t/Yguxpchx7NGjhyWI+I77Ia+//no7H7iP0t0O69bBdxLEGOSAzin/zinfc6AFLJos33qyf2KVGCAGigkDmh/VZMU0JurKNVhqGIgiiLhHDwTo3LlzZYgXsnw1a9YnkfSvAAAgAElEQVQ0n332mSV6uE8PZYWQYJ336tXL3hPXqlUrgwyX+0HZKFIk7cgxU4IYpgeeHoo2pL2ffvrJXHXVVXaLKWQ+kZNyqHf48OGgHuS4vxIP7cF33AsYNj6tXbcfd/zud+lbCOLmzZvtVlWR49i6deuAIOIcT0LFFlOQ8ClTppTR161HgkiCyAxiDAxoAYsmK7UfBY6HgQ4xQAzkEgOaH9VkudSBbRPjxEA0BqIIIsgFXuvQoEGD4MEzIDO4zw/3wuE6zrHFdMaMGfYcD1y5++67zbp16wwIFsgUtmKiLO7jQ2YRdaJIkUtq8D1TghimB9oAoX3nnXcMyOHMmTPN5ZdfHhDEZ5991j7oxe8XT07FttcjR44EpAsEDK+7QNmo8eG636577o7f/S46CEHEfZI33XSTWbVqldUX9xhWr17dEsRTp06Zfv362TGh3vjx4+12WGnDP5IgxiAHdBzRjiMN9tECFk2WBltwjFwPxAAxkC0MaH5Uk2WrP7ZD7BID8TFQEUEEocJTMpFJBGnBNs7BgwcH98QJuYEM98aBzAwcODAgVHhnIh50U79+ffugGNybCOIi9VwSI6TIleF7pgQR20/D9MCTR7GtFOMAmXW3mOI9j9AbmTm/b2yHhV54mivax/sQgTMpFzY+XPfbdc/d8bvfpV3XFni9CHTDvYh4GmzPnj0tQcS2VzwA6I477rAP04GN/WyvtIcjCSIJIjOIMTCgBSyajD888X94aDPajBhILwY0P6rJiJH0YoRzn/+5r4ggCsHAvW14pQJIichwdMkNtp5qD5nBQ12wHRVP3XTrZvN7pnq4W2Hd/kGEkf10ZfIdY0c2Mew1HFHj89v1z6WPqKPfb4cOHWxGUepg+y6ymXIediRBjEEO6Jzy75zyPQdawKLJ8q0n+ydWiQFioJgwoPlRTVZMY6KuXIOlhoFMCWIY6XCJWViZqpAXih7ZHivIJx4U9Pzzz9uHAiEDe/PNN5u//e1vFRJCXxcSRBJEZhBjYEALWDRZqf0ocDwMdIgBYiCXGND8qCbLpQ5smxgnBqIxgG2PflbQJxZR58gKzp07NzZZiWqzMtcKRY/K6F5RHWQHsS0W22dnzZplLly4ENvemGPMtbseNH/8K7cAvmuF/DI8j15ktE9x2kfDvibj/Bbn/HLeOG/EQH4woPlRTcb5yc/80O60OzCAB8icPXvW/PDDD7FJR0XEhtfLvz8yHzbB3GKOMdfuutf8MQlijAyTa0x+Lz2Hqi0QTca5L72555xyTomB3GFA86OajHOQuzmgbWnbTDCwY8cOe08bHsjCT+nZAE9AxRz7WND8MQkiCWI5oPjAScu5tkA0WVrswXEyoCAGiIFsYEDzo5osG32xDWKWGCAGiIF4GND8MQkiCSIJ4iUMaAtEk9HxxHM8tBftRQykGwOaH9VkxEm6ccL55/wTA/nBgOaPSRBJEEkQSRCJAfoBYoAYyBkGtOBDkzE4zE9wmCa7Hz161L4DDu+TK9YPnkCJcaRp3jjW3PoGzR+TIDIooJMhQSQG6AeIAWIgZxjQgg9NxiAwt0Fg2u37pz/9yXz88cf2/XzfffedKdYP3i+IcWA87px+8MEHZuvWrebtt9/O6IOyqOO2we/pXIOaPyZBZFBA50CCSAzQDxADxEDOMKAFH5qMwWk6g9OqmvcTJ06Yb7/9tmiJoUtoMQ6Mx7Xdhx9+aF9T8b//+78mkw9eFI86bhv8ns41qPljEkQGBXQOJIjEAP0AMUAM5AwDWvChyRicpjM4rap5P3/+fEmQQyGKGI9ruyNHjmREDF3yiDpuG9n6fvLkSbN///6ctJ0tHdnOL/5G88ckiAwKuIBJEIkB+gFigBjIGQa04EOTMWD7JWCjLbJvCxLE/8ss4v17QhI1gtiyZUvTuHFj06RJE9O2bVszduzYWJnGlStXmlq1apm777670ltYoVerVq0Cn/T+++9Xui2upYrXkuaPSRAZFAQLMO2LSFsgmiztduL4K3a2tBFtRAz8ggHNj2qybNhsxowZ5pVXXrEffN+wYYM5ffp0lf/OVVaP9957z4wePdogA1ORPbA9MJNyFbWTlus+QcS9fJs3bzYzZ840CxcutPaW7Jx/PHTokFmwYEGZz1/+8pe8ZiQrk0F88803DQigkESNIFavXt2Oc/369Wb27Nm2/D333JMxSXzyySfNiy++WCF+o3CHdVCzZs2gjccff9xMmzYtOI+qy2u/+N5MbaH5YxJEEkQuuEsY0BaIJst0wbFcfCdFm9FmxEDpYUDzo5osG3M/fPhw+yJobG/DC6GnTp1qli5dWuW/c5XVA2R2165dGek7d+5cs2nTpozKZsO2xd6GTxBBDkEM8cAXEJJJkyaZL774QiV9IEuw9ZkzZ4LP119/rZb1yWWuzuMSRCGHOEZlEEEQ9+7dWwZXIJVDhw4NZPhjYuLEiaZr165mzJgx9omwwAdI3B133GEefvhhM2LECFse5HrYsGGmS5cuZsKECebUqVNWjgfkPP/880GbqN+vXz97b6VLEF977bWgTWQzix2Hhai/5o9JEEkQudhIEIkB+gFigBjIGQa04EOTZSNwAjFzXwGAVwKMGjXKjg1BLba/7dmzx7z++usG2RMQMmQZQRTWrl1b5smQx44dM6tWrbLXtm3bFtgnTO7qH6UHykm/yEqtXr06yARCx+XLl5fRF2NYtGiRlctTJ7ds2WLGjx9vXn31VbNu3bpAN1cHfi/7Z4tLEEHuQAgvXLgQkDzMP/5U0AjdG2+8YQ4fPqxe08pXhSyKIH7//fcBCQQZ1Mgh5GEZRJ8gYvz33XdfgDNs/2zXrp2ZN2+eJX7Ykgq8wYYNGzY03bt3t3/MAK8333yz6dOnj11Hjz32mOndu7ct65JAwWq1atUM1pd7DetT2sT6lbI8lsV3Ento/pgEkUEBFxsJIjFAP0AMEAM5w4AWfGiyJAGO1PWJGbIXI0eOtGPDlkxsfcP2T2SDcI7thdhGBwIIsobtqWgLrxB46aWXLPkCaUC2BK8FCJNL/3KM0gNlZs2aZT/oF+QPZAWZFegkmRd8R+Zl/vz5Vj+Q2ilTplj9Dhw4YKZPn27r7t69O2dzJ+MphaNLEJE1BAZdIof73EDOXZl8F8zgOrKJn332mVpOylfFMYwg/vTTT3ZbqGQKw8hhHIK4fft2S/SAg40bN5o777wzyARChi2o6Aff/e2g+ENG8LNmzRrzm9/8xp67JFCuawRRa1PK85gdkqj5YxJEBgXBwk37QtMWiCZLu504/uw4ZNqRdkwLBjQ/qsmyYQ8QM2Q/kO3BNlNk2OT+MhCuIUOGBFlCkCxk4dx7FCdPnmzrI7OCtvAydeiFzB7Khcl93aP0QL8gn7LVDnWxNQ9ZQZ8gDh48OMguon9s85PXG3CLaTwf4hJEzCeyXy6Rg11Bwl2ZfEcWC2Qe8wOCBJyEbUeVOrk+hhFEN2OIPxiwPVTIIq65n0wziMik46EzwCr+RMH9gSCF8qlRo0bw54pPEGFnPOwG9W+//Xb7QTskiPHw6/uYbJ5r/pgEkQSRBPESBrQFosmyuSjZVuE4SM4F54IYyA0GND+qybJhfxAzkD5k/EC6sCVNiJhLvtAXXiiO8gj25YNzyHF9yZIlNpuHe6CQcRQiGSZ39Y/SA+0jc+mWX7ZsmcHH1dH9LmWRDZUttCSI8fDqEsSPPvrIZpJdEgeyhLl1ZWHfkfXFHxFh16tCHkUQXZIYRg5RJlOC2KtXL9OtWzeLWeCuWbNm9k8Y/BEjH/njwiWI2HJ64403mhUrVlhsA/sgicAzMra431GwjfV11VVXldtiiutum1Kex3j4j7KX5o9JEEkQg8UZBZ40XNMWiCZLgy04xuw5XtqStkw7BjQ/qsmyYScQMyFQfns+4UJGCNkQZAndjxBK1EemCVtMQSCRRZE2w+RyPUoP9Pvyyy8HbaEOspy4F9HV0f0u7ZIgVt6fuAQR2T88MOWrr74KSB62ECM76JM7vJT+3LlzZeQgPth26ZetyvOKCCIIILZEuxlD/3tFBBEkDpjDaytkqyhkOIetgEts427durXNCOLcJXPYSi33J+Ja3759A4KI82uuucbeqwhyiKf3Xn755SpB7NixY5mH5KAuP9mzgeaPSRAJMi4yZhCJAfoBYoAYyBkGtOBDk2Uj4IsiZj7hwjmCX2z5RN84R0CLI7a/4Z5E0QkZENwLGCaXcnKM0gOZFtxnKA8CQZAOPdC2q6P7Xdp1CSK2Q7qkVcrwqAfOLkEEkcPTbf/4xz9akvf555/bJ966RBBE6Msvv7TXce8n5gP1cP8h/jAAqalKQuj3lQlB9Amhfx5GEJHZwwdbSfFAGvyp4eJq8eLF9p5EbBtFmf79+wfXXYIIm+GJpnXq1LHEsHPnzmUIIu6jxX2HaAMEMeweRBDy2rVr28ylqwe/61iPaxfNH5MgMigIFnVcQJVaeW2BaLJSGzfHkx0HSzvSjsSAjgHNj2qybNgviphphAvZQdwPiC2pIG3Y5gk9EPzj4TV4rD4eIIPrIAxhcl/3KD1QVvoF0UBgLNkYV0f3u7TvEkQQTDyhFfdZynUedQzCLj5BBNHDVl+QP2QTd+7cGRA+POUUc445ADHD6y1AZpD5hRwPBvIJW1Wf+wQRul68eDEyY+gSRJRFncpiBpn2ffv2ZdQG/vyQJ/D6/aEd2Z7qX3PPsfbC2nDL8Xv4GgizjeaPSRBJECvtHMKAVqxybYFosmIdH/WO7zRpM9qMGEiOAc2ParJ82RqBJ7alYjuerwO2nmpBdJjcrx91Lv26W1qjyoddw3bXsGuU/4JfnyAKocML77V3GmJrqZTBEedhZd1yVfXdJ4iYa2AVWcFMPhquiZdf8JImW2j+mASRBJE/LJcwoC0QTZYmp8GxpvPHgvPOec8mBjQ/qsmy2SfbIoZ9DCBL5ZO+qiJz2e4H48gk6+bbgOdcFxoGNH9MgkiCSIJIgkgM0A8QA8RAzjCgBR+aTAtcKGNAmy0MIEN84cKFoieJIIcYh5bxzpat2E661p3mj0kQGRTkLCgoNgejLRBNVmzjor7pcvScb853oWFA86OarND0pj6lt5ZAqpB5w/bMYv1Af5LD0sNmPv2N5o9JEEkQSRAvYUBbIJosn4uYffNHgRggBooNA5of1WTFNi7qy7VIDBADpYABzR+TIJIgkiCSIBID9APEADGQMwxowYcmK4VAi2MgYSAGiIFiw4Dmj0kQGRTkLCgohQWiLZpiGxf15Y8VMUAM5BMDmh/VZEl1xKP0d+3aZd555x1+aANigBggBhwMwDfCR2p+VvPHJIgkiCpYNACVukxbIJqs1O3A8ZFMEAPEQDYxoPlRTZakTwQ+hw8fNh9//LH59NNP+aENiAFigBhwMADfCB+pkUTNH5MgkiCSIF7CgLZANFmSIIZ1GXgTA8RA2jCg+VFNlsQu+Hec5JDEmH8OEAPEQDgG4CPhK31fq/ljEkQSxHJA8YGTlnNtgWiytNiD4ySRIQaIgWxgQPOjmixJX9hWysAwPDCkbWgbYoAYAAbgK31fq/ljEkQSxHJA8YGTlnNtgWiytNiD4yQ5IAaIgWxgQPOjmixJXySIDH5JgIgBYqBiDJAgkviR+MXEgBawaLIkQQzrMuAmBoiBtGFA86OaLIldfIL40UcfmW3btpXJKn7wwQfm4MGDZWRJA8rjx4/be3rkiH7XrVtnP2+//bZ9X10mfezbt88MGTLEbN26NbZ+eCfe3r17I+u5er311lsG+maiV67K+PqcPHky5/rE7RP3a7355psZ6yUYkGMubBdXpyQ6VGVfvp5hfWP9Yh375bXzsDa0smmSkSDGJAdJfphYtzQCPi1g0WSc79KYb84j55EYqBoMaH5UkyWZD58g4kEMrVq1KhNILlq0yAwfPryMLGlguHLlSjNu3DgjR/Rbr149M2rUKDNw4EDTrFkz8/LLL1fYJ3Rdvnx5xoTS1RtEtE+fPraPZ555Ru3L1WvYsGGmadOmBkTRbUf77rfnn2t1MpG5+gwdOtQ0adLEkupM6la2TNw+9+zZY2bNmhVpI9ceggE5VlZP1HPbddvJRCe3fJLvSfoK0z9TfcL6xrpasmRJ5JxIH2FtyPXKHJOOqzJ9ZrsOCSIJIjOIMTGgBSyaLEkQw7pVE5DSzrQzMVA4GND8qCZLMmdxCSLKT5w40bz++uvmk08+sQHnsWPHzOTJk82rr75qTp8+HQShWlkJ2oQMyBEkxCWmyFq1bNnS7NixI7SPxYsXm7p165opU6YE2RFkFKEfdIFd0N+RI0fM2rVrA73mz59vzp07Z4QggmBKO8gqio44+npt3LjRDBgwILJdvz3/HO0imwO9p02bFmQloef69evNwoULzYQJE+yTE11dNH1g49///vd2jKg7c+bMgDDGmZeoufJtIH1GjQP2DhuPbw/BgBz9MWu6aWPz23XbEQyE6eSXhS3RHv7EAKZwXeq6Ng6bR8GbpifaEjnWs2AuSn/RD1l2zAfOsTagJ76fOHHCLF26tAzWDx06ZNfCggULzMiRIwOCKH3761X6qMhWYgfNPjJutCXrLJNxSd+FfAQOfV+r+WPegxiTRPhG5XnhBCFJ50JbIJosaT+sXzqY4VxyLomBijGg+VFNlsSWCHrcoMwnA7gmGURce/TRR82aNWvsts65c+fa4Pbhhx+2wSDOQfLwxD+trNsPtkZiK5sctX5nz55txowZE9rHzp07zf33329A2kBMEaw/8sgjdnsjso/dunWzYxMiKP23aNHCBnoi3717d9AOiKmUwxF6gahi+yMC4759+9qx4prUl/LSrt+efw5C0LhxY0sEQbSRBcQcor0HH3zQzJs3z8yZM8dmK6VtOfp2whbZdu3a2bqwBTJ3Bw4cCLWZNi+aTPrDMazPqHEgMxs2Ht8eggE5+n1nijm/Xbcdmaswnfyy9957ryXvIDcPPfSQtQHq+jYOm0eMH/bR1gbkyERj7rFmgC/0H6W/6Ic6IK0479mzp2nTpo39LnIZJ/DasGFDSwpnzJhh6tevb7+H6STt4yhthNkK8jD7SEYe7YStB7evYvpOgkjiV+4fgiQ/vmmoqwUsmiwNtuAYKw56aSPaiBjIDAOaH9VkSewZhyDiMe8I+nCPomQPEeC+8MILNrhFgPv000+b7du320fC+2WjgkGfhKAsMkpoO6wPlEGA7rYLvdAW7oED2cI1CXilnASurtxvR8qirbvuusuO68knn7QEWbKabn2Ul3bx3W/PPcd4QHylD2wVRTYU7fXo0SOQgxidOnUqOEd56AOSMn36dJsdat68uc10oW6vXr2CsmE20+ZQk4luUX1GjUMIYth4XHu4ffnfNd3Cxoa6Ye3KXGViY5R54oknAluCYCGjq9k4bB4x/jA9IReSJ/Y9f/687c/VH5lLbA3FBxl6lEWmsHXr1nb9tW/f3uISxLp79+4Gf5jIOPFHgdsHtnhii2mYTq7dpQ0ctfmDPMw+GkGMmhe330L/ToJIgkiCGBMDWsCiyZIEMaybWUBJO9FOxEDpYEDzo5osyZz7BBFZPRATN1jDFjUEqZBhC9mzzz5rs17IJCJwRaAKIicfEEWtrNum/10jiJMmTbJEKKoPP6BGNqZfv372/sUGDRpYPSTglT5BqmAzV+62I+Vw9PXCuWR83PooK+3iu9+ee46tpe49eiB72O7nt4fsEDJBvj7IaCGriy2F0AfX/bpRNvPnEPU1mfSLPrQ+KxqHr5M7Htce0k/Y0dctamxh7YoucpS+XJ1EhjLAuJyvWLHCgMT7dSsaf5ieqAeiJu27R1d/zL374CYp17ZtW5vFxz2x8AfAArCH66Ij+nYxhrIgiGE6SdtuG9KWXBNbQZ6JfaLWg7RZTEcSxJjkIMkPE+uWRiCjBSyajPNdGvPNeeQ8EgNVgwHNj2qyJPPhE0RkMpB5w4MqELzhXr1OnTrZ4BIZDQSHkOOIbCGC9969ewfBLoJQbPfUykYFgz4RQ+YIpOTo0aOhfaA9N6AGyYJ9IMdTG5Fpw3eMBcEtvmMb6q9//WuVIGJrLMq4H18v1EemMKpdXINebnvuOe4b69q1a9APsjGbN28OgnvpXwJyOcfR10euYT7c7E2cealorsL6rGgcvk7ueFx7yBi0o6Zb2NhQP6xd0UWO0perk8hQBmsA2IcM95xiC6dft6Lxh+mJesj4oW1kvEePHh30Faa/6IYjSB62qGJrNeYGW5TxYCdcEx2RQReMoY/f/e53dg2H6eS2L23IUa6JrSDX7BO2zlA/k3FJP4V6JEEkQWQGMSYGtIBFkyUJYli3agJS2pl2JgYKBwOaH9VkSebMJ4gIzvCUzkaNGtn7CREI4jUSCDKRXcQ9fiCMyA5s2LDBBqWDBg2yBAyZDdwXFVU2LPhDoHv77bfb7Bzu20JW0n3dhtYH2kLgKW2iDegF4ortlpJBhD6QIajGljn3nj8hVdiOh34xRmkPR1cvZA7RvrzCIaxd1PPb88+RbcUYcf+gPCE2LCD39XEf5iPX/LqQazbT5lCTSbs4wgZan7gWNQ5fJyEYqOfbw+3P/R6mmza2qHZFFzlKH65OIkMZYPnxxx83HTp0sNgB2ffronzU+HE9TE8QOmwVBaZgC+k7E7uANGOtCIHFHykgfmhDdAQ2keUDvjAO4F+eYhqmk+ggbchR5GIryDX7xFkP0mYxHUkQY5KDJD9MrFs4gUiSudACFk2WpA/WLQ2scB45j8RA5hjQ/KgmS2JTjSAiaEOwh6cd+g9tgRz3QfmBHXRwn2AqbWhl/bqZnmt9+HXD9EO5M2fOlNPbre+P1b0W9T2sXb89/1zmLartpNc0m2k20mSZ9l3Zcfj2COsvTDdtbGgj03bD+hNihH7xUJewciL3x48/ECSjhzJhekJ+9uzZcu0n1V/0whH6y/2NrjxMJ7dM2PeK7JPpeghrv1DlJIgkiMwgxsSAFrBoMnGiPGYeINJWtBUxkF4MaH5UkyXBSBhBLNQgjXqV3QJLe2TfHkKAKmNbbEFG5hrbPytTvxjqJLFPMYwvTEcSxJjkIMkPE+uWRuCjBSyajPNdGvPNeeQ8EgNVgwHNj2qyJPNBgph9ghEWYFJeHLZG5lDL7GUyf6iLTyZli7VMEvsU65ihNwkiCSIziDExoAUsmixJEMO6VROQ0s60MzFQOBjQ/KgmSzJnJIjFQVqKObCm7sRYKWCABDEmOUjyw8S6hROIJJkLLWDRZEn6YN3SwArnkfNIDGSOAc2ParIkNs0lQcQDRuSBLqUQIHIMJDrEQHoxQIJIgsgMYkwMaAGLJksSxLBu5kElbUVbEQOlgQHNj2qyJPOdlCDiBdxu0Oye47H37rvY3HL8nt5Am3PPuS9GDJAgxiQHSX6YWJdBDDFQGhjgPHIeiYHsY0Ajg5osie01ggjZxIkT7bvf5H4qPNEU71/DuwblaaXLly83devWNXjxN56W6J8fOXLEPn4fR7z7beHChWbChAllXiVx6NAh29eCBQvMli1bzP79+y3h1HQoxqCSOpMMEQOlgQESRBJEZhBjYkALWDRZkiCGdbMffNKmtCkxUNgY0PyoJksyjz5BxDvvHn30UbNmzRr7/sO5c+da8od3BM6fP9/gHO/Ew3vhdu/ebV9Gjyc24tH8/rk87RBHvE9x3rx5Zs6cOfZ9hAiaP/zwQ9OwYUP7frYZM2bYtvCuNk0HBtmlEWRzHjmPxYoBEsSY5CDJDxPrFnZwkun8aAGLJsu0PZYrDVxwHjmPxEAyDGh+VJMlsbNPEHft2mVatGhhX1Iv2UOQQrwQHAQQH7x0e/v27TbT576oHoGfe+4SRLygXgJDENBTp07Z7afjx48P5HixNwiipoPU5ZEEgxggBvKBARJEEkRmEGNiQAtYNFmSIIZ1kwWatB/tRwwUHwY0P6rJksytTxAReK1du9aArDVp0sRmErG1tH379pYkgigKWURZlxD65y5B7NOnT0AE27RpY44fP263piKjKMHesGHDLEHUdJAyPJIcEAPEQD4wQIIYkxwk+WFi3eILWLQ50wIWTabVpaw0MMB55DwSA9nHgOZHNVkS2/sEcd++fQbEDgEYjsgWgjD27t07IHLI8sl9iCCI2G4qAZt7XhFB3LRpk+nQoYOtjzGAkKJtTQdkM/FUVOmHR5IEYoAYqEoMkCCSIDKDGBMDWsCiyZIEMayb/eCTNqVNiYHCxoDmRzVZknn0CSJI2COPPGI6depkmjdvbjZs2GBJ2aBBgwwyf23btjU9e/YMXgY+btw4g/sThby55xURRAR3yE5iS2vHjh1t1hIEUdMBpLFevXokiJ+SFFQlKWBfxJtggAQxJjlI8sPEuoUdnGQ6P1rAoskybY/lSgMXnEfOIzGQDAOaH9VkSezsE0QEQ8jWnThxohwZQz+SOZSgCUc8oCbq3L3mfkc/uKdRZMhSIluJc00HyKQsjwzciQFioCoxQIJIgsgMYkwMaAGLJksSxLBuskCT9qP9iIHiw4DmRzVZkrnVCGJVBV14UA3ubezatavp3Lmz6dKlizl37hxJILOExAAxUHAYIEGMSQ6S/DCxbvEFLNqcaQGLJtPqUlYaGOA8ch6JgexjQPOjmiyJ7fHEUPcewqoih24/eE/iyZMnCy4gdHXkd2ariIH0YgA+Er7S97WaP/5VJoX8MjzP/g8obZp/m2oLRJNxrvI/V5wDzgExUDwY0PyoJksyp3jnIO75yzdJZPCd3uCbc8+5L2QMwDfCR8JX+r5W88ckiMw0lgOKD5y0nGsLRJOlxR4cZ/EE4JwrzlUhY0Dzo5os6RgQ+ODfcWyh4oc2IAaIAWLgFwzAN2rkEH5X88ckiCSIJIiXMKAtEE2WNIhhfQbzxAAxkCYMaH5Uk6XJJhwrfQAxQAwUCgY0f0yCSIJIgkiCSAzQDxADxNYZmU8AACAASURBVEDOMKAFH5qsUIIl6sHAnRggBtKEAc0fkyAyKMhZUFBsi0tbIJqs2MZFfflDRwwQA/nEgOZHNVk+dWTfXCPEwP+YY8eO2W2I7777ruGn9GyALaaYYx/rmj8mQSRBLAcUHzhpOdcWiCZLiz04TgZMxAAxkA0MaH5Uk2WjL7ZBzBIDlcMAiMPZs2fNjz/+aH7++Wd+StAGmFvMsU8SNX9MgkiCSIJ4CQPaAtFk/PGp3I8P7Ua7EQPpxIDmRzUZ8ZFOfHDeC2PekV0iOSx9Yow59h9Wo/ljEkQSRBJEEkRigH6AGCAGcoYBLfjQZCQKhUEUOA/pnAdsKWXmsPQJIuYYc+2uc80fkyAyKCgDEhcwafuuLRBNlja7cLzpDBY475z3bGFA86OaLFv9sR1ilxiIj4FMCCIyT506dTL333+/ad++vdm2bVuVksoOHTqYL7/8Mmd9fvXVV+af//yn2v7XX39thg0bZh544AHTpEkTM336dPOvf/1LLesTbb9d9/z06dPmlltuMf/4xz8yastvuzLnJIgkfyR/MTCgBSyajD888X94aDPajBhILwY0P6rJiJH0YoRzn/+5r4gg7tixw9SuXdssXLjQHD9+3KxevdrcdtttZtGiRVVGbGrUqGH+/Oc/56y/bt26mSVLlqjtN2/e3AwZMsScOXPGHD161LRs2dKMGDFCLeuTNr9d9xxbPvGOQr9OLs9JEGOQAzqn/DunfM+BFrBosnzryf6JVWKAGCgmDGh+VJMV05ioK9dgqWGgIoJ41113mZ07d5YhMsh+XXvttTb7hczbpEmTbGJi0KBBZtSoUeb8+fNBeRChBQsWmP79+5tZs2aZH374wV6TeidPnjSoN3bsWPPFF18E9VyiJAQxqo5cw/z4euDauHHjyrQ9evRoc/HiRUt4f/vb35o2bdqYOXPmlCnz/fffmyuvvNL8+9//DuSffvqpWbZsWXAeNj4Qabdd/9zVSXQPswX0eO2110zfvn3Npk2bzMaNG82hQ4esDn/961/N1KlTzYABA6zctZv/nQSRBJEZxBgY0AIWTVZqPwocDwMdYoAYyCUGND+qyXKpA9smxomBaAxEEUQQwVtvvTUgQy7haNGihdmyZYvd+nnNNdeYdu3ambVr15pXXnnFZhw///xzW++pp54ynTt3tsSmX79+NgOHdrBlFPX69Olj3nrrLfPMM8+YRo0aqX0JQYyqI9c0PXCtVq1aZdq++uqrzXfffWezghgLSOW+ffvKlIGe2FY7fPhw8/e//73cNVwPGx+yjW67/rmrk+geZovHHnvMdO3a1drpueeeM3feeafN6II4Ips7e/Zss3XrVnPfffeZDRs2qHpCVxLEGOSAjiPacaTBPlrAosnSYAuOkeuBGCAGsoUBzY9qsmz1x3aIXWIgPgaiCCK2QGKLJciF/+nevbvNDILcXHbZZfY1ClIGRHDMmDH2tQp169Ytk4F78MEHzcGDBy1BvOKKK4J78JCJq1atmvnmm2/K9eUSxLA6UXq4ZEx0FIKIc3frp1yXI7KaIG7XXXedadq0qR2z3IOI10aEjU9r1+3H1Qnfw8aFTGGdOnXKPGn23nvvtQTxk08+sXrhPkn09+2335axtYxBjiSIJIjMIMbAgBawaDL+8MT/4aHNaDNiIL0Y0PyoJiNG0osRzn3+5z6KICLrVa9evXKEDYQDD6tZs2ZNkAkUEoLj8uXLTceOHe0RxAqkUD7YmrpixQpbz8/q3XDDDeq9hi5BDKsDkoWMpKaHS8bkeqYEUcqDwG7fvt00a9bMZhtlnGHjw3WXEPrnrk7ud+lPbCG2FDmOPXr0sAQR33E/5PXXX2/nA/dRutth3Tr4ToIYgxzQOeXfOeV7DrSARZPlW0/2T6wSA8RAMWFA86OarJjGRF25BksNA1EEEffogQCdO3euDPFClq9mzZrms88+s0QP9+mhrBASrPNevXrZe+JatWplkOFyPygbRYqkHTlmShDD9MDTQ9GGtPfTTz+Zq666ym4xhcwnclIO9Q4fPhzUgxz3V+KhPfiOewHDxqe16/bjjt/9Ln0LQdy8ebPdqipyHFu3bh0QRJzjSajYYgoSPmXKlDL6uvVIEEkQmUGMgQEtYNFkpfajwPEw0CEGiIFcYkDzo5oslzqwbWKcGIjGQBRBBLnAax0aNGgQPHgGZAb3+eFeOFzHObaYzpgxw57jgSt33323WbdunQHBApnCVkyUxX18yCyiThQpckkNvmdKEMP0QBsgtO+8844BOZw5c6a5/PLLA4L47LPP2ge9+P3iyanY9nrkyJGAdIGA4XUXKBs1Plz323XP3fG730UHIYi4T/Kmm24yq1atsvriHsPq1atbgnjq1CnTr18/OybUGz9+vN0OK234RxLEGOSAjiPacaTBPlrAosnSYAuOkeuBGCAGsoUBzY9qsmz1x3aIXWIgPgYqIoggVHhKJjKJIC3Yxjl48ODgnjghN5Dh3jiQmYEDBwaECu9MxINu6tevbx8Ug3sTQVyknktihBS5sv/f3p39ylKVbxz/3XhhYpwSjUO8MCZON8YYNfHGaDRybRSjd5iIIogigoBAEBQVVCaZHKIiBKIoKIpMghMaJ+Jw7d9Sv7ydXrvr9Hl6OFhVe9fZn4ud6n6re9Va7/qup9/nrOo+9Xhfg1i3n27qR/3yaN1WWuMoM9u/xbT+n8fqd+3MrV+7boetftWvuVb79f8hFmftdZvGV+fX2+0/74+//7i1289F/fci1bf6LmL9GuyZZ565MIh122v9ANCrX/3qxY/pVI7Xd3tbe3VkEBlEO4inwEAqWFLMB8+pf/DImZxh4PgykHQ0xTByfBkx94c/97sMYjMY9d22+i8VypS0WB375qZuPU0/MlM/6lK3o9avbvbfO+TjffvRvxW2f/0ywrX72Y+1xzX22k3c9N9wbBvfervrz9s1th3Xr3vGGWcsdhTbe+r23drNbM83HRnEUzAHxOnwxemw5yAVLCl22P10faxiAANzYiDpaIrNaUz6ag2ebgzsaxA3mY6+Mdv0miniR6UfQ4+1zGf9UNBZZ521+FGg2oF9+ctf3v3nP//ZaQjX+8IgMoh2EE+BgVSwpNjp9qFgPAodDGBgTAaSjqbYmH3QNsYxsJ2Buu1xfVdw3Vhse167gtdee+0pm5VtbT6bc0elH8+m77veU7uDdVts3T57zTXXdM8888wp57vmuOa6vx6SHv9f/wX1OL1o/TWeb19k8jPP/CT2U8z8znN+zZt5w8DhMJB0NMXMz+HMj7zLezFQPyDz9NNPd//9739P2XTsMjbOn/z/Rx5GTmpua45rrvvrPukxg3gKO0z9ZHp8+glqWiApZu5Pv7k3p+YUA+MxkHQ0xczBeHMgt3K7DwP33nvv4jtt9YMs/k6/HNQvoNYcr7OQ9JhBZBBPAmUdnOPyPC2QFDsu+TBOBQUGMDAEA0lHU2yIa2kDsxjAAAZOjYGkxwwig8ggLhlICyTFCM+pCY98yRcGjjcDSUdTDCfHmxPzb/4xcDgMJD1mEBlEBpFBxAAdwAAGRmMgFR8tduedd3b+5AADGMDA4TBQprzpcd+gM4iKgtGKgj5oc3icFkiKzWEs+ng4/won7/KOgZMZSDqaYnJ3cu7kRE4wgIGxGUh6zCAyiAzikoG0QFJs7IWqfR8GGMDA6cRA0tEUO53GbCzWMAYwMBcGkh4ziAwig8ggYoAOYAADozGQio8Um0sxpZ8Kfwxg4HRiIOkxg6goGK0omNviSQskxeY2Lv31QYYBDBwmA0lHU+ww++ja1ggGMHBcGUh6zCAyiAzikoG0QFLsuAqIcfvwxAAGng0DSUdT7Nm07T2YxAAGMPC/MZD0mEFkEBlEBhEDdAADGBiNgVR8pJgi738r8uRP/jCAgWfDQNJjBlFRMFpR8GwgPcz3pAWSYofZR9cm/hjAwNwYSDqaYnMbl/5aixjAwOnAQNJjBpFBZBCXDKQFkmKngxgYgw81DGBgKgaSjqbYVP1xHexjAAMYWDGQ9JhBZBAZRAYRA3QAAxgYjYFUfKSYgm1VsMmFXGAAA1MxkPSYQVQUjFYUTAX2UNdJCyTFhrqedog/BjBwHBhIOppixyEXxmjNYwADR42BpMcMIoPIIC4ZSAskxY7awtYfHzYYwMBRZiDpaIod5THomzWGAQycrgwkPWYQGUQGkUHEAB3AAAZGYyAVH/3Yv//9786fHGAAAxiYloFmePt63GIMoqJgtKKgQTaXY1ogKTaX8einf+3EAAaOAgNJR/sxReG0RaF8yzcGMFAMtM+Hvh63GIPIIB4A0qA4rse0QFLsuObHuJkNDGDg2TCQdLQfU6wqVjGAAQxMz0DT874etxiDyCAyiEsG0gJJsbZ4HBXLGMAABnYzkHS0H1MYTl8YyrmcYwAD7fOrr8ctxiAyiAwig4gBOoABDIzGQCo++rH/pVB917ve1b397W9f/L373e/uLr/88u6f//yn7zT6XicGMHDsGLjsssu6+ttXU5sZ7OtxizGIioLRioIG2VyOaYGk2FzGo5+7dzbkSI4wMD4DSUf7sVbM3HHHHd1VV1218a/Ot9e24/Oe97zu1ltv7e69997utttu6970pjd1H/3oR096XXu9o10TDGDgdGXggx/8YFd/+46vff719bjFGEQGkUFcMpAWSIq1xeM4fmEpx3KMgfkzkHS0H2vFzNNPP91dffXV0SBWvM6317ZjGcTHH3/8IP7AAw90L3nJSxbP//rXv3bnnXde98Mf/rB7//vf3z366KPdM888011xxRXdmWee2V144YXdn//854P31rkrr7yy+9CHPtRdeuml3d///veTztX7Lrnkku5vf/vbwbmnnnqqO//88xfvu/HGG3fGN/Uh9XdT2238jswOBjDQGGAQmTqmbgQG+gVLK0pTrJ1znH/hag7NIQbGZyDpaD/Wips6lplLu4gV77+uPV43iA899FD34he/ePHamtvnPve5Xd16+uUvf7n7wx/+0L3nPe9Z/N1yyy3dRz7yke4Nb3hD949//GPx+nauTF4Zwbe+9a0H16xzZ5xxRnfzzTcvztVtrdWHMoqveMUrFoby9ttv7173utd1N9xww8Z4vaddZ70P6/194oknYttt7I6MAQYw0GeAQRzBHCgSxi8SjnqO+wVL62uKtXOOmMEABjCwm4Gko/1Yv8Apw1Vmrm8S63l/x67/+jKId999d/fII4909913X/eOd7yj+/CHP3xgEJ/znOccvPfHP/5x97KXveyEncG3vOUt3XXXXdfVuVe+8pUnfH+xdhNrV6/OveY1rznh3Bvf+MburrvuWuxKvuAFLzjY3awdyfoOZO1Wpvi2PhRL/f5uaqM/fo8ZBAwcXwbq+4bNFG46bvtOYvv86utxi7nFlNm0G7lkIC2QFGuLx3F3YShHcoQBDCQd7cfWC9z777//BINYz9df056XQSzzVjt3b37zm7tzzz33YEew2HvhC1948N5rr712sXvX3lvHs88+e/FX5973vvcdvLb/mjpXZq9MYft7/vOf333lK19ZvP6ss85aXOed73xnd8011xwYyRTf1of1/lYfUhv9vnl8fM2BuTf3DCITx8RNwEC/YGlFbYq1c44KXwxgAAO7GUg62o+tF7q1A3f99dcvTGIdt/0q6fotpv22am76BvGmm27q3va2t51gAuv7hhdccEFX59pto/026nHdclo7k/UdyP5fuzW1XvOXv/ylq1tMy0DW9xFbG+vxbX1Y7++mNlrckUHAAAb6DLRdxH5s2+P2+dXX4xazgziB8WjJdtxdSBxmjtICSbHD7KNrH22GzI/5wcDJDCQd7cdSAfPwww8vDGId0/kWOxWD+Kc//WlhGO+5555Fm4899lj3ohe9qKsftlk/V7es1s5k/VDNH//4x8X3Guv20LpufZfxve997+Ifbh988MHFdxL/9a9/Lc6dc8453Qc+8IFuU3z9Ov0+FDt9Q7upjTZ2R+YAAxjoM8AgMnV2FEdgoF+wtCIvxdo5x5MLQTmREwxgYJ2BpKP9WL/A6T9uRq4fW398Kgax3lv/VUb9qEzt9L30pS9dmNDWZp2r7yi+/vWvX/wS6je+8Y0Dc9re99rXvnZh4urW1Hpf/SJp/XjNq171qsX76nyZ2k3xbX2ovPUN4rY2Wp8dGQQMYKAxwCCOYA7WP9A8P35FTr9gafOfYu2c4/FjxJybcwycOgNJR/uxVtxMdaxbVuu/xujfItqu3c71/4uL/rn6ZdH0gzl162ntNLbXtuOmeLtO6kN7bztuaqOdd2QQMICBYqC+k9j/UZqLLrro4EdsLr744pP0qX2e9fW4xdxiymzajVwykBZIirXF43jqhaKcyRkGjh8DSUf7McWt4hYDGMDA8Aw8+eSTix+6qh+7qsfrOW6fx309bjEGkUFkEBlEDNABDGBgNAZS8dGPrRctng9fKMqpnGLgeDJQ35muvzT/zQz29bjFGERFwWhFQYNsLse0QFJsLuPRz+O3U2POzflRZCDpaD+WChex41nMmnfzjoHpGGifF309bjEGkUFkEJcMpAWSYm3xOCrGMYABDOxmIOloisnl7lzKkRxhAANDM5D0mEFkEBlEBhEDdAADGBiNgVR8pNjQRY/2FNIYwAAGdjOQ9JhBVBSMVhTMbVGmBZJicxuX/u4WRzmSIwyMx0DS0RQzB+PNgdzKLQYwsImBpMcMIoPIIC4ZSAskxTYtMHHiiwEMYOBkBpKOppjcnZw7OZETDGBgbAaSHjOIDCKDyCBigA5gAAOjMZCKjxQbuwjSvkIbAxjAwMkMJD1mEBUFoxUFc1uEaYGk2NzGpb8ni6GcyAkGpmMg6WiKmZPp5kSu5RoDGGgMJD1mEBlEBnHJQFogKdYWlCNxxQAGMLCbgaSjKSaXu3MpR3KEAQwMzUDSYwaRQWQQGUQM0AEMYGA0BlLxkWJDFz3aU0hjAAMY2M1A0mMGUVEwWlEwt0WZFkiKzW1c+rtbHOVIjjAwHgNJR1NsiDn44he/2P3kJz854XPtySef7K644ooTYvtcq9qq99VfPf7ud7/b/e53vzvldva51lF8zW9+85vu6quvPrTxVs5r7o5ibvp9uuOOO7p777039nPbuX4b64+f7fvW2/F8PF07nXKb9JhBZBCjqJ1O4O87lrRAUmzf9ryOMGMAAxj4fZd0NMWGyNUnP/nJ7tOf/nRX5qa198QTT3Qf+9jHDp63+K5jtVWF/wMPPLA4Xnrppd2NN954yu3sus5RPf/4449355577qGNt/Jfc3dU89P69dWvfrX73ve+F/u57Vx7fzo+2/eltsR8Du1iIOkxg8ggRlHbBdPpeD4tkBQ7HcduTD5AMICBsRhIOppiQ1y/TMU111zTXXvttQefbesGsXYBazfwuuuu626//faNu1TV1iOPPHLQzi9+8YvuU5/61OJ57Wx961vf6u6///6uivlf//rXi93FTe22a15//fXdt7/97e63v/3tQbv9c3feeWf31FNPHZx79NFHu1tvvbWr991zzz07462t9bGl/m5qu81DM4gPPfRQ9/Wvf7276aabTshHna/81bX6u6v33Xdf96Mf/eigr9Ve5eqxxx5bxFofa0zr423XrmPl/5e//GV3ww03dN/85je7n//85wdtbmtj07mWg5rHGs/NN9980Kf+devxprHVuZqf6neNu+akb+a2ndvUr11trvfNc1o9NANJjxlEBvFAcIcGbm7tpQWSYnMbl/76MMEABg6TgaSjKTZEH8tU/OpXv+o+97nPHZiUdYNYBrL+qrgvo3DxxRefYNhaP9YNYpmV8847b/GZWQbiE5/4xOLW0+9///sLQ7Gt3bpVs12zjNEXvvCFg8/eOvelL31p0Z8yHe122DIbtRtahrJ2Mi+66KLu7rvvXhiUFK9+b+rDen/L+G5qo42/3vPxj3+8+9rXvnaQqwsvvHBhhMts1ftrR7X6VmMoI1fv/dnPftZdcMEFB+MrY1evbe1uGm87346V/8rTD37wg8UOXeX+wQcfXLSzrY1N52o855xzzsF4ythdcsklB/1q1902tnpNsdvmq9r4zGc+c7CDuO3cpn7tarP1y5GOj8VA0mMGkUE8SRzHAvCot5sWSIod9XHonw8RDGDgKDGQdDTFhuhzM3VlJGq3r3bJ+gax4mVW+jt4l112WXfXXXed9FlYbf30pz/tHn744cVtpldeeeViJ6/6WWbj7LPPPtjt29ZunSsTUTtIbYy141ZGpM4109XOff7zn19ct3Ylqw/tNst6fbWxKb6tD+v93dRG60MbY92aW9dt8cppvbeet2M9rjyVgW2vqzGVUazntfNYf/V423jbe9uxxt7/bl/tVtbO8LY2tp2rHPTHU7ksA9y/Hblde9PY6nbj9bmssdYtptvObevXtve1/jjS9DEZSHrMIDKIB4I+JnxzaDstkBSbw1j00YcJBjBwVBhIOppiQ/S3GcRqq27NrOv0DWLtRtVOTv9afQPTj1dbVfyX8SkTWbdJNmNZZqP//bxt7da52tnrt90e17m6TpnC9lfPK16vqV25us5VV13V1U5lM5kpvq0P6/3d1nbrW3pP7czWLZr1mtqBrXFVfj772c8u/tp7b7vttsVtofW8DFXtvtbjXeNt769j5aHdllrPy4RWjra1se1cGk/tSvZvI27X3zS2moP1uSzTWgZx27lt/dr2vtYfR3o+JgNJjxlEBjF+aI0J4lFtOy2QFDuq/dcvHyAYwMBRZCDpaIoN0fcyFa3gLzNVxq6MYvuRmir8L7/88hM+9+qWz9qdWr9+v631c+tmY1u7da7dNrreTjtXJrb/14xovb528GonrcxRjaW1sR7f1of1/m5qo8XrmN7TDGKZtfPPP3/xi7F1K2zdRlomsb2/3cJar+vfxrnPeFsblf9mLCtW761bTre1se1cGk8yiNvG1vrQ+ljHMu9lEHedKwb6c1yPa563va9/HY/p+1gMJD1mEBnEA0EfC7y5tJsWSIrNZTz66cMEAxg4CgwkHU2xIfq6burq+4gVawaxbiesHbkyAXW9upWwTEL9EMv69dfb6p9fNxvb2l0/V7esltEqc1Dt9L9bV89rh6qO1af6TmK77i233LL4/tym+Pp1+mNb7++mNtq16rj+noo1g1g/QtM32rUL2zeI9doyRPX9zu985zsHY6g2N423f+16XPkv816Py+zX9crIb2tj17n+rm+1mwzitrFV+9Wvdvts5bFuUy2DuOvcpnFve1/1sW5/LjNZj/3JwRgMJD1mEC04grNkIC2QFBtjcWqT6GMAA6crA0lHU2yI8SdTV9/3awaxrlG7cfU9xNqRq12wKu7TtVNb7XVV1K+bjW3ttnN1O2Z9j6//K5/9c9Vm+75emaL6MZT6wZcyWvXeMryb4tvGtt7fbW1sG2MziLVrWN/JbLeW1g/ZrBvEuq2yvqdZ125t9vtY4+mPt/+aelz5r1tVq92ar7o1uO2sbsrZtvbXc1CvTQZx19jqh4LqfTUntUPdbjGt9rad29bnTe+r8VYe6r3Vvj85GIOBpMcMogVHcBhEDNABDGBgNAZS8ZFiYxQ+m9osg1S3QTbDsel1pxrf1u4+58qcrF+zdo/WTVa9ZlN823X2bXv9dZueV7/6P2Kz6XXr8dbHNN7119Y10vi3tbHt3Hr7m55vG1txUz+AlN677dy2fm16X70nXUeMWRyKgaTHDKKigPAwiBigAxjAwGgMpOIjxYYqdrSjcMYABjCwPwNJjxlERcFoRcHcFmdaICk2t3Hp7/4iKVdyhYHhGUg6mmJyP3zu5VROMYCBXQwkPWYQGUQGcclAWiAptmuhOU+MMYABDKwYSDqaYnK2yplcyAUGMDAVA0mPGUQGkUFkEDFABzCAgdEYSMVHik1VDLmOwhsDGMDAioGkxwyiomC0omBuiy8tkBSb27j0dyWCciEXGJiegaSjKWZupp8bOZdzDGAg6TGDyCAyiEsG0gJJMWJKTDGAAQzsz0DS0RST0/1zKldyhQEMDMVA0mMGkUFkEBlEDNABDGBgNAZS8ZFiQxU72lE4YwADGNifgaTHDKKiYLSiYG6LMy2QFJvbuPR3f5GUK7nCwPAMJB1NMbkfPvdyKqcYwMAuBpIeM4gMIoO4ZCAtkBTbtdCcJ8YYwAAGVgwkHU0xOVvlTC7kAgMYmIqBpMcMIoPIIDKIGKADGMDAaAyk4iPFpiqGXEfhjQEMYGDFQNJjBlFRMFpRMLfFlxZIis1tXPq7EkG5kAsMTM9A0tEUMzfTz42cyzkGMJD0mEFkEBnEJQNpgaQYMSWmGMAABvZnIOloisnp/jmVK7nCAAaGYiDpMYPIIDKIDCIG6AAGMDAaA6n4SLGhih3tKJwxgAEM7M9A0mMGUVEwWlEwt8WZFkiKzW1c+ru/SMqVXGFgeAaSjqaY3A+fezmVUwxgYBcDSY8ZRAaRQVwykBZIiu1aaM4TYwxgAAMrBpKOppicrXImF3KBAQxMxUDSYwaRQWQQGUQM0AEMYGA0BlLxkWJTFUOuo/DGAAYwsGIg6TGDqCgYrSiY2+JLCyTF5jYu/V2JoFzIBQamZyDpaIqZm+nnRs7lHAMYSHrMIDKIDOKSgbRAUoyYElMMYAAD+zOQdDTF5HT/nMqVXGEAA0MxkPSYQWQQGUQGEQN0AAMYGI2BVHyk2FDFjnYUzhjAAAb2ZyDpMYOoKBitKJjb4kwLJMXmNi793V8k5UquMDA8A0lHU0zuh8+9nMopBjCwi4Gkxwwig8ggLhlICyTFdi0054kxBjCAgRUDSUdTTM5WOZMLucAABqZiIOkxg8ggMogMIgboAAYwMBoDqfhIsamKIddReGMAAxhYMZD0mEFUFIxWFMxt8aUFkmJzG5f+rkRQLuQCA9MzkHQ0xczN9HMj53KOAQwkFkqJogAACvFJREFUPWYQGUQGcclAWiApRkyJKQYwgIH9GUg6mmJyun9O5UquMICBoRhIeswgMogMIoOIATqAAQyMxkAqPlJsqGJHOwpnDGAAA/szkPSYQVQUjFYUzG1xpgWSYnMbl/7uL5JyJVcYGJ6BpKMpJvfD515O5RQDGNjFQNJjBpFBZBCXDKQFkmK7FprzxBgDGMDAioGkoykmZ6ucyYVcYAADUzGQ9JhBZBAZRAYRA3QAAxgYjYFUfKTYVMWQ6yi8MYABDKwYSHrMICoKRisK5rb40gJJsbmNS39XIigXcoGB6RlIOppi5mb6uZFzOccABpIeM4gMIoO4ZCAtkBQjpsQUAxjAwP4MJB1NMTndP6dyJVcYwMBQDCQ9ZhAZRAaRQcQAHcAABkZjIBUfKTZUsaMdhTMGMICB/RlIeswgKgpGKwrmtjjTAkmxuY1Lf/cXSbmSKwwMz0DS0RST++FzL6dyigEM7GIg6TGDyCAyiEsG0gJJsV0LzXlijAEMYGDFQNLRFJOzVc7kQi4wgIGpGEh6zCAyiAwig4gBOoABDIzGQCo+UmyqYsh1FN4YwAAGVgwkPWYQFQWjFQVzW3xpgaTY3MalvysRlAu5wMD0DCQdTTFzM/3cyLmcYwADSY8ZRAaRQVwykBZIihFTYooBDGBgfwaSjqaYnO6fU7mSKwxgYCgGkh4ziAwig8ggYoAOYAADozGQio8UG6rY0Y7CGQMYwMD+DCQ9ZhAVBaMVBXNbnGmBpNjcxqW/+4ukXMkVBoZnIOloisn98LmXUznFAAZ2MZD0mEFkEBnEJQNpgaTYroXmPDHGAAYwsGIg6WiKydkqZ3IhFxjAwFQMJD1mEBlEBpFBxAAdwAAGRmMgFR8pNlUx5DoKbwxgAAMrBpIeM4iKgtGKgrktvrRAUmxu49LflQjKhVxgYHoGko6mmLmZfm7kXM4xgIGkxwwig8ggLhlICyTFiCkxxQAGMLA/A0lHU0xO98+pXMkVBjAwFANJjxlEBpFBZBAxQAcwgIHRGEjFR4oNVexoR+GMAQxgYH8Gkh4ziIqC0YqCuS3OtEBSbG7j0t/9RVKu5AoDwzOQdDTF5H743MupnGIAA7sYSHrMIDKIDOKSgbRAUmzXQnOeGGMAAxhYMZB0NMXkbJUzuZALDGBgKgaSHjOIDCKDyCBigA5gAAOjMZCKjxSbqhhyHYU3BjCAgRUDSY8ZREXBaEXB3BZfWiApNrdx6e9KBOVCLjAwPQNJR1PM3Ew/N3Iu5xjAQNJjBpFBZBCXDKQFkmLElJhiAAMY2J+BpKMpJqf751Su5AoDGBiKgaTHDCKDyCAyiBigAxjAwGgMpOIjxYYqdrSjcMYABjCwPwNJjxlERcFoRcHcFmdaICk2t3Hp7/4iKVdyhYHhGUg6mmJyP3zu5VROMYCBXQwkPWYQGUQGcclAWiAptmuhOU+MMYABDKwYSDqaYnK2yplcyAUGMDAVA0mPGUQGkUFkEDFABzCAgdEYSMVHik1VDLmOwhsDGMDAioGkxwyiomC0omBuiy8tkBSb27j0dyWCciEXGJiegaSjKWZupp8bOZdzDGAg6TGDyCAyiEsG0gJJMWJKTDGAAQzsz0DS0RST0/1zKldyhQEMDMVA0mMGkUFkEBlEDNABDGBgNAZS8ZFiQxU72lE4YwADGNifgaTHDKKiYLSiYG6LMy2QFJvbuPR3f5GUK7nCwPAMJB1NMbkfPvdyKqcYwMAuBpIeM4gMIoO4ZCAtkBTbtdCcJ8YYwAAGVgwkHU0xOVvlTC7kAgMYmIqBpMcMIoPIIDKIGKADGMDAaAyk4iPFpiqGXEfhjQEMYGDFQNJjBlFRMFpRMLfFlxZIis1tXPq7EkG5kAsMTM9A0tEUMzfTz42cyzkGMJD0mEFkEBnEJQNpgaQYMSWmGMAABvZnIOloisnp/jmVK7nCAAaGYiDpMYPIIDKIDCIG6AAGMDAaA6n4SLGhih3tKJwxgAEM7M9A0mMGUVEwWlEwt8WZFkiKzW1c+ru/SMqVXGFgeAaSjqaY3A+fezmVUwxgYBcDSY8ZRAaRQVwykBZIiu1aaM4TYwxgAAMrBpKOppicrXImF3KBAQxMxUDSYwaRQWQQGUQM0AEMYGA0BlLxkWJTFUOuo/DGAAYwsGIg6TGDqCgYrSiY2+JLCyTF5jYu/V2JoFzIBQamZyDpaIqZm+nnRs7lHAMYSHrMIDKIDOKSgbRAUoyYElMMYAAD+zOQdDTF5HT/nMqVXGEAA0MxkPSYQWQQGUQGEQN0AAMYGI2BVHyk2FDFjnYUzhjAAAb2ZyDpMYOoKBitKJjb4kwLJMXmNi793V8k5UquMDA8A0lHU0zuh8+9nMopBjCwi4Gkxwwig8ggLhlICyTFdi0054kxBjCAgRUDSUdTTM5WOZMLucAABqZiIOkxg8ggMogMIgboAAYwMBoDqfhIsamKIddReGMAAxhYMZD0mEFUFIxWFMxt8aUFkmJzG5f+rkRQLuQCA9MzkHQ0xczN9HMj53KOAQwkPWYQGUQGcclAWiApRkyJKQYwgIH9GUg6mmJyun9O5UquMICBoRhIeswgMogMIoOIATqAAQyMxkAqPlJsqGJHOwpnDGAAA/szkPSYQVQUjFYUzG1xpgWSYnMbl/7uL5JyJVcYGJ6BpKMpJvfD515O5RQDGNjFQNJjBpFBZBCXDKQFkmK7FprzxBgDGMDAioGkoykmZ6ucyYVcYAADUzGQ9JhBZBAZRAYRA3QAAxgYjYFUfKTYVMWQ6yi8MYABDKwYSHrMICoKRisK5rb40gJJsbmNS39XIigXcoGB6RlIOppi5mb6uZFzOccABpIeM4gMIoO4ZCAtkBQjpsQUAxjAwP4MJB1NMTndP6dyJVcYwMBQDCQ9ZhAZRAaRQcQAHcAABkZjIBUfKTZUsaMdhTMGMICB/RlIeswgKgpGKwrmtjjTAkmxuY1Lf/cXSbmSKwwMz0DS0RST++FzL6dyigEM7GIg6TGDyCAyiEsG0gJJsV0LzXlijAEMYGDFQNLRFJOzVc7kQi4wgIGpGEh6zCAyiAwig4gBOoABDIzGQCo+UmyqYsh1FN4YwAAGVgwkPWYQFQWjFQVzW3xpgaTY3MalvysRlAu5wMD0DCQdTTFzM/3cyLmcYwADSY8ZRAaRQVwykBZIihFTYooBDGBgfwaSjqaYnO6fU7mSKwxgYCgGkh4ziAwig8ggYoAOYAADozGQio8UG6rY0Y7CGQMYwMD+DCQ9ZhAVBaMVBXNbnGmBpNjcxqW/+4ukXMkVBoZnIOloisn98LmXUznFAAZ2MZD0mEFkEBnEJQNpgaTYroXmPDHGAAYwsGIg6WiKydkqZ3IhFxjAwFQMJD1mEBlEBpFBxAAdwAAGRmMgFR8pNlUx5DoKbwxgAAMrBpIeM4iKgtGKgrktvrRAUmxu49LflQjKhVxgYHoGko6mmLmZfm7kXM4xgIGkxwwig8ggLhlICyTFiCkxxQAGMLA/A0lHK+ZPDjCAAQwcDQbWP9NOMojrL/B8/w9BuZIrDGAAAxjAAAYwgAEMYGDODDCIdhDtIGIAAxjAAAYwgAEMYAADGFgwwCACgRhgAAMYwAAGMIABDGAAAxhYMMAgAoEYYAADGMAABjCAAQxgAAMYWDDAIAKBGGAAAxjAAAYwgAEMYAADGFgwwCACgRhgAAMYwAAGMIABDGAAAxhYMMAgAoEYYAADGMAABjCAAQxgAAMYWDDw/58kTWZbw+9mAAAAAElFTkSuQmCC;" parent="1" vertex="1">
                    <mxGeometry x="300" y="158.73" width="604" height="399.55" as="geometry"/>
                </mxCell>
                <mxCell id="67" style="edgeStyle=orthogonalEdgeStyle;rounded=0;orthogonalLoop=1;jettySize=auto;html=1;exitX=1;exitY=0.5;exitDx=0;exitDy=0;" parent="1" source="63" target="68" edge="1">
                    <mxGeometry relative="1" as="geometry">
                        <mxPoint x="200" y="500" as="targetPoint"/>
                    </mxGeometry>
                </mxCell>
                <mxCell id="68" value="" style="rounded=1;arcSize=10;dashed=1;fillColor=none;gradientColor=none;dashPattern=8 3 1 3;strokeWidth=2;strokeColor=#FF0000;" parent="1" vertex="1">
                    <mxGeometry x="209" y="137.28" width="791" height="562.72" as="geometry"/>
                </mxCell>
                <mxCell id="69" value="InputActionAsset" style="text;html=1;strokeColor=#001DBC;fillColor=#0050ef;align=center;verticalAlign=middle;whiteSpace=wrap;rounded=0;fontColor=#ffffff;" parent="1" vertex="1">
                    <mxGeometry x="527" y="137.27999999999997" width="163" height="27" as="geometry"/>
                </mxCell>
                <mxCell id="70" value="ActionMap" style="text;html=1;strokeColor=#314354;fillColor=#647687;align=center;verticalAlign=middle;whiteSpace=wrap;rounded=0;fontColor=#ffffff;" parent="1" vertex="1">
                    <mxGeometry x="300" y="266.28" width="100" height="20" as="geometry"/>
                </mxCell>
                <mxCell id="71" value="Actions" style="text;html=1;strokeColor=#314354;fillColor=#647687;align=center;verticalAlign=middle;whiteSpace=wrap;rounded=0;fontColor=#ffffff;" parent="1" vertex="1">
                    <mxGeometry x="520.5" y="266.28" width="100" height="20" as="geometry"/>
                </mxCell>
                <mxCell id="73" value="掏出暗器" style="text;html=1;strokeColor=#001DBC;fillColor=#0050ef;align=center;verticalAlign=middle;whiteSpace=wrap;rounded=0;fontColor=#ffffff;" parent="1" vertex="1">
                    <mxGeometry x="-629.75" y="266.28000000000003" width="119.5" height="20" as="geometry"/>
                </mxCell>
                <mxCell id="76" value="瞄准" style="text;html=1;strokeColor=#A50040;fillColor=#d80073;align=center;verticalAlign=middle;whiteSpace=wrap;rounded=0;fontColor=#ffffff;" parent="1" vertex="1">
                    <mxGeometry x="-510.25" y="266.28000000000003" width="100" height="20" as="geometry"/>
                </mxCell>
                <mxCell id="78" value="释放（点击释放）" style="text;html=1;strokeColor=#432D57;fillColor=#76608a;align=center;verticalAlign=middle;whiteSpace=wrap;rounded=0;fontColor=#ffffff;" parent="1" vertex="1">
                    <mxGeometry x="-410.25" y="266.28000000000003" width="116.5" height="20" as="geometry"/>
                </mxCell>
                <mxCell id="81" value="掏出暗器" style="text;html=1;strokeColor=#001DBC;fillColor=#0050ef;align=center;verticalAlign=middle;whiteSpace=wrap;rounded=0;fontColor=#ffffff;" parent="1" vertex="1">
                    <mxGeometry x="-629.75" y="306.28000000000003" width="119.5" height="20" as="geometry"/>
                </mxCell>
                <mxCell id="82" value="瞄准" style="text;html=1;strokeColor=#A50040;fillColor=#d80073;align=center;verticalAlign=middle;whiteSpace=wrap;rounded=0;fontColor=#ffffff;" parent="1" vertex="1">
                    <mxGeometry x="-510.25" y="306.28000000000003" width="100" height="20" as="geometry"/>
                </mxCell>
                <mxCell id="84" value="充能" style="text;html=1;strokeColor=#3700CC;fillColor=#6a00ff;align=center;verticalAlign=middle;whiteSpace=wrap;rounded=0;fontColor=#ffffff;" parent="1" vertex="1">
                    <mxGeometry x="-410.25" y="306.28000000000003" width="100" height="20" as="geometry"/>
                </mxCell>
                <mxCell id="85" value="释放（点击释放）" style="text;html=1;strokeColor=#432D57;fillColor=#76608a;align=center;verticalAlign=middle;whiteSpace=wrap;rounded=0;fontColor=#ffffff;" parent="1" vertex="1">
                    <mxGeometry x="-310.25" y="306.28000000000003" width="116.5" height="20" as="geometry"/>
                </mxCell>
                <mxCell id="88" value="瞄准" style="text;html=1;strokeColor=#A50040;fillColor=#d80073;align=center;verticalAlign=middle;whiteSpace=wrap;rounded=0;fontColor=#ffffff;" parent="1" vertex="1">
                    <mxGeometry x="-629.75" y="347.78000000000003" width="100" height="20" as="geometry"/>
                </mxCell>
                <mxCell id="89" value="释放（点击释放）" style="text;html=1;strokeColor=#432D57;fillColor=#76608a;align=center;verticalAlign=middle;whiteSpace=wrap;rounded=0;fontColor=#ffffff;" parent="1" vertex="1">
                    <mxGeometry x="-529.75" y="347.78000000000003" width="116.5" height="20" as="geometry"/>
                </mxCell>
                <mxCell id="90" value="Input模块状态" style="text;html=1;strokeColor=#A50040;fillColor=#d80073;align=center;verticalAlign=middle;whiteSpace=wrap;rounded=0;fontColor=#ffffff;" parent="1" vertex="1">
                    <mxGeometry x="-664.37" y="900" width="147" height="20" as="geometry"/>
                </mxCell>
                <mxCell id="92" value="瞄准" style="text;html=1;strokeColor=#A50040;fillColor=#d80073;align=center;verticalAlign=middle;whiteSpace=wrap;rounded=0;fontColor=#ffffff;" parent="1" vertex="1">
                    <mxGeometry x="-629.75" y="378" width="100" height="20" as="geometry"/>
                </mxCell>
                <mxCell id="93" value="释放（松开释放）" style="text;html=1;strokeColor=#432D57;fillColor=#76608a;align=center;verticalAlign=middle;whiteSpace=wrap;rounded=0;fontColor=#ffffff;" parent="1" vertex="1">
                    <mxGeometry x="-531.25" y="378" width="116.5" height="20" as="geometry"/>
                </mxCell>
                <mxCell id="95" value="瞄准" style="text;html=1;strokeColor=#A50040;fillColor=#d80073;align=center;verticalAlign=middle;whiteSpace=wrap;rounded=0;fontColor=#ffffff;" parent="1" vertex="1">
                    <mxGeometry x="-629.75" y="411" width="100" height="20" as="geometry"/>
                </mxCell>
                <mxCell id="96" value="充能" style="text;html=1;strokeColor=#3700CC;fillColor=#6a00ff;align=center;verticalAlign=middle;whiteSpace=wrap;rounded=0;fontColor=#ffffff;" parent="1" vertex="1">
                    <mxGeometry x="-529.75" y="411.00000000000006" width="100" height="20" as="geometry"/>
                </mxCell>
                <mxCell id="98" style="edgeStyle=orthogonalEdgeStyle;rounded=0;orthogonalLoop=1;jettySize=auto;html=1;exitX=1;exitY=0.25;exitDx=0;exitDy=0;" parent="1" source="97" edge="1">
                    <mxGeometry relative="1" as="geometry">
                        <mxPoint x="-313" y="416" as="targetPoint"/>
                    </mxGeometry>
                </mxCell>
                <mxCell id="97" value="释放（松开、超时释放）" style="text;html=1;strokeColor=#432D57;fillColor=#76608a;align=center;verticalAlign=middle;whiteSpace=wrap;rounded=0;fontColor=#ffffff;" parent="1" vertex="1">
                    <mxGeometry x="-429.75" y="411" width="116.5" height="20" as="geometry"/>
                </mxCell>
                <mxCell id="99" value="InputState" style="swimlane;fontStyle=0;childLayout=stackLayout;horizontal=1;startSize=26;fillColor=#fa6800;horizontalStack=0;resizeParent=1;resizeParentMax=0;resizeLast=0;collapsible=1;marginBottom=0;strokeColor=#C73500;fontColor=#ffffff;" parent="1" vertex="1">
                    <mxGeometry x="-865.38" y="571" width="243.75" height="78" as="geometry"/>
                </mxCell>
                <mxCell id="100" value="+ GetState():InputState" style="text;strokeColor=none;fillColor=none;align=left;verticalAlign=top;spacingLeft=4;spacingRight=4;overflow=hidden;rotatable=0;points=[[0,0.5],[1,0.5]];portConstraint=eastwest;" parent="99" vertex="1">
                    <mxGeometry y="26" width="243.75" height="26" as="geometry"/>
                </mxCell>
                <mxCell id="101" value="+ ConvertToState(InputState):bool" style="text;strokeColor=none;fillColor=none;align=left;verticalAlign=top;spacingLeft=4;spacingRight=4;overflow=hidden;rotatable=0;points=[[0,0.5],[1,0.5]];portConstraint=eastwest;" parent="99" vertex="1">
                    <mxGeometry y="52" width="243.75" height="26" as="geometry"/>
                </mxCell>
                <mxCell id="109" style="edgeStyle=orthogonalEdgeStyle;rounded=0;orthogonalLoop=1;jettySize=auto;html=1;entryX=0.5;entryY=0;entryDx=0;entryDy=0;" parent="1" source="104" target="105" edge="1">
                    <mxGeometry relative="1" as="geometry">
                        <mxPoint x="-276.62" y="1109" as="targetPoint"/>
                    </mxGeometry>
                </mxCell>
                <mxCell id="104" value="掏出暗器" style="text;html=1;strokeColor=#001DBC;fillColor=#0050ef;align=center;verticalAlign=middle;whiteSpace=wrap;rounded=0;fontColor=#ffffff;" parent="1" vertex="1">
                    <mxGeometry x="-222.37" y="989" width="119.5" height="20" as="geometry"/>
                </mxCell>
                <mxCell id="110" style="edgeStyle=orthogonalEdgeStyle;rounded=0;orthogonalLoop=1;jettySize=auto;html=1;exitX=0.5;exitY=1;exitDx=0;exitDy=0;entryX=0;entryY=0.5;entryDx=0;entryDy=0;" parent="1" source="105" target="107" edge="1">
                    <mxGeometry relative="1" as="geometry"/>
                </mxCell>
                <mxCell id="113" style="edgeStyle=orthogonalEdgeStyle;rounded=0;orthogonalLoop=1;jettySize=auto;html=1;exitX=1;exitY=0.5;exitDx=0;exitDy=0;" parent="1" source="105" target="106" edge="1">
                    <mxGeometry relative="1" as="geometry"/>
                </mxCell>
                <mxCell id="105" value="瞄准" style="text;html=1;strokeColor=#A50040;fillColor=#d80073;align=center;verticalAlign=middle;whiteSpace=wrap;rounded=0;fontColor=#ffffff;" parent="1" vertex="1">
                    <mxGeometry x="-326.87" y="1084" width="100" height="20" as="geometry"/>
                </mxCell>
                <mxCell id="114" style="edgeStyle=orthogonalEdgeStyle;rounded=0;orthogonalLoop=1;jettySize=auto;html=1;exitX=0.5;exitY=1;exitDx=0;exitDy=0;" parent="1" source="106" target="107" edge="1">
                    <mxGeometry relative="1" as="geometry"/>
                </mxCell>
                <mxCell id="106" value="充能" style="text;html=1;strokeColor=#3700CC;fillColor=#6a00ff;align=center;verticalAlign=middle;whiteSpace=wrap;rounded=0;fontColor=#ffffff;" parent="1" vertex="1">
                    <mxGeometry x="-57.370000000000005" y="1084" width="100" height="20" as="geometry"/>
                </mxCell>
                <mxCell id="107" value="释放" style="text;html=1;strokeColor=#432D57;fillColor=#76608a;align=center;verticalAlign=middle;whiteSpace=wrap;rounded=0;fontColor=#ffffff;" parent="1" vertex="1">
                    <mxGeometry x="-222.37" y="1200" width="116.5" height="20" as="geometry"/>
                </mxCell>
                <mxCell id="115" value="" style="rounded=1;arcSize=10;dashed=1;fillColor=none;gradientColor=none;dashPattern=8 3 1 3;strokeWidth=2;strokeColor=#FF0000;" parent="1" vertex="1">
                    <mxGeometry x="-341.87" y="920" width="410.25" height="380" as="geometry"/>
                </mxCell>
                <mxCell id="116" value="技能阶段状态" style="text;html=1;strokeColor=#B20000;fillColor=#e51400;align=center;verticalAlign=middle;whiteSpace=wrap;rounded=0;fontColor=#ffffff;" parent="1" vertex="1">
                    <mxGeometry x="-192.69" y="900" width="111.88" height="20" as="geometry"/>
                </mxCell>
                <mxCell id="120" value="dispatch" style="html=1;verticalAlign=bottom;startArrow=oval;endArrow=block;startSize=8;fillColor=#d80073;strokeColor=#A50040;" parent="1" source="65" edge="1">
                    <mxGeometry relative="1" as="geometry">
                        <mxPoint x="-193.75" y="635" as="sourcePoint"/>
                        <mxPoint x="-221" y="648" as="targetPoint"/>
                    </mxGeometry>
                </mxCell>
                <mxCell id="121" value="" style="endArrow=block;startArrow=block;endFill=1;startFill=1;html=1;exitX=1.007;exitY=0.066;exitDx=0;exitDy=0;exitPerimeter=0;fillColor=#fa6800;strokeColor=#C73500;" parent="1" source="101" target="12" edge="1">
                    <mxGeometry width="160" relative="1" as="geometry">
                        <mxPoint x="-500" y="700" as="sourcePoint"/>
                        <mxPoint x="-340" y="700" as="targetPoint"/>
                    </mxGeometry>
                </mxCell>
                <mxCell id="122" value="SkillState" style="swimlane;fontStyle=0;childLayout=stackLayout;horizontal=1;startSize=26;fillColor=#fa6800;horizontalStack=0;resizeParent=1;resizeParentMax=0;resizeLast=0;collapsible=1;marginBottom=0;strokeColor=#C73500;fontColor=#ffffff;" parent="1" vertex="1">
                    <mxGeometry x="-865.37" y="671" width="243.75" height="78" as="geometry"/>
                </mxCell>
                <mxCell id="123" value="+ GetState():SkillState" style="text;strokeColor=none;fillColor=none;align=left;verticalAlign=top;spacingLeft=4;spacingRight=4;overflow=hidden;rotatable=0;points=[[0,0.5],[1,0.5]];portConstraint=eastwest;" parent="122" vertex="1">
                    <mxGeometry y="26" width="243.75" height="26" as="geometry"/>
                </mxCell>
                <mxCell id="124" value="+ ConvertToState(SkillState):bool" style="text;strokeColor=none;fillColor=none;align=left;verticalAlign=top;spacingLeft=4;spacingRight=4;overflow=hidden;rotatable=0;points=[[0,0.5],[1,0.5]];portConstraint=eastwest;" parent="122" vertex="1">
                    <mxGeometry y="52" width="243.75" height="26" as="geometry"/>
                </mxCell>
                <mxCell id="125" value="" style="endArrow=block;startArrow=block;endFill=1;startFill=1;html=1;exitX=1;exitY=0.5;exitDx=0;exitDy=0;entryX=0.004;entryY=0.307;entryDx=0;entryDy=0;entryPerimeter=0;fillColor=#fa6800;strokeColor=#C73500;" parent="1" source="123" target="12" edge="1">
                    <mxGeometry width="160" relative="1" as="geometry">
                        <mxPoint x="-600" y="700" as="sourcePoint"/>
                        <mxPoint x="-440" y="700" as="targetPoint"/>
                    </mxGeometry>
                </mxCell>
                <mxCell id="128" value="StateAttributeUtil" style="swimlane;fontStyle=0;childLayout=stackLayout;horizontal=1;startSize=26;fillColor=#fa6800;horizontalStack=0;resizeParent=1;resizeParentMax=0;resizeLast=0;collapsible=1;marginBottom=0;strokeColor=#C73500;fontColor=#ffffff;" parent="1" vertex="1">
                    <mxGeometry x="-432.25" y="749" width="140" height="52" as="geometry"/>
                </mxCell>
                <mxCell id="130" value="+ ChangeState()" style="text;strokeColor=none;fillColor=none;align=left;verticalAlign=top;spacingLeft=4;spacingRight=4;overflow=hidden;rotatable=0;points=[[0,0.5],[1,0.5]];portConstraint=eastwest;" parent="128" vertex="1">
                    <mxGeometry y="26" width="140" height="26" as="geometry"/>
                </mxCell>
                <mxCell id="133" value="Actor" style="shape=umlActor;verticalLabelPosition=bottom;verticalAlign=top;html=1;strokeColor=#FF3399;" parent="1" vertex="1">
                    <mxGeometry x="-719.19" y="1560" width="30" height="60" as="geometry"/>
                </mxCell>
                <mxCell id="146" value="输入" style="rounded=1;whiteSpace=wrap;html=1;arcSize=40;fontColor=#000000;fillColor=#ffffc0;strokeColor=#ff0000;" parent="1" vertex="1">
                    <mxGeometry x="-664.37" y="1580" width="120" height="40" as="geometry"/>
                </mxCell>
                <mxCell id="147" value="" style="edgeStyle=orthogonalEdgeStyle;html=1;verticalAlign=bottom;endArrow=open;endSize=8;strokeColor=#ff0000;" parent="1" source="146" edge="1">
                    <mxGeometry relative="1" as="geometry">
                        <mxPoint x="-604.37" y="1680" as="targetPoint"/>
                    </mxGeometry>
                </mxCell>
                <mxCell id="148" value="PlayerInput" style="rounded=1;whiteSpace=wrap;html=1;strokeColor=#001DBC;fillColor=#0050ef;fontColor=#ffffff;" parent="1" vertex="1">
                    <mxGeometry x="-664.37" y="1694" width="120" height="60" as="geometry"/>
                </mxCell>
                <mxCell id="149" value="Callback" style="html=1;verticalAlign=bottom;startArrow=circle;startFill=1;endArrow=open;startSize=6;endSize=8;" parent="1" edge="1">
                    <mxGeometry width="80" relative="1" as="geometry">
                        <mxPoint x="-540.87" y="1723.5" as="sourcePoint"/>
                        <mxPoint x="-460.87" y="1723.5" as="targetPoint"/>
                    </mxGeometry>
                </mxCell>
                <mxCell id="152" style="edgeStyle=orthogonalEdgeStyle;rounded=0;orthogonalLoop=1;jettySize=auto;html=1;exitX=1;exitY=0.5;exitDx=0;exitDy=0;" parent="1" source="150" target="151" edge="1">
                    <mxGeometry relative="1" as="geometry"/>
                </mxCell>
                <mxCell id="150" value="InputManager" style="rounded=1;whiteSpace=wrap;html=1;strokeColor=#C73500;fillColor=#fa6800;fontColor=#ffffff;" parent="1" vertex="1">
                    <mxGeometry x="-446.87" y="1694" width="120" height="60" as="geometry"/>
                </mxCell>
                <mxCell id="163" style="edgeStyle=orthogonalEdgeStyle;rounded=0;orthogonalLoop=1;jettySize=auto;html=1;exitX=1;exitY=0.5;exitDx=0;exitDy=0;entryX=0;entryY=0.5;entryDx=0;entryDy=0;fillColor=#008a00;strokeColor=#005700;" parent="1" source="151" target="162" edge="1">
                    <mxGeometry relative="1" as="geometry"/>
                </mxCell>
                <mxCell id="165" style="edgeStyle=orthogonalEdgeStyle;rounded=0;orthogonalLoop=1;jettySize=auto;html=1;exitX=0.5;exitY=1;exitDx=0;exitDy=0;fillColor=#d80073;strokeColor=#A50040;" parent="1" source="151" edge="1">
                    <mxGeometry relative="1" as="geometry">
                        <mxPoint x="-233" y="1800" as="targetPoint"/>
                    </mxGeometry>
                </mxCell>
                <mxCell id="151" value="CheckLock" style="rhombus;whiteSpace=wrap;html=1;strokeColor=#C73500;fillColor=#fa6800;fontColor=#ffffff;" parent="1" vertex="1">
                    <mxGeometry x="-272.69" y="1684" width="80" height="80" as="geometry"/>
                </mxCell>
                <mxCell id="160" style="edgeStyle=orthogonalEdgeStyle;rounded=0;orthogonalLoop=1;jettySize=auto;html=1;exitX=0.5;exitY=0;exitDx=0;exitDy=0;entryX=0;entryY=0.5;entryDx=0;entryDy=0;" parent="1" source="154" target="157" edge="1">
                    <mxGeometry relative="1" as="geometry"/>
                </mxCell>
                <mxCell id="161" style="edgeStyle=orthogonalEdgeStyle;rounded=0;orthogonalLoop=1;jettySize=auto;html=1;exitX=0.5;exitY=1;exitDx=0;exitDy=0;entryX=0;entryY=0.75;entryDx=0;entryDy=0;" parent="1" source="154" target="158" edge="1">
                    <mxGeometry relative="1" as="geometry"/>
                </mxCell>
                <mxCell id="154" value="StateChange" style="rounded=1;whiteSpace=wrap;html=1;strokeColor=#C73500;fillColor=#fa6800;fontColor=#ffffff;" parent="1" vertex="1">
                    <mxGeometry x="42.629999999999995" y="1694" width="120" height="60" as="geometry"/>
                </mxCell>
                <mxCell id="157" value="InputState" style="text;html=1;strokeColor=#A50040;fillColor=#d80073;align=center;verticalAlign=middle;whiteSpace=wrap;rounded=0;fontColor=#ffffff;" parent="1" vertex="1">
                    <mxGeometry x="268.38" y="1664" width="108.38" height="20" as="geometry"/>
                </mxCell>
                <mxCell id="173" style="edgeStyle=orthogonalEdgeStyle;rounded=0;orthogonalLoop=1;jettySize=auto;html=1;exitX=1;exitY=0.5;exitDx=0;exitDy=0;dashed=1;fillColor=#fa6800;strokeColor=#C73500;" parent="1" source="158" target="172" edge="1">
                    <mxGeometry relative="1" as="geometry"/>
                </mxCell>
                <mxCell id="158" value="SkillState" style="text;html=1;strokeColor=#A50040;fillColor=#d80073;align=center;verticalAlign=middle;whiteSpace=wrap;rounded=0;fontColor=#ffffff;" parent="1" vertex="1">
                    <mxGeometry x="268.38" y="1764" width="108.38" height="20" as="geometry"/>
                </mxCell>
                <mxCell id="164" style="edgeStyle=orthogonalEdgeStyle;rounded=0;orthogonalLoop=1;jettySize=auto;html=1;exitX=1;exitY=0.5;exitDx=0;exitDy=0;fillColor=#008a00;strokeColor=#005700;" parent="1" source="162" target="154" edge="1">
                    <mxGeometry relative="1" as="geometry"/>
                </mxCell>
                <mxCell id="168" style="edgeStyle=orthogonalEdgeStyle;rounded=0;orthogonalLoop=1;jettySize=auto;html=1;exitX=0.5;exitY=1;exitDx=0;exitDy=0;fillColor=#e51400;strokeColor=#B20000;" parent="1" source="162" target="167" edge="1">
                    <mxGeometry relative="1" as="geometry"/>
                </mxCell>
                <mxCell id="162" value="CheckState" style="rhombus;whiteSpace=wrap;html=1;strokeColor=#C73500;fillColor=#fa6800;fontColor=#ffffff;" parent="1" vertex="1">
                    <mxGeometry x="-105.87" y="1684" width="80" height="80" as="geometry"/>
                </mxCell>
                <mxCell id="166" value="无效输入" style="rounded=0;whiteSpace=wrap;html=1;strokeColor=#A50040;fillColor=#d80073;fontColor=#ffffff;" parent="1" vertex="1">
                    <mxGeometry x="-310.25" y="1800" width="120" height="60" as="geometry"/>
                </mxCell>
                <mxCell id="167" value="&lt;font style=&quot;font-size: 16px&quot;&gt;状态屏蔽输入 or&amp;nbsp; &amp;nbsp;强切新状态&lt;/font&gt;" style="rounded=0;whiteSpace=wrap;html=1;strokeColor=#A50040;fillColor=#d80073;fontColor=#ffffff;" parent="1" vertex="1">
                    <mxGeometry x="-178.8" y="1800" width="225.87" height="100" as="geometry"/>
                </mxCell>
                <mxCell id="169" value="&lt;font style=&quot;font-size: 22px&quot;&gt;引入InputSystem&lt;/font&gt;" style="text;html=1;strokeColor=#001DBC;fillColor=#0050ef;align=center;verticalAlign=middle;whiteSpace=wrap;rounded=0;fontColor=#ffffff;" parent="1" vertex="1">
                    <mxGeometry x="-97.07" y="402.56999999999994" width="242.63" height="36.86" as="geometry"/>
                </mxCell>
                <mxCell id="172" value="TryDoSkill" style="text;html=1;strokeColor=#001DBC;fillColor=#0050ef;align=center;verticalAlign=middle;whiteSpace=wrap;rounded=0;fontColor=#ffffff;" parent="1" vertex="1">
                    <mxGeometry x="454" y="1764" width="146" height="20" as="geometry"/>
                </mxCell>
                <mxCell id="175" value="InputSystem" style="html=1;fillColor=#0050ef;strokeColor=#001DBC;fontColor=#ffffff;" vertex="1" parent="1">
                    <mxGeometry x="-659.37" y="2100" width="110" height="50" as="geometry"/>
                </mxCell>
                <object label="InputController" aaaa="a111" id="176">
                    <mxCell style="swimlane;fontStyle=1;align=center;verticalAlign=top;childLayout=stackLayout;horizontal=1;startSize=26;horizontalStack=0;resizeParent=1;resizeParentMax=0;resizeLast=0;collapsible=1;marginBottom=0;shadow=1;" vertex="1" parent="1">
                        <mxGeometry x="-659.75" y="2252" width="160" height="138" as="geometry"/>
                    </mxCell>
                </object>
                <mxCell id="177" value="+ field: type" style="text;strokeColor=none;fillColor=none;align=left;verticalAlign=top;spacingLeft=4;spacingRight=4;overflow=hidden;rotatable=0;points=[[0,0.5],[1,0.5]];portConstraint=eastwest;" vertex="1" parent="176">
                    <mxGeometry y="26" width="160" height="26" as="geometry"/>
                </mxCell>
                <mxCell id="178" value="" style="line;strokeWidth=1;fillColor=none;align=left;verticalAlign=middle;spacingTop=-1;spacingLeft=3;spacingRight=3;rotatable=0;labelPosition=right;points=[];portConstraint=eastwest;" vertex="1" parent="176">
                    <mxGeometry y="52" width="160" height="8" as="geometry"/>
                </mxCell>
                <mxCell id="179" value="- Awake():void&#10;" style="text;strokeColor=none;fillColor=none;align=left;verticalAlign=top;spacingLeft=4;spacingRight=4;overflow=hidden;rotatable=0;points=[[0,0.5],[1,0.5]];portConstraint=eastwest;" vertex="1" parent="176">
                    <mxGeometry y="60" width="160" height="26" as="geometry"/>
                </mxCell>
                <mxCell id="180" value="- Start():void&#10;" style="text;strokeColor=none;fillColor=none;align=left;verticalAlign=top;spacingLeft=4;spacingRight=4;overflow=hidden;rotatable=0;points=[[0,0.5],[1,0.5]];portConstraint=eastwest;" vertex="1" parent="176">
                    <mxGeometry y="86" width="160" height="26" as="geometry"/>
                </mxCell>
                <mxCell id="182" value="- Update():void&#10;" style="text;strokeColor=none;fillColor=none;align=left;verticalAlign=top;spacingLeft=4;spacingRight=4;overflow=hidden;rotatable=0;points=[[0,0.5],[1,0.5]];portConstraint=eastwest;" vertex="1" parent="176">
                    <mxGeometry y="112" width="160" height="26" as="geometry"/>
                </mxCell>
            </root>
        </mxGraphModel>
    </diagram>
</mxfile>